<svg width="25" height="25" viewBox="0 0 25 25" fill="none" xmlns="http://www.w3.org/2000/svg">
<g clip-path="url(#clip0_3_2)">
<path d="M12.186 0C9.77569 0.000197778 7.41955 0.715121 5.41554 2.05437C3.41153 3.39361 1.84965 5.29703 0.927399 7.52393C0.00514692 9.75083 -0.236054 12.2012 0.234297 14.5652C0.704648 16.9292 1.86543 19.1006 3.56985 20.8049C5.27427 22.5091 7.44579 23.6697 9.80981 24.1399C12.1738 24.6101 14.6242 24.3687 16.851 23.4462C19.0778 22.5238 20.9811 20.9618 22.3202 18.9576C23.6593 16.9535 24.374 14.5973 24.374 12.187C24.37 8.95576 23.0847 5.858 20.7998 3.57317C18.515 1.28833 15.4172 0.00396942 12.186 0ZM16.874 13.124H13.124V16.874C13.124 17.1228 13.0252 17.3614 12.8493 17.5373C12.6734 17.7132 12.4348 17.812 12.186 17.812C11.9372 17.812 11.6986 17.7132 11.5227 17.5373C11.3468 17.3614 11.248 17.1228 11.248 16.874V13.124H7.49801C7.25466 13.1161 7.02395 13.0138 6.85462 12.8389C6.6853 12.6639 6.59063 12.43 6.59063 12.1865C6.59063 11.943 6.6853 11.7091 6.85462 11.5342C7.02395 11.3592 7.25466 11.2569 7.49801 11.249H11.248V7.499C11.248 7.25023 11.3468 7.01164 11.5227 6.83573C11.6986 6.65982 11.9372 6.561 12.186 6.561C12.4348 6.561 12.6734 6.65982 12.8493 6.83573C13.0252 7.01164 13.124 7.25023 13.124 7.499V11.249H16.874C17.1228 11.249 17.3614 11.3478 17.5373 11.5237C17.7132 11.6996 17.812 11.9382 17.812 12.187C17.812 12.4358 17.7132 12.6744 17.5373 12.8503C17.3614 13.0262 17.1228 13.124 16.874 13.124Z" fill="#4D4D4D"/>
</g>
<defs>
<clipPath id="clip0_3_2">
<rect width="25" height="25" fill="white"/>
</clipPath>
</defs>
</svg>
