<svg xmlns="http://www.w3.org/2000/svg" version="1.1" xmlns:xlink="http://www.w3.org/1999/xlink" xmlns:svgjs="http://svgjs.dev/svgjs" width="3000" height="500" preserveAspectRatio="none" viewBox="0 0 3000 500"><g mask="url(&quot;#SvgjsMask1055&quot;)" fill="none"><rect width="3000" height="500" x="0" y="0" fill="rgba(243, 238, 231, 1)"></rect><path d="M 0,180 C 150,159.2 450,66.8 750,76 C 1050,85.2 1200,217.4 1500,226 C 1800,234.6 1950,125.6 2250,119 C 2550,112.4 2850,178.2 3000,193L3000 500L0 500z" fill="rgba(246, 243, 238, 1)"></path><path d="M 0,350 C 100,365.2 300,445.2 500,426 C 700,406.8 800,244 1000,254 C 1200,264 1300,471.2 1500,476 C 1700,480.8 1800,278 2000,278 C 2200,278 2300,471 2500,476 C 2700,481 2900,337.6 3000,303L3000 500L0 500z" fill="rgba(250, 248, 245, 1)"></path></g><defs><mask id="SvgjsMask1055"><rect width="3000" height="500" fill="#ffffff"></rect></mask></defs></svg>