<svg xmlns="http://www.w3.org/2000/svg" version="1.1" xmlns:xlink="http://www.w3.org/1999/xlink" xmlns:svgjs="http://svgjs.com/svgjs" width="1000" height="1000"><rect width="1000" height="1000" rx="200" ry="200" fill="#111111"></rect><g transform="matrix(15.151515151515152,0,0,15.151515151515152,238.40751939831358,247.75698125181773)"><svg xmlns="http://www.w3.org/2000/svg" version="1.1" xmlns:xlink="http://www.w3.org/1999/xlink" xmlns:svgjs="http://svgjs.com/svgjs" width="32" height="33"><svg width="32" height="33" viewBox="0 0 32 33" fill="none" xmlns="http://www.w3.org/2000/svg">
<path d="M11.102 32.915C6.161 32.915 2.745 29.682 2.745 25.168C2.745 19.007 7.015 16.14 16.958 14.127L21.228 13.273V11.199C21.228 5.526 18.727 2.11 14.579 2.11C9.699 2.11 7.503 7.173 9.455 11.321L4.087 13.09C0.793 6.502 7.015 0.402 15.738 0.402C23.058 0.402 27.45 4.672 27.45 11.443V25.961C27.45 28.157 28.548 29.011 30.683 29.194L31.964 29.255V30.109L22.387 32.915H21.533L21.228 24.863C20.252 29.621 15.738 32.915 11.102 32.915ZM9.089 23.643C9.089 26.815 11.224 29.133 14.274 29.133C17.263 29.133 21.228 25.839 21.228 21.02V15.042L17.202 15.896C11.773 16.994 9.089 19.495 9.089 23.643Z" fill="white"></path>
</svg></svg></g></svg>