<svg width="251" height="503" viewBox="0 0 251 503" fill="none" xmlns="http://www.w3.org/2000/svg">
<path d="M40.8733 397.457C23.7057 394.219 11.9797 389.921 6.37321 383.575C6.35852 375.011 4.93565 366.529 20.3224 360.568C35.7091 354.609 56.7072 350.689 77.5159 347.038C96.1735 343.762 115.573 340.555 136.771 339.921C157.963 339.288 181.592 341.741 194.186 347.765C202.688 351.835 216.027 354.163 221.628 358.747C228.629 365.681 231.052 367.178 238.13 374.595C245.64 379.541 246.994 386.873 241.382 391.929C237.114 395.778 227.308 398.624 216.368 400.371C205.428 402.118 193.306 402.896 181.329 403.654C162.328 404.857 143.031 406.035 123.446 405.766C105.74 405.523 88.5792 403.488 71.5951 401.721C61.0351 400.622 50.6115 399.293 40.8733 397.457Z" fill="#F7F7F7"/>
<path d="M113.326 337.955C114.009 337.98 114.68 337.992 115.351 338.005C112.581 337.794 109.812 337.645 107.03 337.607C109.128 337.744 111.227 337.856 113.314 337.943L113.326 337.955Z" fill="#F7F7F7"/>
<path d="M249.594 290.117C249.259 289.024 249.048 287.894 248.986 286.751C248.886 284.59 248.936 282.441 248.973 280.28C248.986 279.225 249.01 278.157 248.973 277.088C248.973 276.939 248.899 275.909 248.874 275.474C248.762 274.915 248.551 273.636 248.514 273.462C248.365 272.667 248.228 271.885 248.079 271.09C247.731 269.301 247.371 267.525 246.899 265.762C246.638 264.793 246.34 263.837 246.03 262.88C245.905 262.495 245.744 262.048 245.707 261.924C244.763 259.602 243.72 257.316 242.763 255.006C241.348 251.541 240.106 248.051 239.336 244.387C239.025 242.934 238.951 241.519 239.075 240.152C239 239.978 238.938 239.817 238.864 239.656C237.348 235.818 237.473 231.546 237.597 227.497C237.696 223.97 237.634 220.318 238.143 216.828C238.143 216.766 238.156 216.741 238.168 216.692C238.143 216.567 238.131 216.431 238.094 216.245C237.895 214.804 237.609 213.338 237.522 211.885C237.423 210.109 237.696 208.346 237.895 206.57C238.081 204.918 238.255 203.266 238.267 201.602C238.267 201.502 238.255 201.117 238.243 200.757C238.193 200.558 238.168 200.285 238.243 200.31C238.243 200.136 238.243 200.024 238.255 200.037C237.51 198.037 237.162 196.013 237.237 194.088C234.989 193.256 232.778 192.324 230.592 191.281C227.512 189.791 225.463 187.232 224.32 184.251C221.613 181.308 219.39 177.868 217.166 174.564C216.322 173.31 215.477 172.055 214.608 170.813C214.211 170.242 213.801 169.683 213.403 169.112C211.217 167.125 209.354 164.604 207.206 162.517C207.206 162.517 207.193 162.517 207.181 162.505C206.597 162.169 206.051 161.784 205.467 161.461C205.442 161.449 205.38 161.412 205.293 161.362C205.691 161.635 203.939 160.878 203.468 160.753C201.741 160.282 200.201 159.524 198.847 158.555C198.003 158.207 197.171 157.798 196.351 157.313L195.668 156.792C195.544 156.854 195.432 156.916 195.295 156.953C193.768 157.462 192.551 158.406 190.924 158.754C189.309 159.102 187.682 158.99 186.043 158.903C181.683 158.692 177.361 158.282 173.039 157.76C164.333 156.705 155.677 155.45 146.908 155.177C132.204 154.718 117.499 154.631 102.769 154.618C101.949 155.574 100.732 156.208 99.0803 156.195C92.3364 156.146 85.6298 155.388 78.8859 155.152C73.1604 154.953 66.6898 154.109 61.1258 155.699C60.3309 155.922 59.5982 155.972 58.9275 155.86C58.6791 155.972 58.4183 156.084 58.1327 156.171C56.8162 156.593 55.4748 156.978 54.1583 157.4C53.7361 158.009 53.1027 158.555 52.2457 158.977C47.9982 161.076 44.7567 162.927 41.689 166.616C39.0188 169.832 36.4479 172.987 33.1815 175.545C31.3931 178.836 29.4432 182.55 26.9966 185.27C24.227 188.35 20.1657 191.331 16.7876 193.765C14.018 195.765 13.2977 196.684 12.9251 200.236C12.863 200.757 12.7636 201.254 12.6022 201.738C12.8257 202.123 12.9872 202.533 13.0617 203.005C14.403 211.811 12.8009 220.554 13.0989 229.397C13.3349 236.426 13.161 245.17 9.69596 251.628C8.83901 255.379 7.46043 258.956 6.2433 262.607C4.97649 266.358 4.16921 270.196 3.34952 274.083C2.52982 277.97 1.72254 281.882 1.54867 285.857C1.36237 290.204 1.8219 294.563 1.85916 298.897C2.69128 303.058 4.18163 307.107 5.59747 311.106C7.16235 315.502 9.68355 320.644 10.0189 325.413C10.7516 326.245 11.2236 327.363 11.2112 328.816C11.1366 337.796 13.8938 346.465 13.7572 355.469C13.6951 359.493 13.6206 363.529 13.5585 367.553C13.5336 369.031 13.4715 370.509 13.4964 371.987C13.5088 372.67 13.4964 373.391 13.5957 374.061C13.6206 374.235 13.7448 374.496 13.8069 374.595C13.782 374.558 13.7324 374.471 13.6454 374.322C14.8998 376.396 14.5521 378.408 13.4219 379.874C13.6206 380.42 13.7324 381.041 13.7324 381.724C13.7324 385.003 13.6454 388.331 14.4403 391.536C15.1855 394.578 16.1045 397.36 16.266 400.515C16.3281 401.782 16.0176 402.813 15.4587 403.595C15.4711 403.769 15.4835 403.955 15.4835 404.142C15.4711 405.57 15.2972 407.321 15.1855 409.109C15.4338 409.544 15.6326 410.053 15.7692 410.625C16.3653 413.245 17.2595 416.027 17.2968 418.76C18.5139 419.306 19.5323 420.362 20.0291 421.989C20.7619 424.398 23.7923 421.989 24.9473 421.194C25.4938 420.821 26.0527 420.498 26.624 420.213C26.6612 419.915 26.6985 419.616 26.7357 419.306C26.9717 417.145 26.8599 414.984 26.922 412.81C27.0462 407.942 27.8659 403.16 27.8659 398.28C27.8659 393.125 27.5803 387.971 27.779 382.817C27.9901 377.414 28.5366 371.913 27.7045 366.535C27.5058 365.231 27.6672 363.914 28.2385 362.846C28.3255 360.673 28.1143 358.537 28.0274 356.338C27.9529 354.562 28.0646 352.799 28.0895 351.035C28.015 350.551 28.0025 350.054 28.0771 349.582C28.0771 349.346 28.0771 349.098 28.0646 348.849C27.779 343.72 27.5182 338.678 27.5306 333.523C27.5306 332.84 27.6548 332.232 27.8659 331.71C27.8659 331.573 27.8535 331.437 27.8411 331.313C27.8411 331.064 27.8411 330.841 27.8784 330.617C27.6175 328.059 29.1576 325.289 32.4736 325.277C41.6021 325.252 50.507 327.686 59.623 327.959C62.7776 328.059 64.3052 330.617 64.2307 333.064C64.9883 334.057 65.2864 335.411 64.7151 337.013C63.3116 340.901 65.4602 346.03 67.435 349.632C67.82 349.371 68.2671 349.147 68.7763 348.986C74.539 347.173 73.297 339.174 75.7561 334.728C75.3463 332.095 76.8615 329.09 80.3141 329.077C88.536 329.027 96.733 328.183 104.955 328.071C113.04 327.972 121.026 329.177 129.099 329.475C137.445 329.785 145.791 328.605 154.124 328.903C156.583 328.99 158.968 329.487 161.39 329.909C162.868 330.17 165.637 330.953 166.929 330.046C168.432 328.978 169.91 328.978 171.114 329.586C173.275 329.226 175.61 330.17 176.318 332.902C176.952 335.349 177.101 337.957 177.982 340.329C178.839 342.627 180.28 344.726 181.361 346.924C181.77 347.769 181.919 348.588 181.882 349.371C181.969 349.408 182.056 349.433 182.143 349.47C182.429 349.545 182.689 349.657 182.95 349.793C183.062 349.619 183.186 349.458 183.335 349.284C184.813 347.545 186.614 346.514 186.676 344.13C186.751 340.54 186.49 337.237 187.471 333.722C186.453 331.275 187.185 328.245 190.501 327.674C198.549 326.308 206.734 326.196 214.807 324.991C216.198 324.78 217.614 324.991 218.719 325.662C221.315 325.339 224.159 326.866 224.159 330.232V417.766C225.264 418.486 225.935 419.666 226.133 420.933C226.618 421.442 227.102 421.951 227.624 422.436C228.021 422.808 228.419 423.168 228.828 423.529C228.853 423.529 228.866 423.516 228.891 423.516C229.226 423.429 229.549 423.355 229.872 423.305C230.778 421.206 232.306 419.381 234.181 418.039C234.368 416.077 234.318 414.09 234.517 412.14C235.721 400.279 236.715 388.381 237.982 376.52C238.031 376.098 238.094 375.676 238.156 375.266C237.671 372.385 237.684 369.64 238.007 366.845C237.932 364.759 237.833 362.66 237.82 360.561C237.82 360.064 237.845 359.58 237.907 359.095C237.112 357.481 236.715 355.717 236.876 353.929C237.187 350.402 237.783 346.924 238.479 343.459C238.665 342.503 238.901 341.546 239.062 340.578C238.95 341.012 239.087 338.591 239.1 338.243C239.311 332.294 240.689 327.015 242.602 321.427C244.279 316.546 245.558 311.652 246.899 306.672C247.52 304.35 248.166 302.04 248.675 299.705C248.799 299.133 248.911 298.562 249.01 297.991C249.01 297.879 249.035 297.78 249.035 297.655C249.073 296.5 249.097 295.37 249.035 294.215C248.961 292.774 249.184 291.408 249.644 290.154L249.594 290.117Z" fill="white"/>
<path d="M204.697 463.754C204.672 460.711 204.511 457.668 204.709 454.638C204.896 451.881 204.61 449.421 204.337 446.764C203.865 446.292 203.48 445.683 203.207 444.938C202.474 442.926 202.437 440.79 201.704 438.778C200.946 436.654 200.126 434.53 199.344 432.419C197.978 428.792 196.028 425.377 194.972 421.639C193.879 417.813 192.091 414.609 190.625 410.933C189.396 407.853 187.757 405.257 185.36 403.084C184.391 402.599 183.583 401.829 183.198 400.799C182.789 399.966 182.727 399.097 182.95 398.265C182.851 395.818 181.584 393.322 180.951 390.987C180.218 388.317 178.864 385.895 178.032 383.262C177.113 380.318 177.138 377.276 176.678 374.258C176.231 371.351 175.275 368.557 174.828 365.638C173.871 359.441 172.604 353.306 171.251 347.183C170.642 344.376 170.009 341.495 169.959 338.613C169.934 337.024 170.232 335.409 170.071 333.844C169.065 333.794 168.046 333.683 167.053 333.397C164.209 332.565 163.166 329.621 163.923 327.249C163.551 326.405 163.414 325.448 163.526 324.529C161.787 324.082 160.321 322.666 159.787 321.039C157.999 321.934 156.186 322.791 154.298 323.499C149.802 325.212 146.399 318.692 149.69 315.587C154.435 311.129 159.601 307.005 164.619 302.733C162.954 302.634 161.663 301.59 160.992 300.199C157.838 302.075 154.671 303.95 151.528 305.85C147.008 308.57 141.543 301.777 145.79 298.423C150.932 294.362 156.086 290.326 161.241 286.277C161.091 285.78 160.93 285.271 160.731 284.774C160.098 283.184 159.477 281.607 158.856 280.017C157.043 278.912 155.975 276.391 156.583 274.143C156.509 273.944 156.434 273.745 156.347 273.547C154.869 269.697 158.583 267.324 161.799 267.945C161.799 267.921 161.799 267.896 161.812 267.871C162.917 263.35 167.674 260.63 171.027 257.774C172.095 256.867 173.151 255.936 174.219 255.017C171.375 254.52 168.966 251.154 170.443 248.347C169.698 247.801 169.139 246.993 168.978 245.863C168.531 242.858 170.183 240.25 172.418 237.977C172.12 236.884 172.207 235.679 172.865 234.536C172.418 234.897 171.971 235.269 171.512 235.629C167.562 238.747 161.054 234.81 164.085 229.892C165.91 226.936 168.854 224.526 171.189 221.993C171.685 221.459 172.17 220.925 172.667 220.378C169.264 220.428 165.985 216.739 168.295 213.361C169.338 211.833 170.394 210.256 171.549 208.766C171.549 207.337 172.232 205.934 173.884 205.027C174.977 204.431 175.548 203.09 176.281 202.109C177.249 200.817 178.342 199.625 179.324 198.358C181.559 195.477 183.993 192.782 186.105 189.813C188.961 185.789 191.01 181.455 193.01 177.071C193.258 174.537 193.867 172.053 193.979 169.495C194.128 166.03 193.395 162.639 192.811 159.236C191.594 152.293 190.452 145.736 190.489 138.657C190.489 138.483 190.501 138.309 190.526 138.147C189.744 135.204 189.52 132.099 189.222 129.081C188.75 124.349 188.303 119.593 187.607 114.885C186.962 110.539 185.608 105.956 183.198 102.242C182.255 100.789 181.149 99.3236 179.646 98.4667C177.92 97.4731 176.74 96.8024 175.349 95.3493C175.287 95.2872 175.237 95.2251 175.2 95.1755C174.43 94.8898 173.685 94.5669 172.952 94.1943C172.505 93.9707 172.12 93.6975 171.81 93.3994C169.127 92.3189 166.631 90.9652 163.799 89.6984C161.601 88.7172 159.378 87.7485 157.092 86.9909C155.478 86.4444 152.957 84.7305 151.342 84.7181C145.256 84.656 145.256 75.2046 151.342 75.2543C152.162 75.2543 152.894 75.3785 153.59 75.5524C153.466 74.7948 153.416 74.0248 153.429 73.2423C153.578 65.7036 154.882 58.1897 155.118 50.6261C155.229 46.9126 155.192 43.1992 154.869 39.4981C154.82 38.8895 154.757 38.281 154.683 37.6724C154.596 37.3371 154.497 37.0142 154.447 36.803C154.087 34.9898 153.627 33.2138 153.056 31.4626C152.845 30.8292 152.646 30.171 152.41 29.5375C152.336 29.4134 152.211 29.1774 152.013 28.8172C151.069 27.0909 150.187 25.3397 149.144 23.663C148.734 23.0048 148.312 22.3466 147.877 21.7007C147.716 21.4648 146.834 20.3967 146.56 20.0241C146.424 19.8626 146.312 19.7384 146.262 19.6888C145.604 18.956 144.909 18.2357 144.201 17.5526C140.413 13.8639 136.414 10.3864 133.073 6.3252C130.278 10.3616 125.335 12.8704 120.305 13.3423C118.455 13.5162 116.604 13.7149 114.754 13.9384C113.822 14.0502 112.903 14.162 111.972 14.2862C111.934 14.2862 111.897 14.2862 111.86 14.2986C111.549 15.8262 111.003 17.3166 110.171 18.72C107.811 22.7191 105.364 26.7059 103.315 30.8789C103.03 31.4626 102.707 32.0712 102.433 32.6673C102.247 33.2386 101.961 34.108 101.85 34.4433C101.142 36.5919 100.62 38.7902 100.235 41.0133C100.012 42.2677 99.8377 43.5345 99.639 44.8013C99.639 44.9628 99.6142 45.1491 99.6017 45.4099C99.4154 48.0304 99.3533 50.5765 99.3782 53.197V53.3336C99.3782 53.3336 99.4279 53.4454 99.4527 53.5199C99.8129 54.4265 99.9743 55.4822 100.21 56.4261C101.042 59.6428 101.576 62.9589 101.713 66.2749C101.8 68.1875 101.465 69.9884 100.819 71.6402C101.378 71.9507 101.937 72.286 102.483 72.6462C103.042 73.0188 103.613 73.3417 104.197 73.6646C104.209 73.6646 104.222 73.6646 104.247 73.677C104.296 73.677 104.346 73.6646 104.421 73.6646C107.066 73.5032 109.041 75.9622 109.152 78.3965C109.264 80.9053 107.153 82.7558 104.83 83.0911C104.371 83.5382 103.8 83.9232 103.092 84.1841C103.005 84.2586 102.905 84.3207 102.818 84.3952C102.458 84.9417 101.924 85.4509 101.229 85.8607C100.074 86.5314 98.9186 86.9164 97.7264 87.2393C95.7392 88.0466 93.6651 88.6551 91.5662 89.2513C90.7714 89.5369 89.9765 89.7977 89.132 89.984C88.809 90.0586 88.4985 90.1207 88.1756 90.1828C86.5362 90.6174 84.8969 91.0273 83.2575 91.375C83.2326 91.3875 83.1954 91.3999 83.1705 91.4123C81.4566 92.083 80.0035 93.2877 78.3517 94.0825C74.5264 95.9206 70.49 97.3986 67.8943 100.975C66.8262 102.441 65.6464 104.018 65.2365 105.819C64.8764 107.372 64.7398 108.787 64.3423 110.216C64.5907 110.986 64.6404 111.855 64.3796 112.836C63.2246 117.345 62.7526 122.437 62.5539 127.082C62.4049 130.609 61.1505 133.999 60.5543 137.44C60.604 137.688 60.6413 137.936 60.6661 138.21C60.9021 141.836 59.7967 145.338 59.9582 148.94C60.0948 151.921 61.1132 154.914 60.9766 157.895C60.9269 159.025 60.5543 159.944 59.9954 160.652C60.1693 161.608 60.0203 162.676 59.3869 163.757C58.741 164.862 58.7659 166.564 58.5796 167.818C58.3188 169.544 57.8717 171.221 57.6978 172.947C57.3128 176.872 58.5547 180.573 60.5419 183.926C62.3303 186.969 64.5286 189.851 67.2361 192.136C69.8318 194.322 72.7132 196.122 75.1847 198.482C77.7928 200.979 80.2643 204.059 80.6121 207.772C80.9474 211.25 79.5688 214.516 78.004 217.534C76.998 219.459 75.9174 221.372 74.9736 223.346C75.4579 224.054 75.7187 224.986 75.6194 226.128C75.4082 228.438 75.371 230.749 74.9239 233.034C79.0844 232.177 83.2947 237.468 79.3949 240.846C78.4014 241.703 80.4382 249.639 80.7611 251.204C81.1709 253.265 81.7671 255.29 82.1273 257.351C82.2639 258.184 82.3384 259.016 82.5123 259.848C82.5495 260.109 82.6116 260.369 82.6737 260.63C85.3191 261.661 87.9521 262.493 90.6968 263.226C94.0377 264.108 97.5277 265.461 99.1919 268.715C100.583 271.41 99.4651 273.907 97.3414 275.062C98.3598 275.782 99.3161 276.577 100.136 277.546C102.545 280.377 101.514 284.141 98.0741 285.445C99.9246 290.052 100.931 294.921 101.663 299.864C102.458 305.229 102.818 310.582 101.763 315.798C101.837 316.009 101.899 316.233 101.961 316.481C102.607 313.786 103.216 311.079 103.812 308.384C105.141 302.435 114.257 304.968 112.928 310.893C110.904 319.934 108.892 329 105.414 337.607C105.849 340.141 105.911 342.712 105.737 344.898C105.6 346.537 104.731 347.804 103.576 348.599C103.663 348.922 103.713 349.269 103.737 349.642C103.849 351.517 104.47 353.306 104.681 355.169C104.905 357.243 104.582 359.193 104.296 361.254C103.725 365.514 103.862 369.774 104.122 374.059C104.383 378.307 104.557 382.517 104.681 386.777C104.768 390.006 104.023 394.042 104.83 397.135C105.24 398.7 104.893 400.028 104.135 401.022C104.135 401.159 104.16 401.308 104.16 401.444C104.16 403.928 104.868 406.226 104.768 408.71C104.657 411.678 104.085 414.82 103.675 417.764C102.893 423.204 103.179 428.743 102.272 434.17C101.365 439.61 98.7448 444.603 98.0741 450.067C97.5773 454.054 96.7576 457.954 95.9131 461.854C96.4471 462.773 96.6334 463.928 96.3105 465.244C93.8638 475.018 95.5778 484.818 97.9499 494.381C98.9932 498.541 100.608 501.199 104.681 502.267C105.253 501.957 105.812 501.646 106.408 501.373C107.352 500.963 108.594 500.839 109.463 500.317C111.388 499.175 112.804 496.492 113.984 494.704C117.101 489.947 118.418 484.582 121.237 479.701C121.286 479.614 121.349 479.527 121.411 479.44C121.758 478.285 121.994 477.13 122.069 475.875C122.143 474.646 122.591 473.677 123.261 472.932C123.522 468.461 125.037 464.151 126.341 459.879C128.167 453.905 128.987 448.515 128.701 442.268C128.428 436.244 127.943 430.295 126.441 424.446C124.901 418.459 124.354 413.106 124.391 406.921C124.416 403.357 127.658 401.879 130.34 402.488C130.39 401.159 130.452 399.817 130.477 398.464C130.626 392.825 130.638 387.199 131.21 381.585C131.781 376.059 132.477 370.445 133.557 364.98C133.955 362.981 134.675 360.993 135.37 358.994C132.949 356.373 134.613 352.921 137.258 351.728C137.308 351.207 137.333 350.685 137.333 350.151C137.221 344.053 146.672 344.065 146.796 350.151C146.846 352.585 146.362 354.846 145.704 357.081C146.958 359.466 147.753 362.099 148.572 364.744C149.256 366.98 150.435 368.955 151.193 371.153C152.124 373.811 152.298 376.866 152.36 379.673C153.28 380.691 153.764 382.119 153.354 383.833C152.981 385.411 153.838 387.373 154.261 388.888C154.807 390.888 155.279 392.9 155.689 394.924C156.533 399.072 157.316 403.282 158.471 407.356C159.005 409.244 159.924 410.411 161.029 411.989C162.309 413.802 162.992 415.715 163.513 417.876C164.569 422.334 165.215 426.88 166.208 431.351C166.395 432.183 166.357 432.941 166.196 433.624C166.606 434.344 166.854 435.151 166.904 435.971C167.661 436.84 168.133 437.983 168.171 439.138C168.183 439.809 168.258 440.479 168.282 441.138C168.68 441.634 169.028 442.206 169.276 442.827C170.717 446.404 171.897 449.956 173.859 453.296C175.685 456.414 177.436 459.606 179.001 462.86C180.578 466.138 181.398 468.647 184.093 471.181C186.589 473.516 188.589 476.223 190.824 478.769C192.824 481.042 195.221 483.576 198.177 484.544C198.586 484.681 199.009 484.78 199.431 484.867C200.064 484.259 200.859 483.799 201.753 483.551C202.114 482.917 202.635 482.346 203.356 481.899C203.902 481.564 204.511 480.731 205.094 479.937C204.908 474.534 204.821 469.144 204.784 463.729H204.759L204.697 463.754Z" fill="white"/>
<path d="M102.955 327.847C102.769 327.251 98.074 326.854 97.304 326.941C91.8518 327.115 86.3747 327.599 80.8852 327.81C81.618 328.568 79.1837 329.064 79.7426 329.959C82.9345 330.046 88.9829 330.381 90.4484 329.735C92.6591 329.002 102.831 330.729 102.955 327.822V327.847Z" fill="#1D1D1D"/>
<path d="M240.614 246.734C237.1 229.855 239.869 213.139 238.031 196.136C238.006 193.677 235.373 192.659 233.51 191.404C228.803 188.585 225.487 184.735 221.935 180.723C211.229 165.31 211.056 162.454 192.712 155.958C189.967 141.365 192.426 103.125 177.237 96.4062C174.591 95.4002 172.257 93.5994 169.636 92.8542C168.717 90.7304 166.469 90.569 164.457 89.8983C160.259 88.706 151.578 83.0923 147.467 83.8499C149.566 86.8679 165.438 88.4203 163.513 93.1274C155.726 111.757 149.504 126.847 128.937 110.167C132.588 103.386 138.202 96.0709 141.468 88.5942C142.325 86.2593 143.729 84.5082 146.25 84.1232C146.771 84.1604 147.045 83.7381 147.467 83.8499C147.628 83.9617 147.951 84.4336 148.162 84.4336C148.858 83.7381 149.851 83.5643 150.783 84.0238C151.429 84.3219 151.603 83.142 151.926 82.8812C152.162 82.6949 152.472 82.8812 152.733 82.8812C153.317 82.8812 153.677 81.8255 154.335 82.1608C154.67 82.1733 154.807 81.9 155.03 81.6392C156.012 81.0679 156.757 82.2229 157.092 80.3227C159.216 69.7039 162.557 57.5699 162.296 46.653C160.781 38.307 151.603 -2.7027 133.11 3.3581L133.035 3.33326C126.577 -3.98192 116.045 3.49471 111.214 9.54309C94.82 26.3966 94.2859 39.7974 95.205 61.8423C95.7887 66.5866 90.56 71.6662 96.1613 74.4731C97.6765 75.0195 98.521 76.3733 100.024 76.9818C101.477 76.9818 102.359 77.8636 103.75 78.0624C104.458 78.1866 105.215 78.1617 105.861 78.4722C106.408 78.6958 106.606 79.4534 107.078 79.7266C107.401 79.8756 107.985 78.9193 108.27 79.3913C109.376 82.4589 104.979 82.3099 103.34 84.061C96.4097 88.7184 87.48 90.5317 79.5935 92.3201C78.9352 92.73 78.5999 93.2019 78.1155 93.8726C72.4397 97.0272 66.5404 98.0953 65.137 105.448C63.2119 117.992 61.1006 130.386 60.0946 142.955C60.5665 143.228 61.0261 143.514 61.4732 143.824C60.728 132.647 64.3794 121.606 65.7207 110.503C66.3417 103.15 67.8941 100.964 74.489 97.5116C75.2217 97.1265 76.8736 95.3505 77.6684 95.6362C79.7301 97.4867 80.2269 100.703 82.1022 102.777C82.5369 103.535 82.4997 104.417 82.6487 105.249C82.7853 105.994 83.5057 106.516 84.1142 107.261C84.9091 108.677 86.1883 109.608 86.772 111.074C86.9211 111.732 87.008 112.44 87.3433 113.036C87.7904 113.955 88.9579 114.464 89.5292 115.259C90.1626 116.625 91.3176 117.222 92.4851 118.029C93.0191 118.662 93.2427 119.705 94.0003 120.277C94.6461 120.873 95.5527 120.972 96.2979 121.32C97.0555 121.68 97.217 122.637 97.987 123.332C99.1172 124.611 101.216 123.878 102.408 124.201C103.141 124.512 103.849 124.934 104.669 124.984C105.675 125.096 106.594 124.574 107.302 124.599C108.034 124.574 108.718 124.996 109.45 124.81C110.494 124.574 111.301 123.705 112.195 123.183C113.015 122.674 114.083 122.748 115.039 122.102C115.735 121.655 116.231 120.885 116.815 120.351C117.337 119.842 117.995 120.09 118.815 119.78C120.168 119.258 120.429 117.619 121.274 116.638C121.833 116.017 123.037 115.756 123.708 114.874C124.23 114.315 124.689 112.688 125.347 112.688C125.484 112.701 125.683 112.875 125.745 113.073C126.279 115.619 127.794 115.942 129.955 116.489C132.116 117.967 134.116 120.103 136.687 120.811C138.102 121.01 138.873 122.252 140.152 122.711C141.53 123.208 142.772 122.711 144.064 122.935C145.865 123.431 147.541 122.475 148.932 121.618C153.565 121.121 156.136 116.253 159.8 113.831C162.756 111.235 163.824 107.137 165.873 103.97C166.618 102.355 166.27 101.237 167.189 99.7347C168.369 97.9462 167.55 95.7728 169.263 94.2824C171.039 93.7981 172.617 95.7355 174.182 96.3193C182.068 99.2627 185.421 107.485 186.303 115.197C187.322 125.009 189.495 134.684 190.066 144.557C189.942 150.32 190.277 156.033 191.631 161.659C192.525 169.397 192.538 173.334 190.464 180.773C187.26 185.244 182.962 192.435 179.684 196.285C174.567 201.762 169.81 208.096 165.836 214.393C164.693 215.685 163.227 216.393 161.849 217.374C159.539 218.963 157.949 221.124 156.099 223.087C154.857 224.676 153.851 223.236 152.72 222.056C152.435 221.77 152.087 221.41 152.124 221C152.149 220.528 152.559 220.181 152.832 219.783C154 218.529 153.23 216.827 153.105 215.362L153.13 215.287C153.466 214.753 154.335 214.853 154.857 214.567C158.806 213.077 153.118 209.4 151.938 207.078C151.156 205.6 150.559 203.799 149.38 202.992C146.945 201.439 142.4 198.583 140.723 197.527C140.077 197.179 140.09 196.745 140.81 196.372C144.449 194.596 146.61 190.845 149.827 188.573C151.069 187.666 152.422 186.896 153.702 186.026C160.048 180.599 165.612 172.588 174.542 171.297C175.759 171.247 176.69 170.117 175.138 169.856C173.089 169.62 168.369 171.632 166.146 172.787C165.326 173.284 165.053 172.812 165.252 171.868C167.227 157.672 169.922 143.651 169.263 129.244C169.152 127.12 170.269 125.319 169.748 123.096C168.854 119.147 168.431 115.247 168.382 111.26C167.972 109.261 166.866 111.72 167.003 112.726C166.63 117.048 169.35 122.525 168.208 126.847C167.363 131.206 168.382 135.702 167.947 140.111C167.376 150.842 164.631 161.411 163.687 172.092C163.712 174.042 164.209 174.091 162.954 175.283C162.544 175.668 161.936 176.19 161.365 176.674C157.192 180.438 153.826 184.996 148.734 187.778C145.356 190.435 142.586 194.161 138.786 196.124C138.388 196.248 137.904 196.161 137.482 196.037C134.774 194.919 127.21 195.043 126.763 191.814C133.582 169.57 132.34 143.899 135.209 121.357C130.166 136.621 131.93 154.331 129.334 170.191C128.688 175.395 127.161 180.537 126.167 185.691C125.757 187.616 125.596 189.554 125.335 191.417C125.198 192.125 124.54 191.926 124.043 191.653C121.386 189.926 117.834 188.808 114.84 188.163C114.008 187.666 113.673 186.573 112.506 186.089C107.898 183.729 102.334 184.027 97.5647 181.63C94.4846 179.817 91.4046 177.606 88.014 176.364C86.7472 175.892 85.5301 174.923 84.847 173.806C83.7168 171.967 84.7849 170.465 84.9588 168.006C85.0209 164.665 85.7288 160.343 86.1014 156.455C86.3373 159.933 87.8277 165.795 88.2375 169.993C88.5356 171.185 87.3309 175.035 88.9827 175.221C90.0632 174.538 89.3056 172.7 89.405 171.545C89.554 154.965 80.4877 138.397 84.5365 121.978C84.5737 120.041 85.7536 115.458 84.2508 114.055C83.99 114.017 83.8286 114.477 83.7913 115.272C83.6919 116.799 83.6423 119.085 83.5057 120.662C80.7236 130.213 82.9219 140.571 84.4123 150.245C84.7352 157.039 83.7044 163.547 82.7232 170.167C82.5618 171.073 81.68 171.036 80.9472 170.812C78.6868 170.241 75.7434 170.316 74.0046 171.52C73.3712 171.905 73.4209 172.328 74.3027 172.253C82.6114 170.825 81.7545 174.24 87.4799 177.792C92.572 179.767 96.36 184.486 101.999 185.182C105.017 185.617 107.873 186.66 110.705 187.666C111.45 187.865 111.04 188.225 110.469 188.585C103.563 193.155 100.645 202.085 96.9313 209.04C96.7078 209.922 97.7137 210.22 96.9934 210.617C96.2979 210.953 95.1553 211.176 94.4971 211.027C93.6525 210.804 93.3544 209.909 92.6838 209.438C89.9515 207.388 83.3318 207.55 81.0341 203.799C73.1104 193.391 57.4865 188.25 58.2937 173.632C58.4552 171.495 59.6847 166.875 60.2685 165C59.6599 165.41 58.716 168.627 58.1199 169.036C57.7473 170.328 57.3623 171.645 57.0269 173.023C56.1576 182.4 62.6034 189.74 69.695 194.944C72.8868 198.347 81.5558 202.42 79.7301 208.009C76.9605 219.373 68.8132 228.763 70.2911 241.244C70.5644 243.008 69.5335 243.219 67.8445 243.604C60.8522 246.448 56.8282 253.825 57.7349 260.917C57.0642 263.153 56.083 270.281 53.4873 270.095C41.5272 268.953 29.1075 270.629 18.8241 276.653C18.8116 277.659 18.7868 278.652 18.762 279.658C29.3063 273.386 42.3717 270.232 54.2077 272.666C53.922 283.372 57.4368 293.891 58.6912 304.547C59.4488 312.881 69.0864 310.484 74.9113 310.086C80.9596 309.254 87.3433 310.583 93.1433 309.093C89.7155 304.473 63.1871 312.657 64.1434 305.442C72.5888 298.002 83.8658 309.006 92.9943 303.926C88.5853 302.349 80.9099 303.715 76.4389 301.008C76.0042 300.648 76.6376 300.859 77.0226 300.859C81.444 301.654 88.4735 302.771 92.4851 301.107C95.354 299.493 89.256 300.374 88.5108 300.213C78.575 298.983 67.6333 295.642 59.8835 302.175C56.6543 287.706 54.3319 276.715 59.2128 262.196C59.7096 253.627 61.97 248.659 70.0552 244.734C72.2534 248.92 71.7566 255.912 75.6564 259.216C75.7682 259.601 75.2342 259.961 75.11 260.271C75.6068 261.389 77.8795 260.929 78.9973 261.401C82.6735 262.209 86.002 265.475 89.3429 266.431C91.3549 267.425 97.0803 266.816 95.826 270.108C90.56 288.079 96.9437 306.286 100.868 323.86C101.887 352.065 103.178 381.748 104.296 408.997C101.924 416.734 103.203 425.353 101.39 432.991C97.0555 443.859 88.4363 499.685 103.178 502.666C116.939 503.933 125.099 471.07 126.85 459.905C129.272 450.789 131.21 440.158 128.316 430.942C128.44 423.354 123.944 413.132 124.913 405.32C121.882 402.489 123.298 416.61 123.261 418.026C123.385 421.354 125.596 423.95 125.993 427.167C126.875 432.793 124.826 438.804 125.037 444.492C124.913 444.79 124.006 453.509 122.777 451.248C118.864 445.436 107.612 442.952 102.657 447.721C102.197 448.156 101.502 448.814 101.092 448.044C99.2662 442.269 102.855 437.04 103.911 431.526C104.706 426.67 103.998 422.025 104.681 417.107C105.315 413.368 106.718 408.935 106.668 405.271C111.649 406.302 117.213 407.606 122.578 406.947C127.397 407.072 131.942 409.493 131.247 402.439C130.7 385.387 137.084 368.496 139.866 352.102C143.443 359.703 143.952 369.452 146.834 377.525C147.43 380.059 149.243 380.568 151.503 380.829C156.161 390.74 152.758 405.929 162.184 414.213C166.606 436.27 170.456 461.122 187.657 477.143C192.438 484.682 200.847 490.283 205.33 479.54C206.957 459.57 205.926 443.113 197.829 426.347C194.078 418.075 192.737 408.015 185.123 402.216C183.124 400.874 183.919 398.179 183.385 396.13C182.801 393.124 179 382.058 176.976 379.86C173.076 377.662 179.472 388.579 179.895 389.672C181.484 393.137 181.373 397.546 182.441 401.073C186.216 407.308 191.867 412.263 192.525 419.976C192.699 420.957 192.637 422.025 191.321 421.652C171.623 416.684 174.331 453.745 163.898 414.672C163.724 413.89 164.171 413.567 163.985 412.809C163.836 412.362 163.55 412.064 163.19 411.704C154.869 404.228 157.589 390.193 153.043 380.494C156.074 379.947 160.11 380.754 163.178 381.239C166.755 382.344 170.058 384.257 173.97 382.841C179.919 381.4 178.851 375.786 178.032 371.303C178.255 367.229 165.115 324.208 174.306 331.51C176.43 337.186 175.759 348.351 183.074 350.165C191.582 344.986 184.527 329.66 189.122 329.474C200.288 328.455 211.441 325.574 222.78 327.226C223.885 357.368 221.525 389.585 224.071 420.1C224.456 421.193 225.587 421.503 226.468 422.075C228.182 423.987 230.443 424.683 231.536 421.913C231.859 420.51 233.15 420.547 233.97 419.206C234.504 418.349 234.678 417.33 234.827 416.337C239.509 386.865 237.435 356.213 240.925 326.754C247.507 314.446 250.153 298.623 250.376 284.527C251.258 270.915 243.918 259.452 240.527 246.796V246.721L240.614 246.734ZM149.963 58.7125L149.938 58.7374C149.591 58.9485 148.498 59.3956 148.274 59.3459C148.262 59.3087 148.237 59.2466 148.237 59.2093C148.448 58.0046 149.317 56.8868 149.404 55.6324C149.404 55.4337 149.429 55.2599 149.516 55.2723C150.224 55.6449 150.162 57.9922 149.963 58.7125ZM105.948 54.9618C105.389 54.6637 104.035 54.1669 103.613 53.5956C103.464 52.9622 103.973 51.3849 104.346 50.6273C104.681 49.9691 105.079 49.2115 105.339 50.292C105.687 51.7327 105.7 53.5459 105.985 54.9494H105.96L105.948 54.9618ZM106.097 48.0192C107.761 42.1571 107.302 34.0968 110.667 29.1786C111.003 28.6694 111.5 28.3961 112.083 28.3464C112.99 28.3589 114.033 27.7503 114.965 27.5392C115.399 27.4647 115.76 27.6013 116.169 27.5516C116.567 27.5143 117.449 26.8437 118.169 26.8561C119.423 26.8064 120.864 26.794 122.031 27.0921C122.578 27.179 123.149 26.8685 123.658 26.8437C123.944 26.8313 124.168 26.9803 124.466 27.0796C124.925 27.2659 125.472 27.0175 125.956 27.0672C126.329 27.0672 126.652 27.1666 126.962 27.0672C127.235 27.0051 127.484 26.6822 127.645 26.409C129.247 23.9747 129.508 20.7953 129.943 18.0133C130.092 18.0381 130.154 18.3486 130.241 18.5598C130.849 20.3979 132.166 23.1675 132.998 24.6951C133.135 24.931 133.346 25.2291 133.582 25.3409L133.656 25.3657C133.917 25.4527 134.128 25.2912 134.364 25.2415C134.948 25.1298 135.383 26.2972 135.879 26.558C136.252 26.8064 136.302 26.0612 136.575 26.2724C136.836 26.4338 137.345 27.415 137.78 27.7255C138.016 27.9118 138.301 27.9614 138.587 28.0235C139.692 28.2719 140.475 28.955 141.543 29.4642C142.449 29.9362 143.182 30.6441 144.014 31.1533C144.238 31.2278 144.225 31.203 144.325 31.2154C144.933 31.1533 145.579 30.9918 146.039 31.5383C146.337 31.824 146.548 32.1965 146.834 32.4946C147.082 32.7803 147.33 32.743 147.591 32.6809C148.237 32.4822 148.423 33.5627 148.647 34.0098C148.945 34.8047 149.479 35.1152 149.789 35.6616C150.038 36.1087 150.112 36.68 150.15 37.2017C150.398 40.6295 150.572 47.1374 150.224 50.528C149.851 52.5772 148.311 54.2042 147.815 56.3031C147.007 58.7125 146.449 61.3703 145.592 63.7549C144.822 65.8911 143.853 67.8286 142.077 69.2071C136.749 72.9827 125.67 76.9446 119.746 73.0821C116.977 71.4924 113.325 68.76 111.189 66.599C110.195 65.593 109.686 64.9348 109.202 63.8046C107.351 59.0603 107.004 53.0119 106.085 47.9944V48.0316L106.097 48.0192ZM115.648 116.377C112.655 118.538 107.004 119.581 103.476 119.693C102.855 119.705 102.297 119.643 101.725 119.457C95.7887 117.01 89.3553 109.124 86.7099 104.342C85.1451 101.25 84.2757 97.7848 82.6114 94.7544C82.4624 94.4439 82.3879 94.1582 82.4376 93.9471C82.5121 93.5621 83.0337 93.3634 83.4436 93.2516C88.2996 91.8854 93.578 90.6807 98.2726 88.6315C100.322 87.7248 102.222 86.7437 103.948 85.3279C104.979 84.5206 106.159 83.6015 107.463 83.3159C107.724 83.2786 107.923 83.3035 108.01 83.4152L108.047 83.4773C108.184 83.763 107.96 84.2598 107.836 84.6199C104.321 95.0649 117.113 102.753 122.342 109.596C124.727 112.552 117.337 114.8 115.66 116.377H115.648ZM124.888 110.552C124.664 110.391 124.515 110.018 124.329 109.782C124.043 109.335 123.472 108.714 123.05 108.267C119.299 104.33 117.113 102.045 114.182 98.7535C103.228 86.3835 111.177 90.5814 110.196 73.939C110.084 71.9519 109.897 70.2752 109.612 68.2757C109.575 67.8782 109.587 67.5677 109.748 67.4684C110.034 67.2324 110.866 67.8658 111.487 68.4371C120.665 79.0311 130.638 77.2427 142.089 71.2812L142.126 71.3061C142.226 71.4054 142.201 71.6786 142.102 72.0512C140.773 76.5099 140.735 81.4405 141.605 85.924C141.63 86.5574 141.133 86.9797 140.822 87.6131C136.823 94.3445 127.322 111.98 124.888 110.565V110.552ZM70.8252 300.163H70.8376C68.8629 300.834 63.895 302.486 62.2805 303.641C63.3734 300.921 68.0432 300.424 70.8252 300.163ZM104.085 448.317C109.152 445.821 117.685 447.162 120.715 452.205C121.92 454.316 120.939 456.8 120.28 458.986C119.883 460.004 119.87 461.06 119.51 461.954L119.461 461.991C119.287 462.14 118.951 461.967 118.492 461.619C117.846 461.147 117.3 460.662 116.666 460.315C115.722 459.83 115.3 459.52 116.492 458.737C118.976 457.222 121.125 452.639 116.554 453.149C116.269 453.161 115.635 453.335 115.325 453.521C114.716 453.856 113.499 454.602 112.506 455.198C111.599 455.744 111.164 456.129 110.754 455.049C109.351 450.168 103.303 450.068 104.706 455.111C104.942 455.931 105.439 456.85 105.849 457.52C105.998 457.744 105.998 458.005 105.96 458.042C105.526 458.588 103.7 458.837 103.005 459.085C102.272 459.271 102.135 458.787 102.123 458.042C102.098 457.185 102.048 456.303 101.999 455.434C101.837 452.329 101.787 449.746 104.085 448.33V448.317ZM101.104 451.273C101.229 452.118 100.757 453.471 100.707 454.527C100.595 455.881 100.595 457.371 100.632 458.787C100.744 461.296 101.378 461.097 104.06 460.563C104.781 460.538 107.799 459.433 106.569 461.035C102.967 465.705 103.961 471.964 103.054 477.541C102.88 478.398 103.017 479.354 104.048 478.721C107.823 477.665 109.922 456.763 112.034 463.097C113.412 467.804 111.164 473.268 111.549 478.075C111.611 478.559 111.711 479.354 112.195 479.404C112.419 479.404 112.692 479.155 112.978 478.745C113.648 477.777 114.406 475.926 114.927 474.709C116.455 471.381 117.324 467.704 116.703 464.053C116.306 461.755 117.771 463.159 118.765 464.227C120.591 466.09 121.199 462.438 121.386 461.184C121.646 459.358 122.019 457.806 122.578 456.055C122.951 454.937 124.006 454.453 124.54 453.397C126.738 449.323 126.552 442.94 127.521 438.605C127.98 446.082 126.788 453.496 124.515 460.675C122.23 475.293 117.536 490.023 107.128 501.002L107.028 501.064C105.252 502.032 102.085 500.356 100.545 498.94C99.8996 498.306 99.6264 497.487 99.4152 496.642C97.602 489.513 96.1861 480.894 96.8816 473.542C97.4033 471.145 98.1733 468.661 98.3471 466.164C98.906 460.7 98.3472 455.074 99.0178 449.597C99.1048 449.249 99.1544 448.615 99.5146 448.963C100.024 449.721 100.893 450.491 101.092 451.261H101.117L101.104 451.273ZM120.988 216.343L120.939 216.38C113.002 215.709 105.091 214.517 97.9125 218.504C97.0307 218.963 95.4409 219.609 94.5964 219.336C94.348 219.249 94.3108 219.05 94.4598 218.814C97.4902 215.97 101.837 215.324 105.6 213.76C105.923 213.623 106.904 213.213 106.358 212.952C104.445 212.282 93.342 217.014 92.2988 219.733C92.3236 220.417 92.2988 220.652 91.5784 221.112C90.2619 221.969 87.3806 223.894 86.3622 224.54C86.0144 224.739 85.8778 224.676 86.0889 224.217C86.6851 222.913 88.0885 221.783 89.2311 220.864C91.4667 219.038 93.429 216.703 95.7514 214.853C96.0868 214.517 97.0679 213.921 96.7947 213.486C95.2795 212.754 87.1073 220.64 84.5862 222.814C84.3626 222.863 84.6731 222.354 84.8097 222.143C86.3622 219.485 90.0136 217.212 91.6529 214.567C92.2118 213.275 90.8333 214.12 89.5292 215.312C87.5917 216.927 85.5549 219.671 83.5678 220.963C84.7476 218.454 87.5048 217.088 88.7219 214.617C89.3677 213.449 90.3861 212.505 91.802 212.48C95.8632 212.108 99.7754 211.089 103.377 209.313C105.911 207.823 108.842 209.065 111.549 209.363C112.406 209.475 113.325 209.301 114.145 209.512C114.94 209.723 121.721 215.387 120.976 216.33L120.988 216.343ZM150.087 219.212C147.989 218.939 147.529 216.504 146.188 215.175C145.728 214.778 142.859 210.568 142.673 212.071C142.636 212.493 142.872 213.027 143.108 213.424C144.586 215.883 148.622 219.497 147.368 221.87C147.119 222.354 146.635 222.739 146.076 222.764C143.567 222.478 141.791 219.262 140.214 217.535C139.469 216.629 138.798 215.883 138.537 215.958C138.463 215.983 138.438 216.094 138.463 216.268C138.922 218.467 142.946 221.162 142.064 223.385C141.344 223.646 140.499 222.838 139.816 222.59C138.587 221.957 136.786 221.572 135.917 220.826C134.886 219.783 133.843 217.957 132.228 217.92C131.421 218.069 133.234 219.882 132.948 220.156C131.446 219.982 129.918 219.063 128.477 218.467C127.223 217.883 125.869 217.87 124.602 217.361C123.1 216.778 121.572 215.026 120.417 213.896C118.852 212.232 116.977 210.891 115.474 209.127C112.804 205.823 111.661 203.861 108.37 202.843C107.115 202.42 105.203 202.16 103.588 202.073C103.054 202.048 102.247 201.899 102.172 201.477C102.123 200.421 102.868 199.44 103.501 198.136C105.501 194.832 108.73 189.976 112.456 188.945C118.38 188.473 124.18 192.671 129.334 195.093C130.154 195.49 131.085 195.639 132.017 195.701C137.991 196.037 142.449 199.837 147.467 202.743C148.1 203.116 148.721 203.513 149.193 204.047C150.423 205.438 150.932 207.662 152.211 209.164C153.292 210.518 155.13 211.599 155.266 212.381C155.378 213.275 152.696 213.884 151.876 213.462L151.777 213.412C151.379 213.176 151.093 212.692 150.87 212.257C148.833 208.258 145.865 204.793 142.139 202.271C140.114 201.439 145.616 206.544 145.815 206.792C147.628 208.73 148.622 211.325 150.038 213.536C150.882 214.939 152.484 216.529 152.348 218.231C152.137 219.137 150.907 219.348 150.075 219.249H150.063L150.087 219.212ZM173.871 434.792C176.454 428.955 182.478 421.305 189.681 422.422C191.78 423.18 192.55 425.937 193.109 428.98C193.556 431.799 194.066 435.103 195.183 437.525V437.587C195.109 437.798 194.91 437.835 194.662 437.91C193.743 438.121 191.619 438.555 190.6 438.754C190.24 438.816 189.793 438.866 190.042 438.357C191.333 435.873 193.68 430.793 190.638 430.011C188.116 429.464 187.334 432.755 186.825 434.531C186.601 435.289 186.465 435.91 186.229 435.935C185.993 435.972 185.595 435.451 185.012 434.954C183.422 433.687 181.062 432.569 178.938 432.905C176.492 433.29 176.591 436.842 178.491 437.997C179.646 438.878 181.149 439.35 182.49 439.859C183.248 440.133 183.832 440.406 183.621 440.729C181.944 442.021 179.82 442.952 177.97 443.983C177.311 444.343 176.641 444.244 176.405 443.486C175.771 441.275 174.964 438.704 173.908 436.693C173.635 436.084 173.61 435.426 173.871 434.792ZM168.344 432.172C169.549 433.935 171.412 435.177 172.766 436.767C174.269 439.313 175.275 445.374 175.97 447.05C176.467 447.945 177.212 446.976 177.883 446.007C178.603 444.852 179.684 444.082 180.913 443.474C182.242 442.815 183.621 442.045 183.397 443.784C183.062 447.038 183.472 450.404 184.776 453.434C185.546 454.9 185.769 456.552 186.663 457.992C187.471 458.998 188.377 457.682 188.526 456.887C189.259 452.85 186.278 447.659 187.446 443.536C187.533 443.263 187.657 443.126 187.806 443.151C188.129 443.213 188.452 443.797 188.651 444.144C190.526 447.659 190.787 451.559 191.271 455.372C192.848 470.809 199.095 447.162 191.408 440.679C191.085 440.269 191.333 440.095 192.128 439.884C193.444 439.537 195.655 439.027 196.947 438.63C197.121 438.555 197.208 438.493 197.233 438.382C196.835 436.469 193.867 427.067 193.32 424.968C193.146 424.223 194.351 423.925 194.749 424.571C195.568 426.595 196.065 428.769 196.972 430.868C199.033 436.345 201.716 441.747 202.921 447.473C204.56 456.576 202.697 468.772 203.765 478.373C204.063 480.683 201.877 482.136 199.915 482.968C198.537 483.602 196.997 483.428 195.668 482.608C192.699 480.82 190.936 477.23 188.514 474.871C184.776 471.269 181.273 467.456 179.572 462.637C179.236 461.805 178.814 461.035 178.317 460.29C173.101 452.13 170.058 442.691 167.562 433.414V433.314C167.438 431.849 167.326 430.83 168.369 432.197L168.344 432.172ZM165.848 292.463C164.668 288.712 163.066 283.67 162.097 280.577C161.911 279.894 161.7 279.646 162.01 279.273C162.184 279.05 162.594 278.69 162.867 278.429C165.215 276.218 167.164 273.399 168.816 270.617C169.86 268.953 170.344 267.065 172.045 265.872C176.057 263.177 180.652 260.644 182.639 256.185C183.062 255.142 183.633 254.894 184.589 255.502C187.707 257.216 192.016 259.265 194.215 261.327L194.301 261.414C200.822 268.667 201.728 281 202.287 290.451C202.287 290.774 202.225 291.022 202.076 291.134C189.781 287.209 180.491 292.289 168.518 295.394C168.059 295.493 167.127 295.779 166.904 295.531C166.568 294.959 166.394 293.966 165.86 292.451L165.848 292.463ZM183.049 348.786C182.689 348.948 181.782 348.811 181.944 348.339C182.354 348.066 183.198 347.879 183.67 347.954L183.707 347.991C183.968 348.351 183.422 348.687 183.049 348.786ZM185.148 344.352C185.161 345.135 185.074 345.42 184.254 345.694C183.347 345.979 182.267 345.954 181.335 345.967C180.776 345.93 180.478 346.066 180.23 345.743C179.733 344.203 175.66 331.225 175.399 330.331C175.436 330.107 175.759 330.219 176.181 330.169C178.665 330.057 183.298 329.722 185.695 329.66H185.719C185.719 332.951 185.26 340.987 185.173 344.365H185.161L185.148 344.352ZM229.288 422.236C228.307 421.888 229.722 420.795 230.02 421.081C229.983 421.565 229.822 422.435 229.288 422.236ZM232.467 417.032C232.355 418.274 231.585 418.771 230.244 418.759C229.412 418.821 228.58 418.908 227.772 419.094C226.928 419.33 226.133 419.23 226.133 418.125C226.133 388.256 223.587 357.381 225.487 327.847C226.754 326.692 230.306 328.492 234.914 328.07C235.56 328.008 236.267 327.921 236.851 327.784C237.311 327.698 237.745 327.549 238.068 327.772L238.118 327.822C235.348 357.244 236.864 387.734 232.48 417.02L232.467 417.032ZM240.291 323.562C238.876 326.878 233.833 326.331 230.815 325.971C227.487 325.474 224.258 324.543 220.929 324.555C204.2 324.121 187.21 327.809 170.63 328.12C170.331 325.797 167.512 300.71 167.14 297.518C167.053 296.897 168.257 297.17 168.891 297.033C180.292 296.586 190.042 287.855 202.064 293.034C203.07 294.04 202.784 295.295 201.381 294.798C193.333 291.979 184.788 295.332 177.113 297.642C175.175 298.077 169.686 297.828 169.288 300.089C169.288 300.697 170.195 300.933 170.803 300.908C180.441 301.057 191.644 292.885 201.331 296.822L201.269 296.512C201.343 297.033 200.101 298.487 199.853 299.182C195.68 302.523 187.309 303.939 183.31 304.758C179.423 305.417 169.288 305.591 169.512 307.739C169.561 308.075 169.922 308.31 170.418 308.323C178.901 306.721 198.35 305.591 201.753 297.667C201.964 297.356 202.213 297.282 202.387 297.543C202.598 297.816 202.623 298.487 202.325 299.058C196.202 307.64 182.304 305.802 173.523 309.515C172.666 309.863 171.499 310.571 171.288 311.453C171.102 312.409 172.269 312.459 172.94 312.198C177.224 310.385 182.056 309.615 186.725 308.733C196.102 306.957 201.331 304.622 204.746 295.816C205.144 293.73 203.889 291.109 204.225 288.911C204.734 283.384 202.436 274.964 201.468 269.549C201.604 269.126 202.449 269.189 202.921 269.263C213.415 270.592 224.245 270.753 234.318 274.454C234.703 274.603 235.063 274.74 235.411 274.939C236.367 275.473 237.137 276.789 238.329 276.255C240.378 274.479 236.23 272.517 231.995 271.225C221.637 268.12 203.442 266.009 201.244 268.58C201.157 268.655 201.07 268.654 200.958 268.518C200.822 268.381 200.648 268.071 200.424 267.649C196.835 260.656 192.923 257.452 185.657 254.322C184.577 253.912 183.77 253.142 184.006 251.925C186.291 239.679 182.267 228.079 175.722 217.808C174.505 215.039 174.244 211.425 172.778 209.115C172.145 208.158 172.381 207.289 173.151 206.32C188.228 188.188 197.133 184.511 193.469 159.312C193.457 158.89 193.382 158.591 193.755 158.48C194.364 158.641 195.904 159.56 196.86 159.846C216.023 164.789 215.874 184.809 234.653 195.167C235.597 195.763 236.181 196.447 236.367 197.44C238.379 213.573 234.479 228.837 237.932 245.256C238.888 250.137 240.676 254.769 242.527 259.365C252.14 279.385 247.818 303.616 240.329 323.525L240.304 323.562H240.291Z" fill="#1D1D1D"/>
<path d="M98.6458 317.538C97.6523 319.214 84.7607 312.943 83.7919 312.943C79.06 311.552 73.5209 312.582 68.7641 312.148C66.9136 311.75 67.6464 311.005 69.4224 310.856C71.7573 310.608 74.0922 310.645 76.4022 310.732C78.675 310.856 81.159 310.893 83.3448 311.489C87.1576 312.384 90.6103 314.52 94.2741 315.476C95.5782 315.911 98.6334 315.662 98.6458 317.463L98.621 317.525L98.6458 317.538Z" fill="#1D1D1D"/>
<path d="M126.391 145.873C130.254 144.805 130.428 150.977 127.348 151.871C123.063 152.977 122.591 146.928 126.255 145.91L126.391 145.873Z" fill="#1D1D1D"/>
<path d="M128.428 121.157C132.34 121.356 133.234 127.069 128.788 126.498C125.882 126.311 125.248 121.542 128.291 121.157H128.428Z" fill="#1D1D1D"/>
<path d="M121.697 176.313C120.169 174.574 122.765 170.873 124.876 172.513C127.547 174.574 124.044 178.785 121.771 176.412L121.684 176.326L121.697 176.313Z" fill="#1D1D1D"/>
<path d="M136.973 61.3061C136.65 61.6414 135.421 61.5545 134.75 61.8526C132.291 63.5789 128.876 64.2371 125.833 63.5292C124.131 63.02 121.113 61.9146 119.437 60.772C119.052 60.4615 119.412 60.1386 119.561 59.853C119.561 59.7909 119.598 59.7909 119.511 59.7164C119.076 59.5425 117.524 59.617 116.903 59.4307C116.332 59.3189 116.096 59.1699 116.158 59.0209C117.3 58.1142 119.735 58.6607 121.126 58.2136C122.715 57.7416 124.715 56.9716 126.429 57.5678C127.149 57.8037 127.894 57.9155 128.664 57.9155C130.726 57.8907 132.229 59.6543 134.055 60.2628C134.651 60.5361 137.122 60.3746 137.023 61.2564L136.986 61.3061H136.973ZM130.254 59.5549C129.683 58.6607 128.18 59.1451 127.273 59.0333C126.181 58.9464 124.889 57.9279 123.759 58.4868C123.697 58.611 124.02 58.7849 124.243 58.8967C125.994 59.7536 128.404 59.6046 130.229 59.5922L130.254 59.5549ZM132.552 61.1322C130.18 60.7224 122.889 60.1262 121.387 59.9275C123.87 62.2003 129.571 63.256 132.515 61.1695L132.552 61.1322Z" fill="#1D1D1D"/>
<path d="M124.553 33.0406C121.796 32.817 119.287 31.2025 116.468 31.9973C115.363 32.2581 114.232 33.1648 113.102 33.3511C112.109 33.5374 112.009 32.6556 112.568 32.0967C114.195 30.3331 117.474 29.7121 119.871 30.1592C120.79 30.2462 125.46 32.0346 124.64 33.0157L124.566 33.0406H124.553Z" fill="#1D1D1D"/>
<path d="M123.734 38.4437C124.69 39.5118 120.343 40.4308 119.052 40.4308C117.934 40.3439 113.301 39.6359 113.314 38.394C113.351 37.8972 113.96 37.4625 114.444 37.4873C115.698 37.5991 117.971 38.543 119.474 38.6424C120.815 38.7666 122.355 38.1456 123.659 38.4064L123.746 38.4437H123.734Z" fill="#1D1D1D"/>
<path d="M146.474 43.025C146.089 44.1179 133.98 42.7145 135.942 39.8208C136.575 39.7959 139.258 40.8267 140.897 41.3732C142.363 42.0066 144.512 41.7706 146.139 42.4413C146.474 42.6028 146.561 42.8139 146.499 42.9629L146.474 43.0126V43.025Z" fill="#1D1D1D"/>
<path d="M147.48 37.4743C147.331 37.586 147.008 37.4743 146.735 37.2134C143.928 33.9719 142.003 33.0653 137.755 34.3942C137.358 34.5184 136.6 34.5805 136.476 34.2948C135.768 33.2764 142.711 30.7304 146.226 34.8289C146.846 35.6237 147.53 36.4434 147.53 37.4246L147.48 37.4743Z" fill="#1D1D1D"/>
<path d="M133.992 35.2641C132.576 38.5677 131.198 42.0577 131.024 45.709C130.689 46.3549 130.018 45.8953 130.167 45.2743C130.341 41.8589 130.8 36.978 133.967 35.2393L133.992 35.2641Z" fill="#1D1D1D"/>
<path d="M123.672 47.7453C123.436 48.4532 122.753 49.2232 122.455 49.956C122.057 50.6887 122.02 51.5333 122.132 52.3281C122.107 52.4275 122.02 52.4896 121.908 52.502C120.654 52.4647 120.418 51.2103 120.853 50.0305C121.287 48.8134 122.417 47.4969 123.647 47.708L123.672 47.7701V47.7453Z" fill="#1D1D1D"/>
<path d="M133.992 52.178C134.328 51.7309 134.29 50.7746 134.203 50.2033C134.166 49.6071 133.955 49.0482 134.539 49.0731C136.439 49.5202 135.495 53.4448 133.669 53.7429C131.893 53.9167 133.471 52.6623 133.943 52.2401L134.005 52.1656L133.992 52.178Z" fill="#1D1D1D"/>
<path d="M123.982 51.7196C123.758 50.9868 124.491 50.3907 125.186 50.3037C125.994 50.0802 126.826 50.7881 126.23 51.496C125.708 51.9183 124.615 51.7941 124.044 51.7693L124.006 51.7196H123.982Z" fill="#1D1D1D"/>
<path d="M131.955 51.2464C132.651 52.3517 130.962 52.7243 130.266 52.3766C129.422 51.47 131.26 50.3025 131.93 51.1843L131.968 51.2464H131.955Z" fill="#1D1D1D"/>
<path d="M0.654591 284.401C0.878145 298.497 3.52353 314.319 10.106 326.627C13.5835 356.087 11.5094 386.751 16.1916 416.223C16.3406 417.216 16.5145 418.222 17.0485 419.092C17.8807 420.433 19.1599 420.396 19.4828 421.799C20.5757 424.569 22.8361 423.873 24.5376 421.961C25.4194 421.377 26.562 421.079 26.9346 419.986C29.4682 389.471 27.1209 357.254 28.2262 327.112C39.553 325.46 50.7182 328.354 61.8835 329.36C66.4788 329.546 59.412 344.872 67.9319 350.051C75.2471 348.238 74.5764 337.072 76.7002 331.397C79.4449 329.211 78.6873 329.049 84.0899 330.068C84.1892 329.509 91.5293 329.273 84.1892 329.509C84.1271 329.509 74.9987 328.217 76.7002 331.384C76.5263 329.024 86.8967 330.502 87.17 328.08C70.6766 327.72 46.7936 324.044 30.1637 324.479C26.8352 324.479 23.5937 325.398 20.2777 325.895C17.2597 326.255 12.2297 326.789 10.8015 323.473C3.32482 303.564 -0.997222 279.333 8.60318 259.325C10.4537 254.718 12.2421 250.097 13.1984 245.216C16.6511 228.798 12.7513 213.534 14.7633 197.401C14.9496 196.395 15.5333 195.712 16.4772 195.128C35.2682 184.77 35.1192 164.75 54.2703 159.819C54.5435 159.732 54.8788 159.595 55.2142 159.434C56.5803 158.403 58.1328 157.633 59.7846 157.26C59.9336 157.223 60.0951 157.198 60.2565 157.174C60.3932 156.242 60.5298 155.311 60.6167 154.367C59.9585 154.329 60.1199 153.336 59.4617 153.199C59.3747 153.82 58.4681 155.335 58.3563 155.894C40.0125 162.402 39.8386 165.259 29.1329 180.672C25.5933 184.695 22.2648 188.533 17.5578 191.352C15.7072 192.594 13.0743 193.625 13.037 196.084C11.1989 213.087 13.956 229.791 10.4537 246.682C7.06314 259.338 -0.276885 270.789 0.604911 284.401H0.654591ZM67.4227 347.927L67.4599 347.89C67.9319 347.815 68.7764 348.002 69.1863 348.275C69.3353 348.747 68.4411 348.883 68.0809 348.722C67.7083 348.623 67.1619 348.287 67.4227 347.927ZM65.4107 329.596H65.4355C67.8201 329.633 72.4527 329.981 74.949 330.092C75.3713 330.155 75.6818 330.03 75.7314 330.254C75.4706 331.148 71.397 344.127 70.9002 345.667C70.6642 345.99 70.3537 345.853 69.7949 345.89C68.8758 345.878 67.7829 345.903 66.8762 345.617C66.0689 345.356 65.9696 345.071 65.982 344.288C65.8826 340.91 65.4355 332.862 65.4355 329.596H65.4231H65.4107ZM21.0974 421.004C21.383 420.719 22.8113 421.812 21.8301 422.159C21.2961 422.346 21.1346 421.489 21.0974 421.004ZM13.0122 327.758L13.0494 327.708C13.3723 327.484 13.807 327.633 14.2665 327.72C14.8503 327.845 15.5706 327.944 16.204 328.006C20.8117 328.428 24.3637 326.615 25.6305 327.782C27.5431 357.316 24.9847 388.192 24.9847 418.061C24.9847 419.179 24.1774 419.266 23.3453 419.03C22.538 418.856 21.7059 418.756 20.8738 418.694C19.5325 418.694 18.7625 418.21 18.6507 416.968C14.279 387.682 15.7942 357.18 13.0122 327.77V327.758Z" fill="#1D1D1D"/>
<path d="M59.1881 158.083C60.1568 163.1 58.2691 167.261 57.0644 172.192C56.195 181.568 62.6408 188.908 69.7324 194.112C72.03 196.559 77.1345 199.341 79.1713 202.781C79.5688 202.545 80.6493 203.924 81.0715 203.7C73.2223 194.125 58.6541 187.008 58.3436 172.788C58.2691 169.36 60.0823 166.777 60.4922 163.957C61.4361 157.288 61.2249 150.283 61.5603 143.577C62.144 134.473 61.4733 145.725 64.8266 115.968C64.3547 116.067 63.8827 116.154 63.4108 116.253C61.5851 128.139 59.9333 139.975 59.6228 152.059C59.3868 154.568 59.4365 155.736 56.6421 156.344C55.9466 156.506 55.3132 157.089 54.6177 157.251C54.6922 157.748 54.6798 157.822 54.6922 158.319C56.7166 157.474 58.5795 156.953 59.2005 158.033V158.058L59.1881 158.083Z" fill="#1D1D1D"/>
</svg>
