<svg width="287" height="420" viewBox="0 0 287 420" fill="none" xmlns="http://www.w3.org/2000/svg">
<path d="M50.7263 327.797C50.809 327.272 50.9684 326.758 51.1987 326.28C51.1751 325.66 51.2459 325.04 51.4231 324.449C50.5197 323.15 50.2717 321.42 50.6791 319.879C50.6259 319.732 50.5728 319.584 50.5315 319.436C49.7639 317.884 49.7816 315.929 50.5905 314.394C50.4783 313.827 50.4547 313.237 50.5197 312.658C50.4311 311.825 50.5197 310.975 50.7972 310.19C49.6104 308.578 49.4627 306.24 50.3779 304.457C50.1831 303.825 50.1063 303.152 50.1418 302.484C42.1233 307.013 37.5591 312.209 37.5591 317.73C37.5591 323.593 42.7138 329.09 51.677 333.802C51.7478 333.69 51.8246 333.584 51.9072 333.478C51.86 333.3 51.8246 333.129 51.7951 332.946C50.5669 331.588 50.2244 329.545 50.7381 327.786L50.7263 327.797Z" fill="#191919" fill-opacity="0.05"/>
<path d="M236.172 306.233C236.668 307.562 236.638 309.109 236.083 310.414C236.166 310.91 236.184 311.424 236.136 311.925C236.621 313.16 236.65 314.594 236.219 315.852C236.739 317.387 236.579 319.176 235.729 320.546C236.302 321.892 236.314 323.498 235.764 324.857C235.735 325.099 235.694 325.341 235.635 325.583C236.19 326.74 236.319 328.122 236.007 329.379C240.606 325.772 243.127 321.845 243.127 317.73C243.127 313.614 240.653 309.794 236.172 306.228V306.233Z" fill="#191919" fill-opacity="0.05"/>
<path d="M226.37 328.547C226.305 327.88 226.358 327.195 226.53 326.545C225.88 325.181 225.839 323.522 226.382 322.111C226.429 321.68 226.524 321.255 226.665 320.847C225.957 319.554 225.809 317.948 226.24 316.531C225.916 315.451 225.916 314.258 226.246 313.177C225.626 311.689 225.679 309.888 226.423 308.46C225.792 306.942 225.856 305.106 226.636 303.659C226.075 302.614 225.88 301.368 226.051 300.187C217.637 296.267 206.478 292.954 193.428 290.515C193.074 291.076 192.49 291.484 191.657 291.537C191.439 291.608 191.208 291.655 190.943 291.655C189.632 291.655 188.935 290.716 188.847 289.707C174.398 287.309 157.889 285.945 140.34 285.945C125.083 285.945 110.611 286.973 97.597 288.821C97.6324 289.004 97.6442 289.187 97.6383 289.376C97.6855 290.498 96.9829 291.661 95.5304 291.661C94.0778 291.661 93.4047 290.551 93.4165 289.453C80.6862 291.478 69.497 294.3 60.5398 297.707C61.2424 299.284 61.1538 301.226 60.2977 302.72C60.8055 304.067 60.77 305.637 60.1973 306.954C60.5988 308.164 60.5752 309.528 60.1264 310.721C60.2741 311.329 60.3095 311.961 60.2563 312.587C60.3862 313.667 60.2091 314.789 59.7308 315.758C60.1442 316.791 60.2268 317.954 59.9965 319.046C60.7228 320.375 60.8468 322.034 60.3744 323.481C61.1716 324.981 61.1952 326.894 60.4748 328.435C60.4748 328.547 60.4866 328.659 60.4807 328.777C61.886 330.619 61.8801 333.46 60.4689 335.296C60.6815 336.099 60.711 336.955 60.5634 337.776C76.4585 343.816 99.3743 348.02 125.478 349.189C125.514 348.605 125.638 348.032 125.85 347.489C125.762 346.574 125.892 345.629 126.234 344.785C126.063 343.633 126.252 342.417 126.777 341.395C126.636 340.533 126.689 339.636 126.937 338.803C126.541 336.028 128.159 332.916 131.79 332.916C133.692 332.916 135.026 333.773 135.817 334.983C136.207 334.894 136.62 334.841 137.069 334.841C141.409 334.841 142.867 339.264 141.474 342.263C141.698 343.22 141.681 344.241 141.403 345.186C141.586 345.853 141.663 346.556 141.598 347.247C141.94 347.944 142.123 348.717 142.153 349.502C153.95 349.437 165.264 348.758 175.774 347.566C175.508 346.804 175.414 345.977 175.484 345.168C174.28 344.448 173.542 343.226 173.282 341.891C171.564 341.106 170.649 339.394 170.542 337.622C168.954 336.164 168.552 333.666 169.344 331.682C168.623 330.466 168.417 328.943 168.747 327.555C168.086 326.669 167.738 325.559 167.714 324.437C166.693 323.103 166.415 321.243 166.87 319.613C165.382 316.614 166.834 312.073 171.215 312.073C173.5 312.073 174.977 313.301 175.673 314.896C175.827 314.884 175.986 314.872 176.146 314.872C177.817 314.872 179.057 315.527 179.877 316.507C180.551 316.141 181.36 315.923 182.31 315.923C185.835 315.923 187.465 318.852 187.193 321.556C187.388 322.064 187.512 322.595 187.559 323.144C188.965 324.183 189.614 325.961 189.496 327.685C190.518 329.007 190.807 330.85 190.364 332.468C190.949 333.33 191.25 334.375 191.267 335.432C192.419 335.934 193.222 336.843 193.665 337.918C194.373 338.549 194.857 339.376 195.111 340.285C196.357 341.2 197.013 342.688 197.072 344.212C208.993 341.767 219.178 338.579 226.908 334.853C225.408 333.176 225.225 330.466 226.358 328.535L226.37 328.547Z" fill="#191919" fill-opacity="0.05"/>
<path d="M124.315 273.811C124.156 273.309 120.229 272.984 119.592 273.049C115.027 273.191 110.445 273.604 105.858 273.781C106.472 274.413 104.435 274.832 104.901 275.582C107.57 275.659 112.63 275.937 113.858 275.399C115.706 274.791 124.221 276.226 124.315 273.805V273.811Z" fill="#191919"/>
<path d="M239.455 205.997C236.52 191.891 238.829 177.915 237.294 163.703C237.27 161.648 235.074 160.792 233.515 159.752C229.582 157.391 226.807 154.178 223.837 150.819C214.886 137.929 214.738 135.549 199.392 130.111C197.095 117.912 199.15 85.945 186.449 80.3297C184.241 79.4854 182.281 77.9856 180.09 77.3597C179.322 75.5824 177.445 75.4466 175.762 74.8857C172.255 73.8878 164.992 69.1937 161.556 69.8255C163.309 72.3526 176.589 73.6457 174.977 77.5841C168.464 93.1545 163.262 105.773 146.056 91.8319C149.115 86.1635 153.809 80.0522 156.537 73.7933C157.251 71.8448 158.432 70.3805 160.54 70.0557C160.971 70.0853 161.207 69.731 161.561 69.8314C161.697 69.9199 161.963 70.3214 162.146 70.3214C162.725 69.7428 163.557 69.5893 164.342 69.979C164.88 70.2329 165.027 69.2468 165.299 69.0224C165.494 68.863 165.754 69.0224 165.978 69.0224C166.468 69.0283 166.769 68.1367 167.318 68.4202C167.596 68.432 167.708 68.2017 167.897 67.9891C168.718 67.5168 169.338 68.4792 169.621 66.8909C171.398 58.0163 174.197 47.8722 173.973 38.7437C172.709 31.7645 165.033 -2.51759 149.557 2.55445L149.498 2.53083C144.096 -3.58042 135.286 2.66074 131.247 7.72687C117.531 21.8211 117.088 33.0221 117.862 51.4445C118.352 55.4064 113.982 59.6518 118.659 62.0019C119.922 62.4565 120.631 63.5902 121.888 64.098C123.105 64.098 123.843 64.8302 125 65.0014C125.591 65.1077 126.228 65.09 126.766 65.3498C127.226 65.5328 127.386 66.1705 127.787 66.3949C128.059 66.5248 128.549 65.7159 128.779 66.1174C129.706 68.6859 126.022 68.5619 124.658 70.0262C118.865 73.9232 111.396 75.4348 104.801 76.9287C104.246 77.2712 103.974 77.6668 103.567 78.2277C98.8192 80.867 93.883 81.7527 92.7139 87.8994C91.1079 98.386 89.3365 108.743 88.4921 119.253C88.8877 119.477 89.2715 119.719 89.6435 119.979C89.0235 110.632 92.0762 101.403 93.1922 92.1212C93.7059 85.9804 95.0049 84.15 100.526 81.2627C101.14 80.9438 102.521 79.4558 103.183 79.692C104.907 81.239 105.326 83.9256 106.891 85.6616C107.257 86.2934 107.221 87.0314 107.345 87.7223C107.458 88.3482 108.066 88.7851 108.574 89.4051C109.235 90.586 110.31 91.3713 110.794 92.5936C110.924 93.1427 110.995 93.7332 111.272 94.235C111.644 95.0085 112.624 95.4278 113.102 96.095C113.628 97.2346 114.602 97.7365 115.571 98.4096C116.019 98.941 116.202 99.8149 116.834 100.293C117.371 100.789 118.127 100.872 118.759 101.161C119.397 101.456 119.533 102.265 120.176 102.838C121.121 103.907 122.875 103.293 123.878 103.564C124.492 103.824 125.083 104.178 125.774 104.214C126.612 104.302 127.386 103.871 127.976 103.889C128.584 103.871 129.157 104.22 129.777 104.066C130.651 103.871 131.324 103.145 132.074 102.702C132.759 102.277 133.656 102.342 134.448 101.805C135.026 101.433 135.445 100.789 135.93 100.34C136.367 99.9153 136.916 100.128 137.607 99.868C138.734 99.437 138.953 98.0671 139.667 97.2405C140.134 96.7209 141.143 96.5083 141.704 95.7643C142.141 95.292 142.525 93.9339 143.08 93.9339C143.198 93.9457 143.358 94.0874 143.417 94.2587C143.859 96.3843 145.129 96.6559 146.936 97.1106C148.748 98.3505 150.414 100.134 152.563 100.718C153.75 100.89 154.387 101.923 155.462 102.307C156.613 102.72 157.658 102.307 158.733 102.49C160.239 102.909 161.644 102.106 162.801 101.391C166.681 100.972 168.824 96.9039 171.889 94.8846C174.363 92.7117 175.248 89.287 176.972 86.6417C177.598 85.2955 177.303 84.3626 178.071 83.099C179.057 81.6051 178.372 79.7865 179.807 78.5465C181.289 78.1391 182.611 79.757 183.922 80.2471C190.518 82.7034 193.322 89.5763 194.066 96.0241C194.916 104.226 196.735 112.309 197.213 120.564C197.107 125.382 197.39 130.153 198.518 134.859C199.262 141.33 199.28 144.613 197.544 150.836C194.863 154.574 191.273 160.585 188.528 163.803C184.247 168.379 180.273 173.681 176.943 178.936C175.986 180.017 174.764 180.607 173.613 181.428C171.682 182.763 170.347 184.563 168.8 186.199C167.761 187.528 166.923 186.323 165.978 185.337C165.742 185.095 165.453 184.794 165.476 184.451C165.5 184.062 165.842 183.76 166.067 183.43C167.047 182.379 166.397 180.956 166.297 179.734L166.321 179.674C166.604 179.232 167.324 179.308 167.761 179.072C171.062 177.826 166.309 174.75 165.317 172.813C164.661 171.579 164.159 170.074 163.173 169.4C161.142 168.107 157.34 165.716 155.934 164.83C155.391 164.541 155.403 164.175 156.011 163.862C159.052 162.374 160.859 159.245 163.557 157.337C164.596 156.582 165.73 155.932 166.799 155.212C172.107 150.671 176.766 143.975 184.229 142.901C185.245 142.859 186.024 141.915 184.725 141.69C183.007 141.495 179.069 143.178 177.209 144.141C176.518 144.56 176.299 144.158 176.459 143.373C178.106 131.505 180.362 119.784 179.818 107.739C179.724 105.967 180.657 104.456 180.22 102.602C179.47 99.2953 179.116 96.0418 179.08 92.7058C178.732 91.0348 177.811 93.0895 177.929 93.928C177.616 97.5357 179.895 102.124 178.933 105.737C178.224 109.386 179.074 113.142 178.714 116.826C178.236 125.795 175.939 134.634 175.154 143.562C175.172 145.192 175.591 145.233 174.54 146.225C174.197 146.55 173.684 146.981 173.205 147.388C169.716 150.535 166.899 154.344 162.636 156.67C159.808 158.896 157.499 162.008 154.317 163.649C153.98 163.756 153.584 163.685 153.224 163.579C150.957 162.646 144.633 162.746 144.255 160.054C149.953 141.46 148.914 119.997 151.317 101.155C147.095 113.921 148.571 128.724 146.398 141.98C145.861 146.331 144.58 150.624 143.747 154.934C143.399 156.546 143.269 158.164 143.051 159.723C142.938 160.319 142.383 160.148 141.97 159.918C139.744 158.471 136.78 157.538 134.276 157.001C133.585 156.588 133.302 155.672 132.328 155.271C128.478 153.293 123.819 153.547 119.834 151.539C117.253 150.028 114.679 148.179 111.845 147.14C110.782 146.745 109.772 145.936 109.194 145.003C108.249 143.468 109.14 142.21 109.288 140.155C109.341 137.362 109.932 133.749 110.245 130.495C110.439 133.406 111.691 138.301 112.028 141.808C112.282 142.8 111.272 146.018 112.654 146.184C113.557 145.611 112.925 144.076 113.008 143.113C113.138 129.255 105.545 115.403 108.94 101.675C108.969 100.057 109.955 96.2249 108.704 95.0499C108.485 95.0204 108.355 95.4042 108.32 96.0655C108.237 97.3468 108.19 99.2539 108.084 100.571C105.757 108.56 107.593 117.21 108.839 125.305C109.111 130.985 108.249 136.423 107.428 141.962C107.292 142.724 106.554 142.688 105.946 142.499C104.057 142.021 101.594 142.086 100.136 143.09C99.6046 143.408 99.6459 143.763 100.384 143.698C107.334 142.505 106.613 145.363 111.408 148.333C115.671 149.986 118.836 153.93 123.548 154.515C126.075 154.875 128.46 155.749 130.828 156.593C131.454 156.765 131.111 157.06 130.633 157.361C124.858 161.181 122.42 168.645 119.308 174.467C119.119 175.205 119.964 175.453 119.355 175.783C118.777 176.067 117.82 176.256 117.271 176.126C116.563 175.943 116.315 175.193 115.76 174.797C113.469 173.079 107.936 173.215 106.017 170.085C99.3861 161.382 86.3192 157.084 86.9923 144.867C87.1282 143.084 88.1555 139.216 88.6397 137.646C88.1319 137.988 87.3466 140.681 86.8447 141.023C86.5377 142.104 86.2129 143.202 85.9354 144.353C85.2092 152.189 90.6001 158.323 96.5283 162.681C99.203 165.527 106.454 168.928 104.925 173.605C102.604 183.099 95.7902 190.958 97.0243 201.386C97.2486 202.862 96.3925 203.039 94.9813 203.358C89.1298 205.731 85.7642 211.902 86.52 217.83C85.959 219.696 85.1383 225.659 82.9654 225.5C72.963 224.549 62.5769 225.943 53.9739 230.985C53.9621 231.824 53.9443 232.662 53.9266 233.501C62.7481 228.257 73.6716 225.624 83.5736 227.655C83.3374 236.601 86.2779 245.398 87.3289 254.308C87.9607 261.27 96.0205 259.274 100.898 258.938C105.952 258.241 111.296 259.357 116.143 258.111C113.274 254.249 91.0842 261.093 91.8873 255.058C98.9491 248.835 108.385 258.04 116.013 253.795C112.323 252.472 105.905 253.618 102.167 251.35C101.807 251.049 102.332 251.22 102.651 251.226C106.354 251.888 112.229 252.826 115.588 251.439C117.991 250.093 112.884 250.825 112.264 250.695C103.95 249.667 94.7982 246.875 88.3209 252.33C85.6166 240.238 83.6799 231.044 87.7599 218.91C88.1733 211.742 90.0627 207.597 96.8294 204.314C98.6716 207.816 98.2524 213.661 101.512 216.425C101.606 216.743 101.157 217.051 101.057 217.31C101.47 218.249 103.372 217.859 104.305 218.255C107.381 218.934 110.162 221.656 112.961 222.459C114.644 223.286 119.432 222.778 118.387 225.535C113.982 240.557 119.32 255.785 122.609 270.469C123.465 294.046 124.54 318.863 125.478 341.637C123.495 348.103 124.563 355.307 123.046 361.695C119.414 370.782 112.211 417.446 124.54 419.938C136.048 421.001 142.879 393.527 144.338 384.186C146.363 376.563 147.987 367.677 145.56 359.977C145.66 353.63 141.905 345.086 142.714 338.561C140.175 336.199 141.368 347.997 141.332 349.183C141.439 351.965 143.281 354.132 143.617 356.824C144.35 361.524 142.643 366.549 142.82 371.308C142.714 371.556 141.958 378.848 140.925 376.959C137.648 372.105 128.242 370.027 124.097 374.012C123.713 374.378 123.134 374.927 122.786 374.284C121.263 369.46 124.256 365.085 125.148 360.473C125.809 356.417 125.225 352.531 125.797 348.422C126.329 345.298 127.498 341.59 127.457 338.532C131.625 339.394 136.272 340.48 140.765 339.931C144.792 340.031 148.601 342.057 148.016 336.158C147.556 321.904 152.899 307.786 155.226 294.076C158.219 300.429 158.645 308.578 161.054 315.332C161.55 317.452 163.073 317.871 164.962 318.09C168.86 326.38 166.014 339.069 173.896 346.001C177.598 364.441 180.81 385.219 195.206 398.611C199.203 404.917 206.236 409.599 209.991 400.618C211.349 383.926 210.493 370.162 203.72 356.151C200.585 349.237 199.463 340.828 193.092 335.981C191.415 334.865 192.088 332.603 191.639 330.897C191.149 328.387 187.973 319.135 186.284 317.293C183.025 315.451 188.368 324.579 188.728 325.5C190.057 328.393 189.968 332.084 190.86 335.036C194.019 340.25 198.749 344.395 199.298 350.837C199.445 351.657 199.392 352.555 198.294 352.242C181.814 348.091 184.082 379.073 175.36 346.408C175.213 345.759 175.585 345.481 175.437 344.849C175.313 344.478 175.071 344.224 174.776 343.928C167.814 337.681 170.094 325.949 166.291 317.836C168.824 317.381 172.202 318.054 174.764 318.462C177.752 319.389 180.521 320.989 183.792 319.802C188.77 318.598 187.878 313.904 187.187 310.154C187.376 306.747 176.388 270.782 184.07 276.888C185.847 281.629 185.286 290.97 191.403 292.482C198.524 288.148 192.62 275.335 196.463 275.181C205.799 274.331 215.134 271.916 224.617 273.298C225.538 298.498 223.571 325.429 225.697 350.937C226.016 351.846 226.967 352.106 227.705 352.59C229.139 354.185 231.023 354.775 231.938 352.455C232.21 351.28 233.285 351.315 233.975 350.193C234.418 349.473 234.566 348.628 234.69 347.796C238.605 323.162 236.869 297.53 239.785 272.902C245.289 262.61 247.509 249.384 247.692 237.599C248.43 226.22 242.289 216.637 239.455 206.062V205.997ZM163.634 48.8169L163.616 48.8405C163.327 49.0118 162.406 49.3897 162.229 49.3542C162.217 49.3247 162.199 49.2657 162.193 49.2421C162.364 48.2324 163.097 47.2994 163.167 46.2484C163.167 46.0831 163.185 45.9355 163.262 45.9473C163.852 46.2602 163.799 48.2265 163.64 48.8228L163.634 48.8169ZM126.813 45.6816C126.346 45.4277 125.213 45.0144 124.858 44.5361C124.729 44.0106 125.154 42.688 125.467 42.0503C125.744 41.5011 126.081 40.8634 126.293 41.7727C126.583 42.9773 126.594 44.4948 126.831 45.6698H126.807L126.813 45.6816ZM126.949 39.8774C128.336 34.9766 127.958 28.2394 130.775 24.1239C131.052 23.6988 131.472 23.4685 131.956 23.4272C132.712 23.439 133.591 22.9312 134.371 22.7482C134.731 22.6832 135.032 22.7954 135.375 22.76C135.705 22.7245 136.443 22.1695 137.051 22.1813C138.097 22.14 139.307 22.1282 140.287 22.3762C140.742 22.447 141.226 22.1931 141.651 22.1636C141.887 22.1518 142.082 22.2758 142.33 22.3644C142.714 22.5238 143.169 22.3171 143.576 22.3525C143.889 22.3525 144.155 22.4352 144.42 22.3525C144.645 22.2994 144.857 22.0278 144.993 21.8034C146.333 19.7722 146.546 17.1093 146.918 14.7829C147.042 14.8065 147.095 15.0663 147.166 15.2434C147.674 16.7845 148.772 19.0932 149.475 20.3745C149.593 20.5753 149.77 20.8233 149.959 20.9118L150.018 20.9354C150.231 21.0063 150.414 20.8705 150.608 20.8351C151.099 20.7406 151.465 21.7149 151.872 21.9333C152.179 22.1459 152.226 21.52 152.457 21.6912C152.675 21.827 153.106 22.6478 153.466 22.9076C153.667 23.0611 153.897 23.1083 154.145 23.1556C155.072 23.3622 155.728 23.935 156.613 24.3601C157.375 24.7557 157.983 25.3462 158.686 25.7713C158.869 25.8304 158.857 25.8126 158.94 25.8185C159.448 25.7713 159.985 25.6355 160.375 26.0902C160.623 26.3322 160.806 26.6393 161.036 26.8873C161.248 27.1294 161.449 27.0939 161.674 27.0408C162.217 26.8696 162.37 27.7789 162.559 28.1568C162.813 28.8181 163.25 29.0838 163.51 29.5384C163.723 29.9104 163.776 30.3887 163.811 30.8256C164.018 33.6894 164.165 39.1334 163.876 41.9676C163.569 43.6858 162.276 45.038 161.863 46.7976C161.189 48.811 160.717 51.0311 160.003 53.0269C159.359 54.8101 158.544 56.4338 157.062 57.5793C152.61 60.7383 143.34 64.0508 138.386 60.821C136.071 59.4924 133.013 57.2073 131.224 55.4064C130.397 54.568 129.966 54.013 129.564 53.0682C128.017 49.1062 127.722 44.046 126.961 39.8478L126.949 39.8774ZM134.926 97.0161C132.422 98.8229 127.699 99.6968 124.74 99.7854C124.227 99.7972 123.754 99.744 123.276 99.5905C118.31 97.5416 112.931 90.958 110.717 86.9547C109.412 84.3685 108.686 81.4693 107.292 78.9422C107.168 78.6824 107.103 78.4462 107.145 78.2631C107.21 77.9384 107.647 77.773 107.983 77.6786C112.046 76.539 116.462 75.5293 120.383 73.817C122.101 73.0612 123.689 72.2404 125.13 71.0595C125.998 70.3864 126.978 69.6129 128.071 69.3826C128.289 69.3472 128.454 69.3708 128.531 69.4653L128.561 69.5125C128.673 69.7487 128.49 70.1679 128.384 70.4632C125.443 79.196 136.142 85.6262 140.517 91.3418C142.513 93.8158 136.331 95.6935 134.932 97.0161H134.926ZM142.661 92.1448C142.472 92.009 142.348 91.702 142.194 91.4953C141.958 91.1233 141.474 90.5978 141.126 90.2317C137.99 86.937 136.16 85.0357 133.709 82.2782C124.551 71.9393 131.2 75.4466 130.373 61.5354C130.279 59.8703 130.119 58.4709 129.889 56.7999C129.854 56.4693 129.866 56.2095 130.001 56.1209C130.238 55.9201 130.934 56.4516 131.46 56.9357C139.136 65.7867 147.473 64.2988 157.05 59.3153L157.086 59.3389C157.174 59.4216 157.151 59.6518 157.068 59.9589C155.958 63.6906 155.923 67.812 156.649 71.5555C156.672 72.081 156.259 72.4412 155.993 72.9667C152.646 78.5938 144.704 93.3375 142.661 92.1507V92.1448ZM97.4435 250.659H97.4553C95.802 251.22 91.6452 252.596 90.293 253.565C91.2023 251.285 95.1112 250.878 97.4376 250.659H97.4435ZM125.26 374.508C129.494 372.418 136.632 373.54 139.171 377.756C140.181 379.521 139.36 381.594 138.805 383.424C138.474 384.274 138.463 385.16 138.156 385.91L138.114 385.945C137.967 386.075 137.683 385.922 137.299 385.633C136.762 385.237 136.307 384.829 135.776 384.54C134.991 384.133 134.631 383.873 135.628 383.218C137.707 381.954 139.502 378.116 135.676 378.541C135.44 378.553 134.908 378.695 134.648 378.854C134.141 379.132 133.119 379.757 132.286 380.253C131.525 380.708 131.165 381.027 130.822 380.124C129.647 376.038 124.587 375.961 125.762 380.171C125.957 380.862 126.376 381.629 126.718 382.19C126.842 382.373 126.848 382.592 126.813 382.621C126.447 383.076 124.923 383.288 124.345 383.495C123.731 383.654 123.619 383.247 123.613 382.627C123.589 381.907 123.554 381.169 123.512 380.448C123.376 377.85 123.341 375.695 125.26 374.508ZM122.774 376.976C122.88 377.685 122.485 378.819 122.438 379.698C122.343 380.832 122.343 382.078 122.373 383.265C122.461 385.361 122.993 385.196 125.242 384.753C125.845 384.729 128.366 383.808 127.344 385.142C124.327 389.045 125.16 394.277 124.404 398.941C124.256 399.656 124.374 400.453 125.23 399.928C128.384 399.048 130.143 381.576 131.909 386.867C133.06 390.799 131.182 395.375 131.501 399.384C131.554 399.786 131.637 400.459 132.044 400.5C132.233 400.5 132.464 400.294 132.7 399.951C133.261 399.136 133.893 397.589 134.329 396.574C135.611 393.787 136.337 390.722 135.812 387.67C135.481 385.745 136.709 386.92 137.536 387.811C139.059 389.37 139.573 386.317 139.726 385.272C139.939 383.749 140.258 382.444 140.718 380.986C141.031 380.047 141.917 379.645 142.36 378.765C144.196 375.364 144.043 370.021 144.857 366.395C145.241 372.642 144.243 378.842 142.342 384.841C140.429 397.064 136.508 409.375 127.799 418.557L127.716 418.61C126.234 419.424 123.583 418.013 122.29 416.832C121.753 416.301 121.522 415.616 121.339 414.907C119.828 408.944 118.641 401.74 119.226 395.599C119.662 393.598 120.306 391.519 120.448 389.435C120.92 384.871 120.448 380.165 121.015 375.589C121.085 375.294 121.127 374.768 121.434 375.063C121.859 375.695 122.591 376.339 122.756 376.982L122.774 376.976ZM139.396 180.59L139.354 180.619C132.718 180.058 126.098 179.066 120.099 182.396C119.367 182.78 118.033 183.318 117.324 183.093C117.118 183.022 117.088 182.857 117.212 182.656C119.745 180.277 123.382 179.739 126.529 178.429C126.801 178.311 127.616 177.968 127.161 177.75C125.567 177.183 116.273 181.145 115.405 183.418C115.429 183.985 115.405 184.186 114.803 184.575C113.705 185.29 111.296 186.902 110.439 187.439C110.144 187.61 110.032 187.551 110.209 187.167C110.711 186.075 111.886 185.13 112.843 184.363C114.709 182.839 116.356 180.885 118.298 179.332C118.576 179.054 119.403 178.558 119.172 178.192C117.909 177.584 111.071 184.174 108.957 185.992C108.774 186.04 109.028 185.609 109.14 185.437C110.439 183.217 113.498 181.31 114.862 179.102C115.328 178.021 114.171 178.724 113.091 179.728C111.473 181.074 109.766 183.377 108.107 184.457C109.093 182.361 111.402 181.216 112.423 179.155C112.961 178.175 113.817 177.395 115.004 177.366C118.399 177.053 121.67 176.203 124.687 174.721C126.807 173.475 129.257 174.514 131.519 174.762C132.233 174.85 133.001 174.715 133.686 174.892C134.347 175.063 140.027 179.798 139.396 180.59ZM163.74 182.981C161.981 182.757 161.603 180.72 160.481 179.604C160.097 179.267 157.7 175.754 157.546 177.006C157.517 177.354 157.712 177.803 157.912 178.133C159.146 180.188 162.524 183.211 161.473 185.195C161.26 185.603 160.859 185.922 160.392 185.945C158.29 185.709 156.814 183.016 155.486 181.576C154.866 180.814 154.299 180.194 154.08 180.253C154.015 180.277 153.992 180.365 154.021 180.513C154.405 182.349 157.771 184.605 157.039 186.459C156.43 186.671 155.734 186.004 155.155 185.798C154.128 185.266 152.622 184.947 151.896 184.321C151.034 183.447 150.166 181.918 148.808 181.889C148.128 182.019 149.646 183.53 149.41 183.755C148.152 183.607 146.877 182.839 145.672 182.343C144.621 181.853 143.487 181.847 142.431 181.416C141.179 180.926 139.892 179.462 138.935 178.517C137.624 177.13 136.06 176.008 134.802 174.532C132.564 171.774 131.613 170.127 128.862 169.276C127.811 168.928 126.211 168.704 124.858 168.633C124.416 168.609 123.743 168.485 123.678 168.131C123.636 167.245 124.256 166.425 124.788 165.338C126.459 162.575 129.163 158.518 132.281 157.656C137.235 157.261 142.088 160.768 146.398 162.799C147.083 163.13 147.869 163.254 148.642 163.307C153.643 163.584 157.363 166.767 161.567 169.194C162.093 169.501 162.612 169.843 163.008 170.286C164.035 171.443 164.461 173.309 165.535 174.561C166.439 175.689 167.98 176.592 168.092 177.248C168.186 177.998 165.943 178.499 165.252 178.145L165.169 178.104C164.833 177.909 164.596 177.502 164.413 177.135C162.713 173.793 160.227 170.9 157.109 168.786C155.415 168.096 160.02 172.353 160.18 172.565C161.697 174.189 162.524 176.356 163.717 178.204C164.419 179.373 165.76 180.708 165.647 182.131C165.47 182.887 164.443 183.064 163.752 182.987L163.74 182.981ZM183.627 363.207C185.782 358.33 190.825 351.929 196.853 352.868C198.607 353.5 199.256 355.803 199.717 358.353C200.089 360.709 200.52 363.473 201.453 365.498V365.545C201.388 365.716 201.223 365.752 201.022 365.811C200.254 365.982 198.471 366.348 197.621 366.513C197.32 366.567 196.942 366.608 197.154 366.177C198.229 364.098 200.195 359.853 197.656 359.204C195.548 358.749 194.893 361.495 194.468 362.983C194.285 363.62 194.167 364.14 193.966 364.152C193.765 364.187 193.434 363.744 192.944 363.331C191.61 362.268 189.638 361.335 187.866 361.613C185.823 361.931 185.9 364.907 187.488 365.87C188.457 366.602 189.709 367.004 190.83 367.429C191.462 367.653 191.952 367.889 191.775 368.161C190.376 369.235 188.599 370.021 187.052 370.883C186.502 371.184 185.936 371.095 185.747 370.464C185.221 368.615 184.536 366.466 183.656 364.783C183.426 364.27 183.408 363.726 183.627 363.195V363.207ZM179.015 361.016C180.019 362.492 181.584 363.526 182.712 364.854C183.969 366.98 184.808 372.046 185.392 373.445C185.812 374.189 186.432 373.386 186.993 372.577C187.595 371.609 188.498 370.971 189.531 370.464C190.647 369.914 191.793 369.271 191.604 370.723C191.321 373.44 191.669 376.262 192.761 378.789C193.405 380.011 193.588 381.399 194.338 382.598C195.017 383.442 195.767 382.344 195.897 381.671C196.511 378.293 194.013 373.953 194.993 370.505C195.07 370.275 195.17 370.162 195.294 370.18C195.566 370.233 195.838 370.717 195.997 371.007C197.562 373.941 197.786 377.207 198.188 380.389C199.504 393.291 204.736 373.528 198.3 368.108C198.034 367.765 198.235 367.618 198.902 367.446C200.006 367.151 201.854 366.732 202.935 366.401C203.083 366.342 203.153 366.283 203.171 366.195C202.835 364.594 200.355 356.735 199.9 354.982C199.758 354.356 200.762 354.108 201.093 354.651C201.784 356.34 202.197 358.158 202.947 359.918C204.671 364.494 206.915 369.017 207.918 373.8C209.288 381.405 207.735 391.602 208.621 399.632C208.869 401.563 207.044 402.779 205.403 403.476C204.246 404.008 202.959 403.86 201.848 403.181C199.363 401.687 197.892 398.688 195.867 396.715C192.744 393.71 189.809 390.516 188.386 386.489C188.108 385.798 187.754 385.148 187.341 384.522C182.983 377.697 180.433 369.814 178.348 362.05V361.961C178.248 360.733 178.153 359.883 179.021 361.022L179.015 361.016ZM176.925 244.229C175.939 241.094 174.593 236.878 173.784 234.298C173.625 233.725 173.447 233.518 173.707 233.211C173.855 233.022 174.191 232.727 174.422 232.509C176.382 230.667 178.018 228.305 179.393 225.978C180.261 224.591 180.675 223.008 182.092 222.01C185.446 219.755 189.289 217.641 190.949 213.909C191.297 213.041 191.781 212.835 192.584 213.342C195.194 214.777 198.796 216.484 200.632 218.214L200.703 218.285C206.153 224.349 206.921 234.664 207.387 242.558C207.387 242.824 207.34 243.031 207.21 243.131C196.93 239.854 189.159 244.099 179.145 246.692C178.762 246.774 177.976 247.016 177.793 246.81C177.516 246.331 177.368 245.505 176.925 244.229ZM191.303 291.313C190.996 291.448 190.246 291.33 190.376 290.935C190.724 290.704 191.427 290.551 191.822 290.616L191.852 290.645C192.07 290.952 191.616 291.224 191.303 291.313ZM193.062 287.599C193.074 288.254 192.997 288.496 192.318 288.715C191.563 288.957 190.653 288.933 189.88 288.939C189.413 288.903 189.159 289.022 188.959 288.75C188.54 287.463 185.133 276.616 184.914 275.866C184.95 275.683 185.215 275.778 185.564 275.73C187.642 275.636 191.515 275.352 193.517 275.305L193.535 275.317C193.535 278.051 193.151 284.77 193.074 287.599H193.062ZM229.984 352.708C229.163 352.413 230.35 351.504 230.598 351.74C230.563 352.148 230.433 352.868 229.984 352.708ZM232.641 348.357C232.546 349.396 231.903 349.809 230.781 349.803C230.084 349.851 229.393 349.933 228.714 350.081C228.012 350.276 227.339 350.199 227.339 349.272C227.339 324.302 225.207 298.493 226.795 273.805C227.852 272.837 230.828 274.349 234.684 273.994C235.221 273.947 235.818 273.864 236.308 273.758C236.691 273.687 237.052 273.563 237.323 273.746L237.359 273.788C235.038 298.386 236.308 323.876 232.647 348.357H232.641ZM239.195 270.215C238.008 272.985 233.798 272.53 231.271 272.235C228.49 271.822 225.786 271.042 222.999 271.048C209.011 270.682 194.798 273.764 180.929 274.024C180.675 272.087 178.325 251.114 178.012 248.439C177.941 247.92 178.945 248.144 179.476 248.038C189.018 247.66 197.172 240.362 207.222 244.69C208.066 245.534 207.83 246.579 206.649 246.166C199.912 243.804 192.773 246.609 186.355 248.54C184.737 248.906 180.143 248.693 179.807 250.583C179.813 251.096 180.562 251.285 181.07 251.268C189.136 251.398 198.506 244.566 206.608 247.855L206.554 247.595C206.619 248.026 205.574 249.242 205.368 249.827C201.878 252.62 194.881 253.801 191.533 254.492C188.286 255.041 179.801 255.188 179.996 256.983C180.037 257.267 180.338 257.462 180.751 257.473C187.843 256.133 204.116 255.194 206.956 248.569C207.127 248.309 207.34 248.25 207.487 248.463C207.664 248.693 207.688 249.254 207.44 249.732C202.315 256.912 190.695 255.371 183.349 258.471C182.635 258.761 181.655 259.357 181.484 260.089C181.324 260.892 182.298 260.928 182.859 260.715C186.443 259.203 190.488 258.56 194.385 257.816C202.232 256.334 206.602 254.379 209.454 247.022C209.784 245.28 208.739 243.09 209.017 241.253C209.442 236.63 207.523 229.598 206.708 225.069C206.82 224.721 207.523 224.774 207.918 224.833C216.699 225.949 225.75 226.079 234.182 229.173C234.507 229.297 234.808 229.415 235.097 229.58C235.894 230.029 236.538 231.127 237.542 230.678C239.254 229.19 235.782 227.549 232.245 226.468C223.583 223.876 208.361 222.111 206.525 224.254C206.454 224.319 206.383 224.319 206.283 224.207C206.171 224.089 206.023 223.829 205.834 223.481C202.829 217.635 199.557 214.954 193.488 212.345C192.584 211.996 191.911 211.353 192.106 210.343C194.013 200.11 190.653 190.409 185.174 181.818C184.158 179.503 183.94 176.486 182.712 174.549C182.18 173.752 182.381 173.02 183.019 172.217C195.631 157.054 203.077 153.99 200.018 132.916C200.006 132.568 199.947 132.314 200.254 132.219C200.762 132.349 202.055 133.117 202.852 133.359C218.877 137.486 218.759 154.226 234.465 162.882C235.251 163.378 235.747 163.951 235.9 164.783C237.583 178.275 234.318 191.029 237.211 204.757C238.014 208.837 239.508 212.711 241.055 216.555C249.091 233.288 245.477 253.547 239.219 270.186L239.195 270.215Z" fill="#191919"/>
<path d="M120.713 265.185C119.881 266.59 109.099 261.341 108.29 261.341C104.334 260.178 99.699 261.046 95.7252 260.674C94.1723 260.343 94.7923 259.717 96.2803 259.599C98.2288 259.393 100.189 259.428 102.114 259.493C104.015 259.599 106.094 259.629 107.924 260.131C111.113 260.88 114 262.664 117.07 263.467C118.163 263.833 120.713 263.62 120.731 265.132L120.713 265.185Z" fill="#191919"/>
<path d="M143.913 121.685C147.148 120.794 147.29 125.948 144.716 126.704C141.132 127.625 140.736 122.571 143.8 121.715L143.919 121.685H143.913Z" fill="#191919"/>
<path d="M145.625 101.014C148.896 101.185 149.64 105.956 145.926 105.483C143.493 105.324 142.962 101.344 145.513 101.014H145.625Z" fill="#191919"/>
<path d="M139.986 147.128C138.705 145.676 140.878 142.582 142.649 143.946C144.881 145.67 141.952 149.189 140.057 147.205L139.986 147.128Z" fill="#191919"/>
<path d="M152.769 50.9838C152.504 51.2673 151.47 51.1964 150.915 51.4444C148.855 52.891 146.003 53.4343 143.458 52.8497C142.035 52.4246 139.514 51.5035 138.108 50.5469C137.784 50.2871 138.091 50.0155 138.215 49.7793C138.215 49.7321 138.25 49.7321 138.173 49.6671C137.807 49.5254 136.514 49.5786 135.989 49.425C135.516 49.3306 135.316 49.2066 135.363 49.0826C136.313 48.3268 138.35 48.7814 139.514 48.4094C140.842 48.0197 142.513 47.3761 143.948 47.8662C144.55 48.067 145.176 48.1555 145.814 48.1555C147.538 48.1378 148.796 49.614 150.325 50.1159C150.827 50.3402 152.893 50.2103 152.811 50.9484L152.775 50.9898L152.769 50.9838ZM147.148 49.5136C146.676 48.7637 145.412 49.177 144.657 49.0826C143.747 49.0058 142.661 48.1615 141.716 48.622C141.663 48.7224 141.935 48.87 142.124 48.9704C143.594 49.6848 145.607 49.5608 147.137 49.549L147.154 49.5136H147.148ZM149.073 50.8421C147.083 50.4997 140.99 50.0037 139.732 49.8325C141.811 51.7278 146.576 52.6135 149.038 50.8717L149.067 50.8421H149.073Z" fill="#191919"/>
<path d="M142.377 27.354C140.075 27.171 137.973 25.8129 135.611 26.486C134.69 26.7045 133.739 27.4603 132.794 27.6138C131.962 27.7733 131.879 27.0293 132.351 26.5687C133.715 25.0985 136.449 24.5789 138.457 24.945C139.224 25.0217 143.127 26.5156 142.442 27.3304L142.377 27.354Z" fill="#191919"/>
<path d="M141.692 31.871C142.49 32.7685 138.852 33.5302 137.778 33.5302C136.839 33.4535 132.971 32.863 132.977 31.8238C133.013 31.4105 133.521 31.0503 133.928 31.068C134.979 31.1625 136.874 31.9537 138.132 32.0305C139.254 32.1308 140.547 31.6171 141.628 31.8356L141.698 31.871H141.692Z" fill="#191919"/>
<path d="M160.717 35.6965C160.398 36.6117 150.272 35.4367 151.907 33.0218C152.439 33.004 154.677 33.8602 156.047 34.3208C157.269 34.8522 159.07 34.6573 160.434 35.2183C160.711 35.3482 160.782 35.5312 160.735 35.6552L160.717 35.6965Z" fill="#191919"/>
<path d="M161.556 31.0561C161.432 31.1506 161.16 31.0561 160.936 30.8376C158.591 28.1274 156.974 27.3657 153.431 28.4817C153.1 28.5821 152.468 28.6411 152.356 28.399C151.766 27.5429 157.576 25.4231 160.51 28.8419C161.03 29.5091 161.603 30.194 161.597 31.0148L161.556 31.0561Z" fill="#191919"/>
<path d="M150.272 29.214C149.085 31.9715 147.934 34.8943 147.786 37.941C147.509 38.4843 146.948 38.1005 147.072 37.5809C147.219 34.723 147.597 30.6489 150.248 29.1904L150.272 29.2081V29.214Z" fill="#191919"/>
<path d="M141.645 39.6474C141.445 40.2378 140.878 40.8873 140.624 41.4955C140.287 42.1037 140.264 42.8181 140.358 43.4735C140.34 43.5562 140.269 43.6093 140.169 43.6152C139.118 43.5798 138.923 42.5406 139.283 41.5486C139.65 40.5271 140.594 39.4289 141.616 39.6119L141.639 39.6592L141.645 39.6474Z" fill="#191919"/>
<path d="M150.278 43.3547C150.555 42.9827 150.532 42.1856 150.449 41.7014C150.414 41.2055 150.242 40.7331 150.732 40.7567C152.321 41.1346 151.53 44.4117 150.006 44.6656C148.524 44.8132 149.835 43.7621 150.236 43.4138L150.284 43.3547H150.278Z" fill="#191919"/>
<path d="M141.911 42.9658C141.728 42.3577 142.336 41.8558 142.915 41.779C143.594 41.596 144.285 42.1864 143.783 42.7769C143.352 43.1312 142.431 43.0308 141.952 43.0072L141.917 42.9658H141.911Z" fill="#191919"/>
<path d="M148.571 42.5755C149.156 43.5025 147.739 43.8095 147.154 43.5202C146.452 42.7585 147.981 41.7843 148.542 42.5223L148.577 42.5755H148.571Z" fill="#191919"/>
<path d="M38.7459 237.487C38.929 249.273 41.1491 262.499 46.6522 272.791C49.5631 297.419 47.8272 323.051 51.7478 347.685C51.8718 348.517 52.0194 349.356 52.4623 350.082C53.1531 351.204 54.2278 351.168 54.4994 352.343C55.4146 354.664 57.3041 354.079 58.733 352.479C59.4651 351.995 60.4217 351.741 60.7405 350.826C62.8603 325.318 60.9 298.387 61.8211 273.186C71.2979 271.805 80.6331 274.226 89.9742 275.07C93.8181 275.224 87.9076 288.037 95.0344 292.37C101.152 290.859 100.591 281.518 102.368 276.776C104.665 274.946 104.027 274.816 108.55 275.666C108.633 275.2 114.768 274.999 108.633 275.2C108.58 275.2 100.945 274.125 102.368 276.771C102.22 274.798 110.9 276.032 111.124 274.007C97.3313 273.712 77.3501 270.63 63.4448 270.996C60.6579 270.996 57.9536 271.769 55.1725 272.183C52.6453 272.478 48.4413 272.933 47.2485 270.163C40.9897 253.518 37.3761 233.266 45.4122 216.532C46.9592 212.682 48.4531 208.815 49.2561 204.735C52.1434 191.006 48.8841 178.247 50.5669 164.76C50.7204 163.922 51.2105 163.349 52.0017 162.859C67.7139 154.203 67.5958 137.464 83.6149 133.336C83.8452 133.265 84.1227 133.147 84.4061 133.017C85.5516 132.155 86.8447 131.518 88.2264 131.205C88.3563 131.175 88.4862 131.157 88.622 131.134C88.7401 130.354 88.8464 129.575 88.9231 128.79C88.374 128.76 88.5039 127.928 87.9607 127.815C87.8839 128.335 87.1281 129.605 87.0396 130.065C71.6995 135.509 71.5518 137.889 62.5946 150.772C59.6305 154.132 56.8553 157.35 52.9169 159.706C51.364 160.745 49.1616 161.602 49.138 163.656C47.6028 177.869 49.9115 191.839 46.9769 205.951C44.1427 216.526 38.002 226.103 38.74 237.487H38.7459ZM94.5915 290.593L94.6211 290.564C95.0167 290.499 95.7193 290.652 96.0677 290.883C96.1976 291.278 95.4477 291.39 95.1407 291.26C94.8277 291.172 94.3731 290.9 94.5915 290.593ZM92.9146 275.265L92.9324 275.253C94.9281 275.294 98.8015 275.584 100.886 275.678C101.234 275.725 101.494 275.631 101.535 275.814C101.317 276.564 97.9099 287.411 97.4907 288.698C97.2899 288.969 97.0361 288.851 96.5696 288.887C95.7961 288.875 94.8809 288.899 94.131 288.662C93.452 288.444 93.3752 288.202 93.387 287.546C93.3044 284.718 92.9265 277.999 92.9265 275.265H92.9146ZM55.8456 351.688C56.0877 351.452 57.2804 352.367 56.4597 352.656C56.0169 352.816 55.8811 352.095 55.8456 351.688ZM49.0849 273.736L49.1203 273.694C49.3919 273.511 49.7521 273.635 50.1359 273.706C50.626 273.812 51.2223 273.895 51.7596 273.942C55.6094 274.297 58.5854 272.779 59.6482 273.753C61.2424 298.446 59.1109 324.255 59.105 349.22C59.105 350.153 58.4318 350.224 57.7292 350.029C57.0502 349.881 56.3534 349.799 55.6626 349.751C54.5407 349.757 53.8971 349.344 53.8026 348.305C50.1418 323.818 51.4113 298.328 49.0908 273.736H49.0849Z" fill="#191919"/>
<path d="M156.507 12.5984C159.005 12.7992 161.502 12.9763 164 13.1121C164.667 13.1475 165.329 13.1771 165.996 13.2066C165.889 12.994 165.777 12.7814 165.665 12.5748C162.612 12.5512 159.56 12.563 156.507 12.5984Z" fill="#191919"/>
<path d="M87.7068 131.883C88.5216 136.081 86.9333 139.559 85.9295 143.68C85.2032 151.516 90.5941 157.65 96.5223 162.008C98.4413 164.051 102.716 166.377 104.417 169.259C104.753 169.064 105.657 170.209 106.005 170.026C99.4451 162.026 87.2521 156.074 86.9923 144.188C86.9274 141.324 88.4507 139.163 88.7873 136.807C89.5785 131.233 89.4014 125.376 89.6848 119.772C90.169 112.161 89.608 121.573 92.4127 96.6914C92.0171 96.7741 91.6215 96.8508 91.2259 96.9335C89.6966 106.865 88.3208 116.761 88.0551 126.864C87.8544 128.966 87.8957 129.94 85.5575 130.448C84.9788 130.584 84.4474 131.068 83.8688 131.21C83.9278 131.623 83.9219 131.688 83.9337 132.101C85.6224 131.393 87.1872 130.956 87.7068 131.865V131.883Z" fill="#191919"/>
<path d="M246.458 231.848C246.493 232.178 246.529 232.509 246.552 232.834C246.552 232.863 246.552 232.893 246.552 232.922C250.201 233.123 253.862 232.184 257.523 232.273C267.136 232.108 276.742 233.749 286.331 233.885C286.55 233.867 286.739 233.844 286.91 233.826C286.792 233.731 286.662 233.643 286.544 233.542C286.16 233.229 285.782 232.899 285.416 232.562C272.833 231.777 260.363 230.448 247.733 231.83C247.296 231.883 246.871 231.877 246.452 231.842L246.458 231.848Z" fill="#191919"/>
<path d="M40.4524 232.001C40.4169 232.332 40.3815 232.662 40.3579 232.987C40.3579 233.017 40.3579 233.046 40.3579 233.076C36.7088 233.277 33.048 232.338 29.3872 232.426C19.7745 232.261 10.1677 233.902 0.57865 234.038C0.36018 234.021 0.171233 233.997 0 233.979C0.118092 233.885 0.247993 233.796 0.366085 233.696C0.749883 233.383 1.12778 233.052 1.49386 232.716C14.0765 231.93 26.547 230.602 39.177 231.983C39.6139 232.037 40.039 232.031 40.4583 231.995L40.4524 232.001Z" fill="#191919"/>
</svg>
