<svg width="420" height="461" viewBox="0 0 420 461" fill="none" xmlns="http://www.w3.org/2000/svg">
<path d="M70.0803 284.779C40.4103 270.249 14.0103 246.759 4.2003 216.489C-7.8997 179.169 7.42031 137.809 33.8103 108.059C60.2003 78.3191 96.3103 58.0591 132.1 39.1091C164.19 22.1091 197.56 5.3891 234.09 0.979098C270.61 -3.4309 311.4 6.8991 333.25 35.1691C348 54.2691 352.34 78.6091 362.1 100.379C373.01 124.729 390.69 145.799 403.75 169.179C416.81 192.569 425.18 220.539 415.62 245.299C408.35 264.149 391.51 278.509 372.69 287.639C353.87 296.769 332.99 301.299 312.36 305.719C279.63 312.739 246.39 319.659 212.62 319.609C182.09 319.569 152.46 310.839 123.14 303.399C104.91 298.769 86.9103 293.019 70.0803 284.779Z" fill="#DDDDDD"/>
<path d="M199.26 327.809C199.81 327.829 200.35 327.839 200.89 327.849C198.66 327.679 196.43 327.559 194.19 327.529C195.88 327.639 197.57 327.729 199.25 327.799L199.26 327.809Z" fill="#DDDDDD"/>
<path d="M308.98 289.289C308.71 288.409 308.54 287.499 308.49 286.579C308.41 284.839 308.45 283.109 308.48 281.369C308.49 280.519 308.51 279.659 308.48 278.799C308.48 278.679 308.42 277.849 308.4 277.499C308.31 277.049 308.14 276.019 308.11 275.879C307.99 275.239 307.88 274.609 307.76 273.969C307.48 272.529 307.19 271.099 306.81 269.679C306.6 268.899 306.36 268.129 306.11 267.359C306.01 267.049 305.88 266.689 305.85 266.589C305.09 264.719 304.25 262.879 303.48 261.019C302.34 258.229 301.34 255.419 300.72 252.469C300.47 251.299 300.41 250.159 300.51 249.059C300.45 248.919 300.4 248.789 300.34 248.659C299.12 245.569 299.22 242.129 299.32 238.869C299.4 236.029 299.35 233.089 299.76 230.279C299.76 230.229 299.77 230.209 299.78 230.169C299.76 230.069 299.75 229.959 299.72 229.809C299.56 228.649 299.33 227.469 299.26 226.299C299.18 224.869 299.4 223.449 299.56 222.019C299.71 220.689 299.85 219.359 299.86 218.019C299.86 217.939 299.85 217.629 299.84 217.339C299.8 217.179 299.78 216.959 299.84 216.979C299.84 216.839 299.84 216.749 299.85 216.759C299.25 215.149 298.97 213.519 299.03 211.969C297.22 211.299 295.44 210.549 293.68 209.709C291.2 208.509 289.55 206.449 288.63 204.049C286.45 201.679 284.66 198.909 282.87 196.249C282.19 195.239 281.51 194.229 280.81 193.229C280.49 192.769 280.16 192.319 279.84 191.859C278.08 190.259 276.58 188.229 274.85 186.549C274.85 186.549 274.84 186.549 274.83 186.539C274.36 186.269 273.92 185.959 273.45 185.699C273.43 185.689 273.38 185.659 273.31 185.619C273.63 185.839 272.22 185.229 271.84 185.129C270.45 184.749 269.21 184.139 268.12 183.359C267.44 183.079 266.77 182.749 266.11 182.359L265.56 181.939C265.46 181.989 265.37 182.039 265.26 182.069C264.03 182.479 263.05 183.239 261.74 183.519C260.44 183.799 259.13 183.709 257.81 183.639C254.3 183.469 250.82 183.139 247.34 182.719C240.33 181.869 233.36 180.859 226.3 180.639C214.46 180.269 202.62 180.199 190.76 180.189C190.1 180.959 189.12 181.469 187.79 181.459C182.36 181.419 176.96 180.809 171.53 180.619C166.92 180.459 161.71 179.779 157.23 181.059C156.59 181.239 156 181.279 155.46 181.189C155.26 181.279 155.05 181.369 154.82 181.439C153.76 181.779 152.68 182.089 151.62 182.429C151.28 182.919 150.77 183.359 150.08 183.699C146.66 185.389 144.05 186.879 141.58 189.849C139.43 192.439 137.36 194.979 134.73 197.039C133.29 199.689 131.72 202.679 129.75 204.869C127.52 207.349 124.25 209.749 121.53 211.709C119.3 213.319 118.72 214.059 118.42 216.919C118.37 217.339 118.29 217.739 118.16 218.129C118.34 218.439 118.47 218.769 118.53 219.149C119.61 226.239 118.32 233.279 118.56 240.399C118.75 246.059 118.61 253.099 115.82 258.299C115.13 261.319 114.02 264.199 113.04 267.139C112.02 270.159 111.37 273.249 110.71 276.379C110.05 279.509 109.4 282.659 109.26 285.859C109.11 289.359 109.48 292.869 109.51 296.359C110.18 299.709 111.38 302.969 112.52 306.189C113.78 309.729 115.81 313.869 116.08 317.709C116.67 318.379 117.05 319.279 117.04 320.449C116.98 327.679 119.2 334.659 119.09 341.909C119.04 345.149 118.98 348.399 118.93 351.639C118.91 352.829 118.86 354.019 118.88 355.209C118.89 355.759 118.88 356.339 118.96 356.879C118.98 357.019 119.08 357.229 119.13 357.309C119.11 357.279 119.07 357.209 119 357.089C120.01 358.759 119.73 360.379 118.82 361.559C118.98 361.999 119.07 362.499 119.07 363.049C119.07 365.689 119 368.369 119.64 370.949C120.24 373.399 120.98 375.639 121.11 378.179C121.16 379.199 120.91 380.029 120.46 380.659C120.47 380.799 120.48 380.949 120.48 381.099C120.47 382.249 120.33 383.659 120.24 385.099C120.44 385.449 120.6 385.859 120.71 386.319C121.19 388.429 121.91 390.669 121.94 392.869C122.92 393.309 123.74 394.159 124.14 395.469C124.73 397.409 127.17 395.469 128.1 394.829C128.54 394.529 128.99 394.269 129.45 394.039C129.48 393.799 129.51 393.559 129.54 393.309C129.73 391.569 129.64 389.829 129.69 388.079C129.79 384.159 130.45 380.309 130.45 376.379C130.45 372.229 130.22 368.079 130.38 363.929C130.55 359.579 130.99 355.149 130.32 350.819C130.16 349.769 130.29 348.709 130.75 347.849C130.82 346.099 130.65 344.379 130.58 342.609C130.52 341.179 130.61 339.759 130.63 338.339C130.57 337.949 130.56 337.549 130.62 337.169C130.62 336.979 130.62 336.779 130.61 336.579C130.38 332.449 130.17 328.389 130.18 324.239C130.18 323.689 130.28 323.199 130.45 322.779C130.45 322.669 130.44 322.559 130.43 322.459C130.43 322.259 130.43 322.079 130.46 321.899C130.25 319.839 131.49 317.609 134.16 317.599C141.51 317.579 148.68 319.539 156.02 319.759C158.56 319.839 159.79 321.899 159.73 323.869C160.34 324.669 160.58 325.759 160.12 327.049C158.99 330.179 160.72 334.309 162.31 337.209C162.62 336.999 162.98 336.819 163.39 336.689C168.03 335.229 167.03 328.789 169.01 325.209C168.68 323.089 169.9 320.669 172.68 320.659C179.3 320.619 185.9 319.939 192.52 319.849C199.03 319.769 205.46 320.739 211.96 320.979C218.68 321.229 225.4 320.279 232.11 320.519C234.09 320.589 236.01 320.989 237.96 321.329C239.15 321.539 241.38 322.169 242.42 321.439C243.63 320.579 244.82 320.579 245.79 321.069C247.53 320.779 249.41 321.539 249.98 323.739C250.49 325.709 250.61 327.809 251.32 329.719C252.01 331.569 253.17 333.259 254.04 335.029C254.37 335.709 254.49 336.369 254.46 336.999C254.53 337.029 254.6 337.049 254.67 337.079C254.9 337.139 255.11 337.229 255.32 337.339C255.41 337.199 255.51 337.069 255.63 336.929C256.82 335.529 258.27 334.699 258.32 332.779C258.38 329.889 258.17 327.229 258.96 324.399C258.14 322.429 258.73 319.989 261.4 319.529C267.88 318.429 274.47 318.339 280.97 317.369C282.09 317.199 283.23 317.369 284.12 317.909C286.21 317.649 288.5 318.879 288.5 321.589V392.069C289.39 392.649 289.93 393.599 290.09 394.619C290.48 395.029 290.87 395.439 291.29 395.829C291.61 396.129 291.93 396.419 292.26 396.709C292.28 396.709 292.29 396.699 292.31 396.699C292.58 396.629 292.84 396.569 293.1 396.529C293.83 394.839 295.06 393.369 296.57 392.289C296.72 390.709 296.68 389.109 296.84 387.539C297.81 377.989 298.61 368.409 299.63 358.859C299.67 358.519 299.72 358.179 299.77 357.849C299.38 355.529 299.39 353.319 299.65 351.069C299.59 349.389 299.51 347.699 299.5 346.009C299.5 345.609 299.52 345.219 299.57 344.829C298.93 343.529 298.61 342.109 298.74 340.669C298.99 337.829 299.47 335.029 300.03 332.239C300.18 331.469 300.37 330.699 300.5 329.919C300.41 330.269 300.52 328.319 300.53 328.039C300.7 323.249 301.81 318.999 303.35 314.499C304.7 310.569 305.73 306.629 306.81 302.619C307.31 300.749 307.83 298.889 308.24 297.009C308.34 296.549 308.43 296.089 308.51 295.629C308.51 295.539 308.53 295.459 308.53 295.359C308.56 294.429 308.58 293.519 308.53 292.589C308.47 291.429 308.65 290.329 309.02 289.319L308.98 289.289Z" fill="white"/>
<path d="M272.83 429.099C272.81 426.649 272.68 424.199 272.84 421.759C272.99 419.539 272.76 417.559 272.54 415.419C272.16 415.039 271.85 414.549 271.63 413.949C271.04 412.329 271.01 410.609 270.42 408.989C269.81 407.279 269.15 405.569 268.52 403.869C267.42 400.949 265.85 398.199 265 395.189C264.12 392.109 262.68 389.529 261.5 386.569C260.51 384.089 259.19 381.999 257.26 380.249C256.48 379.859 255.83 379.239 255.52 378.409C255.19 377.739 255.14 377.039 255.32 376.369C255.24 374.399 254.22 372.389 253.71 370.509C253.12 368.359 252.03 366.409 251.36 364.289C250.62 361.919 250.64 359.469 250.27 357.039C249.91 354.699 249.14 352.449 248.78 350.099C248.01 345.109 246.99 340.169 245.9 335.239C245.41 332.979 244.9 330.659 244.86 328.339C244.84 327.059 245.08 325.759 244.95 324.499C244.14 324.459 243.32 324.369 242.52 324.139C240.23 323.469 239.39 321.099 240 319.189C239.7 318.509 239.59 317.739 239.68 316.999C238.28 316.639 237.1 315.499 236.67 314.189C235.23 314.909 233.77 315.599 232.25 316.169C228.63 317.549 225.89 312.299 228.54 309.799C232.36 306.209 236.52 302.889 240.56 299.449C239.22 299.369 238.18 298.529 237.64 297.409C235.1 298.919 232.55 300.429 230.02 301.959C226.38 304.149 221.98 298.679 225.4 295.979C229.54 292.709 233.69 289.459 237.84 286.199C237.72 285.799 237.59 285.389 237.43 284.989C236.92 283.709 236.42 282.439 235.92 281.159C234.46 280.269 233.6 278.239 234.09 276.429C234.03 276.269 233.97 276.109 233.9 275.949C232.71 272.849 235.7 270.939 238.29 271.439C238.29 271.419 238.29 271.399 238.3 271.379C239.19 267.739 243.02 265.549 245.72 263.249C246.58 262.519 247.43 261.769 248.29 261.029C246 260.629 244.06 257.919 245.25 255.659C244.65 255.219 244.2 254.569 244.07 253.659C243.71 251.239 245.04 249.139 246.84 247.309C246.6 246.429 246.67 245.459 247.2 244.539C246.84 244.829 246.48 245.129 246.11 245.419C242.93 247.929 237.69 244.759 240.13 240.799C241.6 238.419 243.97 236.479 245.85 234.439C246.25 234.009 246.64 233.579 247.04 233.139C244.3 233.179 241.66 230.209 243.52 227.489C244.36 226.259 245.21 224.989 246.14 223.789C246.14 222.639 246.69 221.509 248.02 220.779C248.9 220.299 249.36 219.219 249.95 218.429C250.73 217.389 251.61 216.429 252.4 215.409C254.2 213.089 256.16 210.919 257.86 208.529C260.16 205.289 261.81 201.799 263.42 198.269C263.62 196.229 264.11 194.229 264.2 192.169C264.32 189.379 263.73 186.649 263.26 183.909C262.28 178.319 261.36 173.039 261.39 167.339C261.39 167.199 261.4 167.059 261.42 166.929C260.79 164.559 260.61 162.059 260.37 159.629C259.99 155.819 259.63 151.989 259.07 148.199C258.55 144.699 257.46 141.009 255.52 138.019C254.76 136.849 253.87 135.669 252.66 134.979C251.27 134.179 250.32 133.639 249.2 132.469C249.15 132.419 249.11 132.369 249.08 132.329C248.46 132.099 247.86 131.839 247.27 131.539C246.91 131.359 246.6 131.139 246.35 130.899C244.19 130.029 242.18 128.939 239.9 127.919C238.13 127.129 236.34 126.349 234.5 125.739C233.2 125.299 231.17 123.919 229.87 123.909C224.97 123.859 224.97 116.249 229.87 116.289C230.53 116.289 231.12 116.389 231.68 116.529C231.58 115.919 231.54 115.299 231.55 114.669C231.67 108.599 232.72 102.549 232.91 96.4591C233 93.4691 232.97 90.4791 232.71 87.4991C232.67 87.0091 232.62 86.5191 232.56 86.0291C232.49 85.7591 232.41 85.4991 232.37 85.3291C232.08 83.8691 231.71 82.4391 231.25 81.0291C231.08 80.5191 230.92 79.9891 230.73 79.4791C230.67 79.3791 230.57 79.1891 230.41 78.8991C229.65 77.5091 228.94 76.0991 228.1 74.7491C227.77 74.2191 227.43 73.6891 227.08 73.1691C226.95 72.9791 226.24 72.1191 226.02 71.8191C225.91 71.6891 225.82 71.5891 225.78 71.5491C225.25 70.9591 224.69 70.3791 224.12 69.8291C221.07 66.8591 217.85 64.0591 215.16 60.7891C212.91 64.0391 208.93 66.0591 204.88 66.4391C203.39 66.5791 201.9 66.7391 200.41 66.9191C199.66 67.0091 198.92 67.0991 198.17 67.1991C198.14 67.1991 198.11 67.1991 198.08 67.2091C197.83 68.4391 197.39 69.6391 196.72 70.7691C194.82 73.9891 192.85 77.1991 191.2 80.5591C190.97 81.0291 190.71 81.5191 190.49 81.9991C190.34 82.4591 190.11 83.1591 190.02 83.4291C189.45 85.1591 189.03 86.9291 188.72 88.7191C188.54 89.7291 188.4 90.7491 188.24 91.7691C188.24 91.8991 188.22 92.0491 188.21 92.2591C188.06 94.3691 188.01 96.4191 188.03 98.5291V98.6391C188.03 98.6391 188.07 98.7291 188.09 98.7891C188.38 99.5191 188.51 100.369 188.7 101.129C189.37 103.719 189.8 106.389 189.91 109.059C189.98 110.599 189.71 112.049 189.19 113.379C189.64 113.629 190.09 113.899 190.53 114.189C190.98 114.489 191.44 114.749 191.91 115.009C191.92 115.009 191.93 115.009 191.95 115.019C191.99 115.019 192.03 115.009 192.09 115.009C194.22 114.879 195.81 116.859 195.9 118.819C195.99 120.839 194.29 122.329 192.42 122.599C192.05 122.959 191.59 123.269 191.02 123.479C190.95 123.539 190.87 123.589 190.8 123.649C190.51 124.089 190.08 124.499 189.52 124.829C188.59 125.369 187.66 125.679 186.7 125.939C185.1 126.589 183.43 127.079 181.74 127.559C181.1 127.789 180.46 127.999 179.78 128.149C179.52 128.209 179.27 128.259 179.01 128.309C177.69 128.659 176.37 128.989 175.05 129.269C175.03 129.279 175 129.289 174.98 129.299C173.6 129.839 172.43 130.809 171.1 131.449C168.02 132.929 164.77 134.119 162.68 136.999C161.82 138.179 160.87 139.449 160.54 140.899C160.25 142.149 160.14 143.289 159.82 144.439C160.02 145.059 160.06 145.759 159.85 146.549C158.92 150.179 158.54 154.279 158.38 158.019C158.26 160.859 157.25 163.589 156.77 166.359C156.81 166.559 156.84 166.759 156.86 166.979C157.05 169.899 156.16 172.719 156.29 175.619C156.4 178.019 157.22 180.429 157.11 182.829C157.07 183.739 156.77 184.479 156.32 185.049C156.46 185.819 156.34 186.679 155.83 187.549C155.31 188.439 155.33 189.809 155.18 190.819C154.97 192.209 154.61 193.559 154.47 194.949C154.16 198.109 155.16 201.089 156.76 203.789C158.2 206.239 159.97 208.559 162.15 210.399C164.24 212.159 166.56 213.609 168.55 215.509C170.65 217.519 172.64 219.999 172.92 222.989C173.19 225.789 172.08 228.419 170.82 230.849C170.01 232.399 169.14 233.939 168.38 235.529C168.77 236.099 168.98 236.849 168.9 237.769C168.73 239.629 168.7 241.489 168.34 243.329C171.69 242.639 175.08 246.899 171.94 249.619C171.14 250.309 172.78 256.699 173.04 257.959C173.37 259.619 173.85 261.249 174.14 262.909C174.25 263.579 174.31 264.249 174.45 264.919C174.48 265.129 174.53 265.339 174.58 265.549C176.71 266.379 178.83 267.049 181.04 267.639C183.73 268.349 186.54 269.439 187.88 272.059C189 274.229 188.1 276.239 186.39 277.169C187.21 277.749 187.98 278.389 188.64 279.169C190.58 281.449 189.75 284.479 186.98 285.529C188.47 289.239 189.28 293.159 189.87 297.139C190.51 301.459 190.8 305.769 189.95 309.969C190.01 310.139 190.06 310.319 190.11 310.519C190.63 308.349 191.12 306.169 191.6 303.999C192.67 299.209 200.01 301.249 198.94 306.019C197.31 313.299 195.69 320.599 192.89 327.529C193.24 329.569 193.29 331.639 193.15 333.399C193.04 334.719 192.34 335.739 191.41 336.379C191.48 336.639 191.52 336.919 191.54 337.219C191.63 338.729 192.13 340.169 192.3 341.669C192.48 343.339 192.22 344.909 191.99 346.569C191.53 349.999 191.64 353.429 191.85 356.879C192.06 360.299 192.2 363.689 192.3 367.119C192.37 369.719 191.77 372.969 192.42 375.459C192.75 376.719 192.47 377.789 191.86 378.589C191.86 378.699 191.88 378.819 191.88 378.929C191.88 380.929 192.45 382.779 192.37 384.779C192.28 387.169 191.82 389.699 191.49 392.069C190.86 396.449 191.09 400.909 190.36 405.279C189.63 409.659 187.52 413.679 186.98 418.079C186.58 421.289 185.92 424.429 185.24 427.569C185.67 428.309 185.82 429.239 185.56 430.299C183.59 438.169 184.97 446.059 186.88 453.759C187.72 457.109 189.02 459.249 192.3 460.109C192.76 459.859 193.21 459.609 193.69 459.389C194.45 459.059 195.45 458.959 196.15 458.539C197.7 457.619 198.84 455.459 199.79 454.019C202.3 450.189 203.36 445.869 205.63 441.939C205.67 441.869 205.72 441.799 205.77 441.729C206.05 440.799 206.24 439.869 206.3 438.859C206.36 437.869 206.72 437.089 207.26 436.489C207.47 432.889 208.69 429.419 209.74 425.979C211.21 421.169 211.87 416.829 211.64 411.799C211.42 406.949 211.03 402.159 209.82 397.449C208.58 392.629 208.14 388.319 208.17 383.339C208.19 380.469 210.8 379.279 212.96 379.769C213 378.699 213.05 377.619 213.07 376.529C213.19 371.989 213.2 367.459 213.66 362.939C214.12 358.489 214.68 353.969 215.55 349.569C215.87 347.959 216.45 346.359 217.01 344.749C215.06 342.639 216.4 339.859 218.53 338.899C218.57 338.479 218.59 338.059 218.59 337.629C218.5 332.719 226.11 332.729 226.21 337.629C226.25 339.589 225.86 341.409 225.33 343.209C226.34 345.129 226.98 347.249 227.64 349.379C228.19 351.179 229.14 352.769 229.75 354.539C230.5 356.679 230.64 359.139 230.69 361.399C231.43 362.219 231.82 363.369 231.49 364.749C231.19 366.019 231.88 367.599 232.22 368.819C232.66 370.429 233.04 372.049 233.37 373.679C234.05 377.019 234.68 380.409 235.61 383.689C236.04 385.209 236.78 386.149 237.67 387.419C238.7 388.879 239.25 390.419 239.67 392.159C240.52 395.749 241.04 399.409 241.84 403.009C241.99 403.679 241.96 404.289 241.83 404.839C242.16 405.419 242.36 406.069 242.4 406.729C243.01 407.429 243.39 408.349 243.42 409.279C243.43 409.819 243.49 410.359 243.51 410.889C243.83 411.289 244.11 411.749 244.31 412.249C245.47 415.129 246.42 417.989 248 420.679C249.47 423.189 250.88 425.759 252.14 428.379C253.41 431.019 254.07 433.039 256.24 435.079C258.25 436.959 259.86 439.139 261.66 441.189C263.27 443.019 265.2 445.059 267.58 445.839C267.91 445.949 268.25 446.029 268.59 446.099C269.1 445.609 269.74 445.239 270.46 445.039C270.75 444.529 271.17 444.069 271.75 443.709C272.19 443.439 272.68 442.769 273.15 442.129C273 437.779 272.93 433.439 272.9 429.079H272.88L272.83 429.099Z" fill="white"/>
<path d="M190.91 319.669C190.76 319.189 186.98 318.869 186.36 318.939C181.97 319.079 177.56 319.469 173.14 319.639C173.73 320.249 171.77 320.649 172.22 321.369C174.79 321.439 179.66 321.709 180.84 321.189C182.62 320.599 190.81 321.989 190.91 319.649V319.669Z" fill="#1D1D1D"/>
<path d="M301.75 254.359C298.92 240.769 301.15 227.309 299.67 213.619C299.65 211.639 297.53 210.819 296.03 209.809C292.24 207.539 289.57 204.439 286.71 201.209C278.09 188.799 277.95 186.499 263.18 181.269C260.97 169.519 262.95 138.729 250.72 133.319C248.59 132.509 246.71 131.059 244.6 130.459C243.86 128.749 242.05 128.619 240.43 128.079C237.05 127.119 230.06 122.599 226.75 123.209C228.44 125.639 241.22 126.889 239.67 130.679C233.4 145.679 228.39 157.829 211.83 144.399C214.77 138.939 219.29 133.049 221.92 127.029C222.61 125.149 223.74 123.739 225.77 123.429C226.19 123.459 226.41 123.119 226.75 123.209C226.88 123.299 227.14 123.679 227.31 123.679C227.87 123.119 228.67 122.979 229.42 123.349C229.94 123.589 230.08 122.639 230.34 122.429C230.53 122.279 230.78 122.429 230.99 122.429C231.46 122.429 231.75 121.579 232.28 121.849C232.55 121.859 232.66 121.639 232.84 121.429C233.63 120.969 234.23 121.899 234.5 120.369C236.21 111.819 238.9 102.049 238.69 93.259C237.47 86.539 230.08 53.519 215.19 58.399L215.13 58.379C209.93 52.489 201.45 58.509 197.56 63.379C184.36 76.949 183.93 87.739 184.67 105.489C185.14 109.309 180.93 113.399 185.44 115.659C186.66 116.099 187.34 117.189 188.55 117.679C189.72 117.679 190.43 118.389 191.55 118.549C192.12 118.649 192.73 118.629 193.25 118.879C193.69 119.059 193.85 119.669 194.23 119.889C194.49 120.009 194.96 119.239 195.19 119.619C196.08 122.089 192.54 121.969 191.22 123.379C185.64 127.129 178.45 128.589 172.1 130.029C171.57 130.359 171.3 130.739 170.91 131.279C166.34 133.819 161.59 134.679 160.46 140.599C158.91 150.699 157.21 160.679 156.4 170.799C156.78 171.019 157.15 171.249 157.51 171.499C156.91 162.499 159.85 153.609 160.93 144.669C161.43 138.749 162.68 136.989 167.99 134.209C168.58 133.899 169.91 132.469 170.55 132.699C172.21 134.189 172.61 136.779 174.12 138.449C174.47 139.059 174.44 139.769 174.56 140.439C174.67 141.039 175.25 141.459 175.74 142.059C176.38 143.199 177.41 143.949 177.88 145.129C178 145.659 178.07 146.229 178.34 146.709C178.7 147.449 179.64 147.859 180.1 148.499C180.61 149.599 181.54 150.079 182.48 150.729C182.91 151.239 183.09 152.079 183.7 152.539C184.22 153.019 184.95 153.099 185.55 153.379C186.16 153.669 186.29 154.439 186.91 154.999C187.82 156.029 189.51 155.439 190.47 155.699C191.06 155.949 191.63 156.289 192.29 156.329C193.1 156.419 193.84 155.999 194.41 156.019C195 155.999 195.55 156.339 196.14 156.189C196.98 155.999 197.63 155.299 198.35 154.879C199.01 154.469 199.87 154.529 200.64 154.009C201.2 153.649 201.6 153.029 202.07 152.599C202.49 152.189 203.02 152.389 203.68 152.139C204.77 151.719 204.98 150.399 205.66 149.609C206.11 149.109 207.08 148.899 207.62 148.189C208.04 147.739 208.41 146.429 208.94 146.429C209.05 146.439 209.21 146.579 209.26 146.739C209.69 148.789 210.91 149.049 212.65 149.489C214.39 150.679 216 152.399 218.07 152.969C219.21 153.129 219.83 154.129 220.86 154.499C221.97 154.899 222.97 154.499 224.01 154.679C225.46 155.079 226.81 154.309 227.93 153.619C231.66 153.219 233.73 149.299 236.68 147.349C239.06 145.259 239.92 141.959 241.57 139.409C242.17 138.109 241.89 137.209 242.63 135.999C243.58 134.559 242.92 132.809 244.3 131.609C245.73 131.219 247 132.779 248.26 133.249C254.61 135.619 257.31 142.239 258.02 148.449C258.84 156.349 260.59 164.139 261.05 172.089C260.95 176.729 261.22 181.329 262.31 185.859C263.03 192.089 263.04 195.259 261.37 201.249C258.79 204.849 255.33 210.639 252.69 213.739C248.57 218.149 244.74 223.249 241.54 228.319C240.62 229.359 239.44 229.929 238.33 230.719C236.47 231.999 235.19 233.739 233.7 235.319C232.7 236.599 231.89 235.439 230.98 234.489C230.75 234.259 230.47 233.969 230.5 233.639C230.52 233.259 230.85 232.979 231.07 232.659C232.01 231.649 231.39 230.279 231.29 229.099L231.31 229.039C231.58 228.609 232.28 228.689 232.7 228.459C235.88 227.259 231.3 224.299 230.35 222.429C229.72 221.239 229.24 219.789 228.29 219.139C226.33 217.889 222.67 215.589 221.32 214.739C220.8 214.459 220.81 214.109 221.39 213.809C224.32 212.379 226.06 209.359 228.65 207.529C229.65 206.799 230.74 206.179 231.77 205.479C236.88 201.109 241.36 194.659 248.55 193.619C249.53 193.579 250.28 192.669 249.03 192.459C247.38 192.269 243.58 193.889 241.79 194.819C241.13 195.219 240.91 194.839 241.07 194.079C242.66 182.649 244.83 171.359 244.3 159.759C244.21 158.049 245.11 156.599 244.69 154.809C243.97 151.629 243.63 148.489 243.59 145.279C243.26 143.669 242.37 145.649 242.48 146.459C242.18 149.939 244.37 154.349 243.45 157.829C242.77 161.339 243.59 164.959 243.24 168.509C242.78 177.149 240.57 185.659 239.81 194.259C239.83 195.829 240.23 195.869 239.22 196.829C238.89 197.139 238.4 197.559 237.94 197.949C234.58 200.979 231.87 204.649 227.77 206.889C225.05 209.029 222.82 212.029 219.76 213.609C219.44 213.709 219.05 213.639 218.71 213.539C216.53 212.639 210.44 212.739 210.08 210.139C215.57 192.229 214.57 171.559 216.88 153.409C212.82 165.699 214.24 179.959 212.15 192.729C211.63 196.919 210.4 201.059 209.6 205.209C209.27 206.759 209.14 208.319 208.93 209.819C208.82 210.389 208.29 210.229 207.89 210.009C205.75 208.619 202.89 207.719 200.48 207.199C199.81 206.799 199.54 205.919 198.6 205.529C194.89 203.629 190.41 203.869 186.57 201.939C184.09 200.479 181.61 198.699 178.88 197.699C177.86 197.319 176.88 196.539 176.33 195.639C175.42 194.159 176.28 192.949 176.42 190.969C176.47 188.279 177.04 184.799 177.34 181.669C177.53 184.469 178.73 189.189 179.06 192.569C179.3 193.529 178.33 196.629 179.66 196.779C180.53 196.229 179.92 194.749 180 193.819C180.12 180.469 172.82 167.129 176.08 153.909C176.11 152.349 177.06 148.659 175.85 147.529C175.64 147.499 175.51 147.869 175.48 148.509C175.4 149.739 175.36 151.579 175.25 152.849C173.01 160.539 174.78 168.879 175.98 176.669C176.24 182.139 175.41 187.379 174.62 192.709C174.49 193.439 173.78 193.409 173.19 193.229C171.37 192.769 169 192.829 167.6 193.799C167.09 194.109 167.13 194.449 167.84 194.389C174.53 193.239 173.84 195.989 178.45 198.849C182.55 200.439 185.6 204.239 190.14 204.799C192.57 205.149 194.87 205.989 197.15 206.799C197.75 206.959 197.42 207.249 196.96 207.539C191.4 211.219 189.05 218.409 186.06 224.009C185.88 224.719 186.69 224.959 186.11 225.279C185.55 225.549 184.63 225.729 184.1 225.609C183.42 225.429 183.18 224.709 182.64 224.329C180.44 222.679 175.11 222.809 173.26 219.789C166.88 211.409 154.3 207.269 154.95 195.499C155.08 193.779 156.07 190.059 156.54 188.549C156.05 188.879 155.29 191.469 154.81 191.799C154.51 192.839 154.2 193.899 153.93 195.009C153.23 202.559 158.42 208.469 164.13 212.659C166.7 215.399 173.68 218.679 172.21 223.179C169.98 232.329 163.42 239.889 164.61 249.939C164.83 251.359 164 251.529 162.64 251.839C157.01 254.129 153.77 260.069 154.5 265.779C153.96 267.579 153.17 273.319 151.08 273.169C141.45 272.249 131.45 273.599 123.17 278.449C123.16 279.259 123.14 280.059 123.12 280.869C131.61 275.819 142.13 273.279 151.66 275.239C151.43 283.859 154.26 292.329 155.27 300.909C155.88 307.619 163.64 305.689 168.33 305.369C173.2 304.699 178.34 305.769 183.01 304.569C180.25 300.849 158.89 307.439 159.66 301.629C166.46 295.639 175.54 304.499 182.89 300.409C179.34 299.139 173.16 300.239 169.56 298.059C169.21 297.769 169.72 297.939 170.03 297.939C173.59 298.579 179.25 299.479 182.48 298.139C184.79 296.839 179.88 297.549 179.28 297.419C171.28 296.429 162.47 293.739 156.23 298.999C153.63 287.349 151.76 278.499 155.69 266.809C156.09 259.909 157.91 255.909 164.42 252.749C166.19 256.119 165.79 261.749 168.93 264.409C169.02 264.719 168.59 265.009 168.49 265.259C168.89 266.159 170.72 265.789 171.62 266.169C174.58 266.819 177.26 269.449 179.95 270.219C181.57 271.019 186.18 270.529 185.17 273.179C180.93 287.649 186.07 302.309 189.23 316.459C190.05 339.169 191.09 363.069 191.99 385.009C190.08 391.239 191.11 398.179 189.65 404.329C186.16 413.079 179.22 458.029 191.09 460.429C202.17 461.449 208.74 434.989 210.15 425.999C212.1 418.659 213.66 410.099 211.33 402.679C211.43 396.569 207.81 388.339 208.59 382.049C206.15 379.769 207.29 391.139 207.26 392.279C207.36 394.959 209.14 397.049 209.46 399.639C210.17 404.169 208.52 409.009 208.69 413.589C208.59 413.829 207.86 420.849 206.87 419.029C203.72 414.349 194.66 412.349 190.67 416.189C190.3 416.539 189.74 417.069 189.41 416.449C187.94 411.799 190.83 407.589 191.68 403.149C192.32 399.239 191.75 395.499 192.3 391.539C192.81 388.529 193.94 384.959 193.9 382.009C197.91 382.839 202.39 383.889 206.71 383.359C210.59 383.459 214.25 385.409 213.69 379.729C213.25 365.999 218.39 352.399 220.63 339.199C223.51 345.319 223.92 353.169 226.24 359.669C226.72 361.709 228.18 362.119 230 362.329C233.75 370.309 231.01 382.539 238.6 389.209C242.16 406.969 245.26 426.979 259.11 439.879C262.96 445.949 269.73 450.459 273.34 441.809C274.65 425.729 273.82 412.479 267.3 398.979C264.28 392.319 263.2 384.219 257.07 379.549C255.46 378.469 256.1 376.299 255.67 374.649C255.2 372.229 252.14 363.319 250.51 361.549C247.37 359.779 252.52 368.569 252.86 369.449C254.14 372.239 254.05 375.789 254.91 378.629C257.95 383.649 262.5 387.639 263.03 393.849C263.17 394.639 263.12 395.499 262.06 395.199C246.2 391.199 248.38 421.039 239.98 389.579C239.84 388.949 240.2 388.689 240.05 388.079C239.93 387.719 239.7 387.479 239.41 387.189C232.71 381.169 234.9 369.869 231.24 362.059C233.68 361.619 236.93 362.269 239.4 362.659C242.28 363.549 244.94 365.089 248.09 363.949C252.88 362.789 252.02 358.269 251.36 354.659C251.54 351.379 240.96 316.739 248.36 322.619C250.07 327.189 249.53 336.179 255.42 337.639C262.27 333.469 256.59 321.129 260.29 320.979C269.28 320.159 278.26 317.839 287.39 319.169C288.28 343.439 286.38 369.379 288.43 393.949C288.74 394.829 289.65 395.079 290.36 395.539C291.74 397.079 293.56 397.639 294.44 395.409C294.7 394.279 295.74 394.309 296.4 393.229C296.83 392.539 296.97 391.719 297.09 390.919C300.86 367.189 299.19 342.509 302 318.789C307.3 308.879 309.43 296.139 309.61 284.789C310.32 273.829 304.41 264.599 301.68 254.409V254.349L301.75 254.359ZM228.76 102.969L228.74 102.989C228.46 103.159 227.58 103.519 227.4 103.479C227.39 103.449 227.37 103.399 227.37 103.369C227.54 102.399 228.24 101.499 228.31 100.489C228.31 100.329 228.33 100.189 228.4 100.199C228.97 100.499 228.92 102.389 228.76 102.969ZM193.32 99.949C192.87 99.709 191.78 99.309 191.44 98.849C191.32 98.339 191.73 97.069 192.03 96.459C192.3 95.929 192.62 95.319 192.83 96.189C193.11 97.349 193.12 98.809 193.35 99.939H193.33L193.32 99.949ZM193.44 94.359C194.78 89.639 194.41 83.149 197.12 79.189C197.39 78.779 197.79 78.559 198.26 78.519C198.99 78.529 199.83 78.039 200.58 77.869C200.93 77.809 201.22 77.919 201.55 77.879C201.87 77.849 202.58 77.309 203.16 77.319C204.17 77.279 205.33 77.269 206.27 77.509C206.71 77.579 207.17 77.329 207.58 77.309C207.81 77.299 207.99 77.419 208.23 77.499C208.6 77.649 209.04 77.449 209.43 77.489C209.73 77.489 209.99 77.569 210.24 77.489C210.46 77.439 210.66 77.179 210.79 76.959C212.08 74.999 212.29 72.439 212.64 70.199C212.76 70.219 212.81 70.469 212.88 70.639C213.37 72.119 214.43 74.349 215.1 75.579C215.21 75.769 215.38 76.009 215.57 76.099L215.63 76.119C215.84 76.189 216.01 76.059 216.2 76.019C216.67 75.929 217.02 76.869 217.42 77.079C217.72 77.279 217.76 76.679 217.98 76.849C218.19 76.979 218.6 77.769 218.95 78.019C219.14 78.169 219.37 78.209 219.6 78.259C220.49 78.459 221.12 79.009 221.98 79.419C222.71 79.799 223.3 80.369 223.97 80.779C224.15 80.839 224.14 80.819 224.22 80.829C224.71 80.779 225.23 80.649 225.6 81.089C225.84 81.319 226.01 81.619 226.24 81.859C226.44 82.089 226.64 82.059 226.85 82.009C227.37 81.849 227.52 82.719 227.7 83.079C227.94 83.719 228.37 83.969 228.62 84.409C228.82 84.769 228.88 85.229 228.91 85.649C229.11 88.409 229.25 93.649 228.97 96.379C228.67 98.029 227.43 99.339 227.03 101.029C226.38 102.969 225.93 105.109 225.24 107.029C224.62 108.749 223.84 110.309 222.41 111.419C218.12 114.459 209.2 117.649 204.43 114.539C202.2 113.259 199.26 111.059 197.54 109.319C196.74 108.509 196.33 107.979 195.94 107.069C194.45 103.249 194.17 98.379 193.43 94.339V94.369L193.44 94.359ZM201.13 149.399C198.72 151.139 194.17 151.979 191.33 152.069C190.83 152.079 190.38 152.029 189.92 151.879C185.14 149.909 179.96 143.559 177.83 139.709C176.57 137.219 175.87 134.429 174.53 131.989C174.41 131.739 174.35 131.509 174.39 131.339C174.45 131.029 174.87 130.869 175.2 130.779C179.11 129.679 183.36 128.709 187.14 127.059C188.79 126.329 190.32 125.539 191.71 124.399C192.54 123.749 193.49 123.009 194.54 122.779C194.75 122.749 194.91 122.769 194.98 122.859L195.01 122.909C195.12 123.139 194.94 123.539 194.84 123.829C192.01 132.239 202.31 138.429 206.52 143.939C208.44 146.319 202.49 148.129 201.14 149.399H201.13ZM208.57 144.709C208.39 144.579 208.27 144.279 208.12 144.089C207.89 143.729 207.43 143.229 207.09 142.869C204.07 139.699 202.31 137.859 199.95 135.209C191.13 125.249 197.53 128.629 196.74 115.229C196.65 113.629 196.5 112.279 196.27 110.669C196.24 110.349 196.25 110.099 196.38 110.019C196.61 109.829 197.28 110.339 197.78 110.799C205.17 119.329 213.2 117.889 222.42 113.089L222.45 113.109C222.53 113.189 222.51 113.409 222.43 113.709C221.36 117.299 221.33 121.269 222.03 124.879C222.05 125.389 221.65 125.729 221.4 126.239C218.18 131.659 210.53 145.859 208.57 144.719V144.709ZM165.04 297.379H165.05C163.46 297.919 159.46 299.249 158.16 300.179C159.04 297.989 162.8 297.589 165.04 297.379ZM191.82 416.669C195.9 414.659 202.77 415.739 205.21 419.799C206.18 421.499 205.39 423.499 204.86 425.259C204.54 426.079 204.53 426.929 204.24 427.649L204.2 427.679C204.06 427.799 203.79 427.659 203.42 427.379C202.9 426.999 202.46 426.609 201.95 426.329C201.19 425.939 200.85 425.689 201.81 425.059C203.81 423.839 205.54 420.149 201.86 420.559C201.63 420.569 201.12 420.709 200.87 420.859C200.38 421.129 199.4 421.729 198.6 422.209C197.87 422.649 197.52 422.959 197.19 422.089C196.06 418.159 191.19 418.079 192.32 422.139C192.51 422.799 192.91 423.539 193.24 424.079C193.36 424.259 193.36 424.469 193.33 424.499C192.98 424.939 191.51 425.139 190.95 425.339C190.36 425.489 190.25 425.099 190.24 424.499C190.22 423.809 190.18 423.099 190.14 422.399C190.01 419.899 189.97 417.819 191.82 416.679V416.669ZM189.42 419.049C189.52 419.729 189.14 420.819 189.1 421.669C189.01 422.759 189.01 423.959 189.04 425.099C189.13 427.119 189.64 426.959 191.8 426.529C192.38 426.509 194.81 425.619 193.82 426.909C190.92 430.669 191.72 435.709 190.99 440.199C190.85 440.889 190.96 441.659 191.79 441.149C194.83 440.299 196.52 423.469 198.22 428.569C199.33 432.359 197.52 436.759 197.83 440.629C197.88 441.019 197.96 441.659 198.35 441.699C198.53 441.699 198.75 441.499 198.98 441.169C199.52 440.389 200.13 438.899 200.55 437.919C201.78 435.239 202.48 432.279 201.98 429.339C201.66 427.489 202.84 428.619 203.64 429.479C205.11 430.979 205.6 428.039 205.75 427.029C205.96 425.559 206.26 424.309 206.71 422.899C207.01 421.999 207.86 421.609 208.29 420.759C210.06 417.479 209.91 412.339 210.69 408.849C211.06 414.869 210.1 420.839 208.27 426.619C206.43 438.389 202.65 450.249 194.27 459.089L194.19 459.139C192.76 459.919 190.21 458.569 188.97 457.429C188.45 456.919 188.23 456.259 188.06 455.579C186.6 449.839 185.46 442.899 186.02 436.979C186.44 435.049 187.06 433.049 187.2 431.039C187.65 426.639 187.2 422.109 187.74 417.699C187.81 417.419 187.85 416.909 188.14 417.189C188.55 417.799 189.25 418.419 189.41 419.039H189.43L189.42 419.049ZM205.43 229.889L205.39 229.919C199 229.379 192.63 228.419 186.85 231.629C186.14 231.999 184.86 232.519 184.18 232.299C183.98 232.229 183.95 232.069 184.07 231.879C186.51 229.589 190.01 229.069 193.04 227.809C193.3 227.699 194.09 227.369 193.65 227.159C192.11 226.619 183.17 230.429 182.33 232.619C182.35 233.169 182.33 233.359 181.75 233.729C180.69 234.419 178.37 235.969 177.55 236.489C177.27 236.649 177.16 236.599 177.33 236.229C177.81 235.179 178.94 234.269 179.86 233.529C181.66 232.059 183.24 230.179 185.11 228.689C185.38 228.419 186.17 227.939 185.95 227.589C184.73 226.999 178.15 233.349 176.12 235.099C175.94 235.139 176.19 234.729 176.3 234.559C177.55 232.419 180.49 230.589 181.81 228.459C182.26 227.419 181.15 228.099 180.1 229.059C178.54 230.359 176.9 232.569 175.3 233.609C176.25 231.589 178.47 230.489 179.45 228.499C179.97 227.559 180.79 226.799 181.93 226.779C185.2 226.479 188.35 225.659 191.25 224.229C193.29 223.029 195.65 224.029 197.83 224.269C198.52 224.359 199.26 224.219 199.92 224.389C200.56 224.559 206.02 229.119 205.42 229.879L205.43 229.889ZM228.86 232.199C227.17 231.979 226.8 230.019 225.72 228.949C225.35 228.629 223.04 225.239 222.89 226.449C222.86 226.789 223.05 227.219 223.24 227.539C224.43 229.519 227.68 232.429 226.67 234.339C226.47 234.729 226.08 235.039 225.63 235.059C223.61 234.829 222.18 232.239 220.91 230.849C220.31 230.119 219.77 229.519 219.56 229.579C219.5 229.599 219.48 229.689 219.5 229.829C219.87 231.599 223.11 233.769 222.4 235.559C221.82 235.769 221.14 235.119 220.59 234.919C219.6 234.409 218.15 234.099 217.45 233.499C216.62 232.659 215.78 231.189 214.48 231.159C213.83 231.279 215.29 232.739 215.06 232.959C213.85 232.819 212.62 232.079 211.46 231.599C210.45 231.129 209.36 231.119 208.34 230.709C207.13 230.239 205.9 228.829 204.97 227.919C203.71 226.579 202.2 225.499 200.99 224.079C198.84 221.419 197.92 219.839 195.27 219.019C194.26 218.679 192.72 218.469 191.42 218.399C190.99 218.379 190.34 218.259 190.28 217.919C190.24 217.069 190.84 216.279 191.35 215.229C192.96 212.569 195.56 208.659 198.56 207.829C203.33 207.449 208 210.829 212.15 212.779C212.81 213.099 213.56 213.219 214.31 213.269C219.12 213.539 222.71 216.599 226.75 218.939C227.26 219.239 227.76 219.559 228.14 219.989C229.13 221.109 229.54 222.899 230.57 224.109C231.44 225.199 232.92 226.069 233.03 226.699C233.12 227.419 230.96 227.909 230.3 227.569L230.22 227.529C229.9 227.339 229.67 226.949 229.49 226.599C227.85 223.379 225.46 220.589 222.46 218.559C220.83 217.889 225.26 221.999 225.42 222.199C226.88 223.759 227.68 225.849 228.82 227.629C229.5 228.759 230.79 230.039 230.68 231.409C230.51 232.139 229.52 232.309 228.85 232.229H228.84L228.86 232.199ZM248.01 405.779C250.09 401.079 254.94 394.919 260.74 395.819C262.43 396.429 263.05 398.649 263.5 401.099C263.86 403.369 264.27 406.029 265.17 407.979V408.029C265.11 408.199 264.95 408.229 264.75 408.289C264.01 408.459 262.3 408.809 261.48 408.969C261.19 409.019 260.83 409.059 261.03 408.649C262.07 406.649 263.96 402.559 261.51 401.929C259.48 401.489 258.85 404.139 258.44 405.569C258.26 406.179 258.15 406.679 257.96 406.699C257.77 406.729 257.45 406.309 256.98 405.909C255.7 404.889 253.8 403.989 252.09 404.259C250.12 404.569 250.2 407.429 251.73 408.359C252.66 409.069 253.87 409.449 254.95 409.859C255.56 410.079 256.03 410.299 255.86 410.559C254.51 411.599 252.8 412.349 251.31 413.179C250.78 413.469 250.24 413.389 250.05 412.779C249.54 410.999 248.89 408.929 248.04 407.309C247.82 406.819 247.8 406.289 248.01 405.779ZM243.56 403.669C244.53 405.089 246.03 406.089 247.12 407.369C248.33 409.419 249.14 414.299 249.7 415.649C250.1 416.369 250.7 415.589 251.24 414.809C251.82 413.879 252.69 413.259 253.68 412.769C254.75 412.239 255.86 411.619 255.68 413.019C255.41 415.639 255.74 418.349 256.79 420.789C257.41 421.969 257.59 423.299 258.31 424.459C258.96 425.269 259.69 424.209 259.81 423.569C260.4 420.319 258 416.139 258.94 412.819C259.01 412.599 259.11 412.489 259.23 412.509C259.49 412.559 259.75 413.029 259.91 413.309C261.42 416.139 261.63 419.279 262.02 422.349C263.29 434.779 268.32 415.739 262.13 410.519C261.87 410.189 262.07 410.049 262.71 409.879C263.77 409.599 265.55 409.189 266.59 408.869C266.73 408.809 266.8 408.759 266.82 408.669C266.5 407.129 264.11 399.559 263.67 397.869C263.53 397.269 264.5 397.029 264.82 397.549C265.48 399.179 265.88 400.929 266.61 402.619C268.27 407.029 270.43 411.379 271.4 415.989C272.72 423.319 271.22 433.139 272.08 440.869C272.32 442.729 270.56 443.899 268.98 444.569C267.87 445.079 266.63 444.939 265.56 444.279C263.17 442.839 261.75 439.949 259.8 438.049C256.79 435.149 253.97 432.079 252.6 428.199C252.33 427.529 251.99 426.909 251.59 426.309C247.39 419.739 244.94 412.139 242.93 404.669V404.589C242.83 403.409 242.74 402.589 243.58 403.689L243.56 403.669ZM241.55 291.179C240.6 288.159 239.31 284.099 238.53 281.609C238.38 281.059 238.21 280.859 238.46 280.559C238.6 280.379 238.93 280.089 239.15 279.879C241.04 278.099 242.61 275.829 243.94 273.589C244.78 272.249 245.17 270.729 246.54 269.769C249.77 267.599 253.47 265.559 255.07 261.969C255.41 261.129 255.87 260.929 256.64 261.419C259.15 262.799 262.62 264.449 264.39 266.109L264.46 266.179C269.71 272.019 270.44 281.949 270.89 289.559C270.89 289.819 270.84 290.019 270.72 290.109C260.82 286.949 253.34 291.039 243.7 293.539C243.33 293.619 242.58 293.849 242.4 293.649C242.13 293.189 241.99 292.389 241.56 291.169L241.55 291.179ZM255.4 336.529C255.11 336.659 254.38 336.549 254.51 336.169C254.84 335.949 255.52 335.799 255.9 335.859L255.93 335.889C256.14 336.179 255.7 336.449 255.4 336.529ZM257.09 332.959C257.1 333.589 257.03 333.819 256.37 334.039C255.64 334.269 254.77 334.249 254.02 334.259C253.57 334.229 253.33 334.339 253.13 334.079C252.73 332.839 249.45 322.389 249.24 321.669C249.27 321.489 249.53 321.579 249.87 321.539C251.87 321.449 255.6 321.179 257.53 321.129H257.55C257.55 323.779 257.18 330.249 257.11 332.969H257.1L257.09 332.959ZM292.63 395.669C291.84 395.389 292.98 394.509 293.22 394.739C293.19 395.129 293.06 395.829 292.63 395.669ZM295.19 391.479C295.1 392.479 294.48 392.879 293.4 392.869C292.73 392.919 292.06 392.989 291.41 393.139C290.73 393.329 290.09 393.249 290.09 392.359C290.09 368.309 288.04 343.449 289.57 319.669C290.59 318.739 293.45 320.189 297.16 319.849C297.68 319.799 298.25 319.729 298.72 319.619C299.09 319.549 299.44 319.429 299.7 319.609L299.74 319.649C297.51 343.339 298.73 367.889 295.2 391.469L295.19 391.479ZM301.49 316.219C300.35 318.889 296.29 318.449 293.86 318.159C291.18 317.759 288.58 317.009 285.9 317.019C272.43 316.669 258.75 319.639 245.4 319.889C245.16 318.019 242.89 297.819 242.59 295.249C242.52 294.749 243.49 294.969 244 294.859C253.18 294.499 261.03 287.469 270.71 291.639C271.52 292.449 271.29 293.459 270.16 293.059C263.68 290.789 256.8 293.489 250.62 295.349C249.06 295.699 244.64 295.499 244.32 297.319C244.32 297.809 245.05 297.999 245.54 297.979C253.3 298.099 262.32 291.519 270.12 294.689L270.07 294.439C270.13 294.859 269.13 296.029 268.93 296.589C265.57 299.279 258.83 300.419 255.61 301.079C252.48 301.609 244.32 301.749 244.5 303.479C244.54 303.749 244.83 303.939 245.23 303.949C252.06 302.659 267.72 301.749 270.46 295.369C270.63 295.119 270.83 295.059 270.97 295.269C271.14 295.489 271.16 296.029 270.92 296.489C265.99 303.399 254.8 301.919 247.73 304.909C247.04 305.189 246.1 305.759 245.93 306.469C245.78 307.239 246.72 307.279 247.26 307.069C250.71 305.609 254.6 304.989 258.36 304.279C265.91 302.849 270.12 300.969 272.87 293.879C273.19 292.199 272.18 290.089 272.45 288.319C272.86 283.869 271.01 277.089 270.23 272.729C270.34 272.389 271.02 272.439 271.4 272.499C279.85 273.569 288.57 273.699 296.68 276.679C296.99 276.799 297.28 276.909 297.56 277.069C298.33 277.499 298.95 278.559 299.91 278.129C301.56 276.699 298.22 275.119 294.81 274.079C286.47 271.579 271.82 269.879 270.05 271.949C269.98 272.009 269.91 272.009 269.82 271.899C269.71 271.789 269.57 271.539 269.39 271.199C266.5 265.569 263.35 262.989 257.5 260.469C256.63 260.139 255.98 259.519 256.17 258.539C258.01 248.679 254.77 239.339 249.5 231.069C248.52 228.839 248.31 225.929 247.13 224.069C246.62 223.299 246.81 222.599 247.43 221.819C259.57 207.219 266.74 204.259 263.79 183.969C263.78 183.629 263.72 183.389 264.02 183.299C264.51 183.429 265.75 184.169 266.52 184.399C281.95 188.379 281.83 204.499 296.95 212.839C297.71 213.319 298.18 213.869 298.33 214.669C299.95 227.659 296.81 239.949 299.59 253.169C300.36 257.099 301.8 260.829 303.29 264.529C311.03 280.649 307.55 300.159 301.52 316.189L301.5 316.219H301.49Z" fill="#1D1D1D"/>
<path d="M187.44 311.369C186.64 312.719 176.26 307.669 175.48 307.669C171.67 306.549 167.21 307.379 163.38 307.029C161.89 306.709 162.48 306.109 163.91 305.989C165.79 305.789 167.67 305.819 169.53 305.889C171.36 305.989 173.36 306.019 175.12 306.499C178.19 307.219 180.97 308.939 183.92 309.709C184.97 310.059 187.43 309.859 187.44 311.309L187.42 311.359L187.44 311.369Z" fill="#1D1D1D"/>
<path d="M209.78 173.149C212.89 172.289 213.03 177.259 210.55 177.979C207.1 178.869 206.72 173.999 209.67 173.179L209.78 173.149Z" fill="#1D1D1D"/>
<path d="M211.42 153.249C214.57 153.409 215.29 158.009 211.71 157.549C209.37 157.399 208.86 153.559 211.31 153.249H211.42Z" fill="#1D1D1D"/>
<path d="M206 197.659C204.77 196.259 206.86 193.279 208.56 194.599C210.71 196.259 207.89 199.649 206.06 197.739L205.99 197.669L206 197.659Z" fill="#1D1D1D"/>
<path d="M218.3 105.059C218.04 105.329 217.05 105.259 216.51 105.499C214.53 106.889 211.78 107.419 209.33 106.849C207.96 106.439 205.53 105.549 204.18 104.629C203.87 104.379 204.16 104.119 204.28 103.889C204.28 103.839 204.31 103.839 204.24 103.779C203.89 103.639 202.64 103.699 202.14 103.549C201.68 103.459 201.49 103.339 201.54 103.219C202.46 102.489 204.42 102.929 205.54 102.569C206.82 102.189 208.43 101.569 209.81 102.049C210.39 102.239 210.99 102.329 211.61 102.329C213.27 102.309 214.48 103.729 215.95 104.219C216.43 104.439 218.42 104.309 218.34 105.019L218.31 105.059H218.3ZM212.89 103.649C212.43 102.929 211.22 103.319 210.49 103.229C209.61 103.159 208.57 102.339 207.66 102.789C207.61 102.889 207.87 103.029 208.05 103.119C209.46 103.809 211.4 103.689 212.87 103.679L212.89 103.649ZM214.74 104.919C212.83 104.589 206.96 104.109 205.75 103.949C207.75 105.779 212.34 106.629 214.71 104.949L214.74 104.919Z" fill="#1D1D1D"/>
<path d="M208.3 82.2987C206.08 82.1187 204.06 80.8187 201.79 81.4587C200.9 81.6687 199.99 82.3987 199.08 82.5487C198.28 82.6987 198.2 81.9887 198.65 81.5387C199.96 80.1187 202.6 79.6187 204.53 79.9787C205.27 80.0487 209.03 81.4887 208.37 82.2787L208.31 82.2987H208.3Z" fill="#1D1D1D"/>
<path d="M207.64 86.6488C208.41 87.5088 204.91 88.2487 203.87 88.2487C202.97 88.1787 199.24 87.6088 199.25 86.6088C199.28 86.2088 199.77 85.8587 200.16 85.8787C201.17 85.9687 203 86.7287 204.21 86.8087C205.29 86.9087 206.53 86.4088 207.58 86.6188L207.65 86.6488H207.64Z" fill="#1D1D1D"/>
<path d="M225.95 90.3391C225.64 91.2191 215.89 90.0891 217.47 87.7591C217.98 87.7391 220.14 88.5691 221.46 89.0091C222.64 89.5191 224.37 89.3291 225.68 89.8691C225.95 89.9991 226.02 90.1691 225.97 90.2891L225.95 90.3291V90.3391Z" fill="#1D1D1D"/>
<path d="M226.76 85.8694C226.64 85.9594 226.38 85.8694 226.16 85.6594C223.9 83.0494 222.35 82.3194 218.93 83.3894C218.61 83.4894 218 83.5394 217.9 83.3094C217.33 82.4894 222.92 80.4394 225.75 83.7394C226.25 84.3794 226.8 85.0394 226.8 85.8294L226.76 85.8694Z" fill="#1D1D1D"/>
<path d="M215.9 84.0893C214.76 86.7493 213.65 89.5593 213.51 92.4993C213.24 93.0193 212.7 92.6493 212.82 92.1493C212.96 89.3993 213.33 85.4693 215.88 84.0693L215.9 84.0893Z" fill="#1D1D1D"/>
<path d="M207.59 94.1389C207.4 94.7089 206.85 95.3289 206.61 95.9189C206.29 96.5089 206.26 97.1889 206.35 97.8289C206.33 97.9089 206.26 97.9589 206.17 97.9689C205.16 97.9389 204.97 96.9289 205.32 95.9789C205.67 94.9989 206.58 93.9389 207.57 94.1089L207.59 94.1589V94.1389Z" fill="#1D1D1D"/>
<path d="M215.9 97.7087C216.17 97.3487 216.14 96.5787 216.07 96.1187C216.04 95.6387 215.87 95.1887 216.34 95.2087C217.87 95.5687 217.11 98.7287 215.64 98.9687C214.21 99.1087 215.48 98.0987 215.86 97.7587L215.91 97.6986L215.9 97.7087Z" fill="#1D1D1D"/>
<path d="M207.84 97.3389C207.66 96.7489 208.25 96.2689 208.81 96.1989C209.46 96.0189 210.13 96.5889 209.65 97.1589C209.23 97.4989 208.35 97.3989 207.89 97.3789L207.86 97.3389H207.84Z" fill="#1D1D1D"/>
<path d="M214.26 96.9594C214.82 97.8494 213.46 98.1494 212.9 97.8694C212.22 97.1394 213.7 96.1994 214.24 96.9094L214.27 96.9594H214.26Z" fill="#1D1D1D"/>
<path d="M108.54 284.689C108.72 296.039 110.85 308.779 116.15 318.689C118.95 342.409 117.28 367.099 121.05 390.829C121.17 391.629 121.31 392.439 121.74 393.139C122.41 394.219 123.44 394.189 123.7 395.319C124.58 397.549 126.4 396.989 127.77 395.449C128.48 394.979 129.4 394.739 129.7 393.859C131.74 369.289 129.85 343.349 130.74 319.079C139.86 317.749 148.85 320.079 157.84 320.889C161.54 321.039 155.85 333.379 162.71 337.549C168.6 336.089 168.06 327.099 169.77 322.529C171.98 320.769 171.37 320.639 175.72 321.459C175.8 321.009 181.71 320.819 175.8 321.009C175.75 321.009 168.4 319.969 169.77 322.519C169.63 320.619 177.98 321.809 178.2 319.859C164.92 319.569 145.69 316.609 132.3 316.959C129.62 316.959 127.01 317.699 124.34 318.099C121.91 318.389 117.86 318.819 116.71 316.149C110.69 300.119 107.21 280.609 114.94 264.499C116.43 260.789 117.87 257.069 118.64 253.139C121.42 239.919 118.28 227.629 119.9 214.639C120.05 213.829 120.52 213.279 121.28 212.809C136.41 204.469 136.29 188.349 151.71 184.379C151.93 184.309 152.2 184.199 152.47 184.069C153.57 183.239 154.82 182.619 156.15 182.319C156.27 182.289 156.4 182.269 156.53 182.249C156.64 181.499 156.75 180.749 156.82 179.989C156.29 179.959 156.42 179.159 155.89 179.049C155.82 179.549 155.09 180.769 155 181.219C140.23 186.459 140.09 188.759 131.47 201.169C128.62 204.409 125.94 207.499 122.15 209.769C120.66 210.769 118.54 211.599 118.51 213.579C117.03 227.269 119.25 240.719 116.43 254.319C113.7 264.509 107.79 273.729 108.5 284.689H108.54ZM162.3 335.839L162.33 335.809C162.71 335.749 163.39 335.899 163.72 336.119C163.84 336.499 163.12 336.609 162.83 336.479C162.53 336.399 162.09 336.129 162.3 335.839ZM160.68 321.079H160.7C162.62 321.109 166.35 321.389 168.36 321.479C168.7 321.529 168.95 321.429 168.99 321.609C168.78 322.329 165.5 332.779 165.1 334.019C164.91 334.279 164.66 334.169 164.21 334.199C163.47 334.189 162.59 334.209 161.86 333.979C161.21 333.769 161.13 333.539 161.14 332.909C161.06 330.189 160.7 323.709 160.7 321.079H160.69H160.68ZM125 394.679C125.23 394.449 126.38 395.329 125.59 395.609C125.16 395.759 125.03 395.069 125 394.679ZM118.49 319.599L118.52 319.559C118.78 319.379 119.13 319.499 119.5 319.569C119.97 319.669 120.55 319.749 121.06 319.799C124.77 320.139 127.63 318.679 128.65 319.619C130.19 343.399 128.13 368.259 128.13 392.309C128.13 393.209 127.48 393.279 126.81 393.089C126.16 392.949 125.49 392.869 124.82 392.819C123.74 392.819 123.12 392.429 123.03 391.429C119.51 367.849 120.73 343.289 118.49 319.609V319.599Z" fill="#1D1D1D"/>
<path d="M155.67 182.979C156.45 187.019 154.93 190.369 153.96 194.339C153.26 201.889 158.45 207.799 164.16 211.989C166.01 213.959 170.12 216.199 171.76 218.969C172.08 218.779 172.95 219.889 173.29 219.709C166.97 211.999 155.24 206.269 154.99 194.819C154.93 192.059 156.39 189.979 156.72 187.709C157.48 182.339 157.31 176.699 157.58 171.299C158.05 163.969 157.51 173.029 160.21 149.069C159.83 149.149 159.45 149.219 159.07 149.299C157.6 158.869 156.27 168.399 156.02 178.129C155.83 180.149 155.87 181.089 153.62 181.579C153.06 181.709 152.55 182.179 151.99 182.309C152.05 182.709 152.04 182.769 152.05 183.169C153.68 182.489 155.18 182.069 155.68 182.939V182.959L155.67 182.979Z" fill="#1D1D1D"/>
<path d="M299.61 245.959C299.65 246.279 299.68 246.599 299.7 246.909V246.999C303.21 247.189 306.74 246.289 310.26 246.369C319.51 246.209 328.76 247.789 337.99 247.919C338.2 247.899 338.38 247.879 338.55 247.859C338.44 247.769 338.31 247.679 338.2 247.589C337.83 247.289 337.47 246.969 337.11 246.649C325 245.889 312.99 244.609 300.83 245.939C300.41 245.989 300 245.979 299.6 245.949L299.61 245.959Z" fill="#1D1D1D"/>
<path d="M119.06 246.109C119.03 246.429 118.99 246.749 118.97 247.059V247.139C115.46 247.329 111.93 246.429 108.41 246.519C99.1603 246.359 89.9103 247.939 80.6803 248.069C80.4703 248.049 80.2903 248.029 80.1203 248.009C80.2303 247.919 80.3603 247.829 80.4703 247.739C80.8403 247.439 81.2003 247.119 81.5603 246.799C93.6703 246.039 105.68 244.759 117.84 246.089C118.26 246.139 118.67 246.139 119.07 246.099L119.06 246.109Z" fill="#1D1D1D"/>
</svg>
