<svg xmlns="http://www.w3.org/2000/svg" width="250" height="503" fill="none"><path fill="#F4F4F4" d="M40.341 397.152c-17.168-3.238-28.894-7.536-34.5-13.882-.015-8.563-1.438-17.046 13.95-23.007 15.386-5.958 36.384-9.878 57.193-13.53 18.657-3.275 38.057-6.483 59.255-7.116 21.192-.634 44.82 1.819 57.415 7.843 8.502 4.071 21.841 6.398 27.441 10.983 7.001 6.933 9.425 8.43 16.502 15.847 7.511 4.946 8.865 12.278 3.253 17.334-4.268 3.85-14.074 6.695-25.014 8.442-10.94 1.747-23.062 2.526-35.039 3.283-19.001 1.203-38.298 2.382-57.883 2.112-17.707-.242-34.867-2.278-51.851-4.044-10.56-1.099-20.984-2.429-30.722-4.265Z"/><path fill="#191919" d="M112.794 337.65c.683.025 1.354.038 2.025.05-2.77-.211-5.539-.36-8.321-.397 2.098.136 4.197.248 6.284.335l.012.012Z"/><path fill="#fff" d="M249.062 289.812a14.105 14.105 0 0 1-.609-3.366c-.099-2.161-.049-4.309-.012-6.47.012-1.056.037-2.124 0-3.192 0-.149-.075-1.18-.099-1.615-.112-.559-.323-1.838-.361-2.012-.149-.795-.285-1.577-.434-2.372-.348-1.788-.708-3.564-1.18-5.328a58.491 58.491 0 0 0-.87-2.881c-.124-.385-.285-.832-.322-.957-.944-2.322-1.988-4.607-2.944-6.917-1.416-3.466-2.658-6.955-3.428-10.619a14.102 14.102 0 0 1-.261-4.235c-.074-.174-.136-.336-.211-.497-1.515-3.838-1.391-8.11-1.266-12.159.099-3.527.037-7.179.546-10.668 0-.063.012-.087.025-.137-.025-.124-.037-.261-.075-.447-.198-1.441-.484-2.906-.571-4.359-.099-1.776.174-3.54.373-5.316.186-1.652.36-3.304.372-4.968 0-.099-.012-.484-.025-.844-.049-.199-.074-.472 0-.448 0-.173 0-.285.013-.273-.745-1.999-1.093-4.024-1.019-5.949a79.072 79.072 0 0 1-6.644-2.807c-3.08-1.49-5.129-4.048-6.272-7.029-2.708-2.944-4.931-6.384-7.154-9.688a250.549 250.549 0 0 0-2.558-3.75c-.398-.572-.808-1.13-1.205-1.702-2.186-1.987-4.049-4.508-6.197-6.595 0 0-.013 0-.025-.012-.584-.335-1.13-.72-1.714-1.043-.025-.013-.087-.05-.174-.1.397.274-1.354-.484-1.826-.608a14.467 14.467 0 0 1-4.62-2.198 19.584 19.584 0 0 1-2.496-1.242l-.683-.522c-.124.062-.236.124-.373.161-1.527.51-2.745 1.453-4.372 1.801-1.614.348-3.241.236-4.88.149-4.36-.211-8.682-.621-13.004-1.142-8.706-1.056-17.363-2.31-26.131-2.584-14.705-.459-29.41-.546-44.139-.559-.82.957-2.037 1.59-3.689 1.578-6.744-.05-13.45-.808-20.194-1.043-5.726-.199-12.196-1.044-17.76.546-.795.224-1.528.273-2.199.161a6.59 6.59 0 0 1-.795.311c-1.316.422-2.657.807-3.974 1.229-.422.609-1.055 1.156-1.912 1.578-4.248 2.099-7.49 3.949-10.557 7.638-2.67 3.217-5.241 6.371-8.508 8.93-1.788 3.291-3.738 7.004-6.185 9.724-2.77 3.08-6.83 6.061-10.209 8.495-2.77 2-3.49 2.919-3.862 6.471a7.525 7.525 0 0 1-.323 1.503 3.6 3.6 0 0 1 .46 1.266c1.34 8.806-.261 17.549.037 26.392.236 7.03.062 15.773-3.403 22.231-.857 3.751-2.236 7.328-3.453 10.979-1.267 3.751-2.074 7.589-2.894 11.476-.82 3.888-1.627 7.8-1.8 11.774-.187 4.347.273 8.706.31 13.041.832 4.16 2.322 8.209 3.738 12.208 1.565 4.397 4.086 9.538 4.422 14.308.732.832 1.204 1.95 1.192 3.403-.075 8.979 2.683 17.648 2.546 26.652-.062 4.024-.137 8.061-.199 12.085-.025 1.478-.087 2.955-.062 4.433.013.683 0 1.404.1 2.074.024.174.149.435.21.535-.024-.038-.074-.125-.16-.274 1.254 2.074.906 4.086-.224 5.552.198.546.31 1.167.31 1.85 0 3.279-.087 6.608.708 9.812.745 3.043 1.664 5.825 1.826 8.979.062 1.267-.249 2.298-.807 3.08.012.174.024.361.024.547-.012 1.428-.186 3.179-.298 4.968.249.434.447.944.584 1.515.596 2.621 1.49 5.403 1.528 8.135 1.217.546 2.235 1.602 2.732 3.229.733 2.409 3.763 0 4.918-.795a14.371 14.371 0 0 1 1.677-.981c.037-.298.074-.596.111-.907.236-2.161.125-4.322.187-6.495.124-4.869.944-9.65.944-14.531 0-5.154-.286-10.309-.087-15.463.21-5.402.757-10.904-.075-16.282-.198-1.304-.037-2.62.534-3.688.087-2.174-.124-4.31-.21-6.508-.075-1.776.036-3.54.061-5.304a4.751 4.751 0 0 1-.012-1.453c0-.236 0-.484-.013-.732-.285-5.13-.546-10.172-.534-15.326 0-.683.125-1.292.336-1.814a4.02 4.02 0 0 0-.025-.397c0-.248 0-.472.037-.696-.26-2.558 1.28-5.328 4.595-5.34 9.129-.025 18.034 2.409 27.15 2.683 3.154.099 4.682 2.657 4.608 5.104.757.994 1.055 2.347.484 3.95-1.404 3.887.745 9.016 2.72 12.618a5.186 5.186 0 0 1 1.341-.646c5.763-1.813 4.52-9.811 6.98-14.258-.41-2.633 1.105-5.638 4.558-5.651 8.222-.049 16.419-.894 24.641-1.006 8.085-.099 16.071 1.106 24.143 1.404 8.346.31 16.692-.87 25.026-.571 2.459.087 4.844.583 7.265 1.006 1.478.26 4.248 1.043 5.54.136 1.502-1.068 2.98-1.068 4.185-.459 2.161-.361 4.496.583 5.204 3.316.633 2.446.782 5.055 1.664 7.427.857 2.297 2.298 4.396 3.378 6.595.41.844.559 1.664.522 2.446.087.037.174.062.261.1.285.074.546.186.807.322.112-.173.236-.335.385-.509 1.478-1.739 3.279-2.769 3.341-5.154.074-3.589-.186-6.893.795-10.408-1.019-2.446-.286-5.477 3.03-6.048 8.048-1.366 16.233-1.478 24.305-2.683 1.391-.211 2.807 0 3.913.671 2.595-.323 5.439 1.205 5.439 4.57v87.534c1.106.721 1.776 1.9 1.975 3.167.485.509.969 1.019 1.491 1.503.397.373.794.733 1.204 1.093.025 0 .037-.012.062-.012.336-.087.659-.162.982-.212.906-2.099 2.434-3.924 4.309-5.266.186-1.962.137-3.949.335-5.899 1.205-11.861 2.199-23.759 3.466-35.619.049-.423.111-.845.173-1.255-.484-2.881-.472-5.626-.149-8.42-.074-2.087-.173-4.186-.186-6.285 0-.496.025-.981.087-1.465-.795-1.615-1.192-3.378-1.031-5.167.311-3.527.907-7.005 1.602-10.47.187-.956.423-1.912.584-2.881-.112.435.025-1.987.037-2.335.211-5.949 1.59-11.227 3.503-16.816 1.676-4.881 2.956-9.774 4.297-14.755.621-2.322 1.267-4.632 1.776-6.967a41.44 41.44 0 0 0 .335-1.714c0-.112.025-.211.025-.335.037-1.155.062-2.286 0-3.441-.074-1.44.149-2.806.609-4.061l-.05-.037Z"/><path fill="#fff" d="M204.165 463.449c-.025-3.043-.186-6.086.013-9.116.186-2.757-.1-5.216-.373-7.874-.472-.472-.857-1.081-1.13-1.826-.733-2.012-.77-4.148-1.503-6.16-.758-2.124-1.577-4.247-2.36-6.359-1.366-3.626-3.316-7.042-4.371-10.78-1.093-3.825-2.882-7.029-4.347-10.706-1.23-3.08-2.869-5.676-5.266-7.849-.969-.484-1.776-1.254-2.161-2.285a3.547 3.547 0 0 1-.249-2.534c-.099-2.446-1.366-4.943-1.999-7.278-.733-2.67-2.087-5.092-2.919-7.725-.919-2.943-.894-5.986-1.354-9.004-.447-2.906-1.403-5.701-1.85-8.619-.956-6.198-2.223-12.333-3.577-18.456-.609-2.807-1.242-5.688-1.292-8.569-.024-1.59.274-3.205.112-4.77-1.006-.049-2.024-.161-3.018-.447-2.844-.832-3.887-3.775-3.13-6.147a5.236 5.236 0 0 1-.397-2.72c-1.739-.447-3.204-1.863-3.738-3.49-1.789.894-3.602 1.751-5.49 2.459-4.496 1.714-7.899-4.807-4.608-7.911 4.745-4.459 9.911-8.582 14.929-12.855-1.664-.099-2.956-1.142-3.627-2.533-3.154 1.875-6.321 3.75-9.463 5.651-4.521 2.719-9.986-4.074-5.738-7.427 5.141-4.062 10.296-8.098 15.45-12.147a18.093 18.093 0 0 0-.509-1.503 720.487 720.487 0 0 1-1.876-4.756c-1.813-1.106-2.881-3.627-2.273-5.875a11.334 11.334 0 0 0-.236-.596c-1.478-3.85 2.236-6.222 5.453-5.601 0-.025 0-.05.012-.075 1.105-4.521 5.862-7.24 9.215-10.097 1.069-.907 2.124-1.838 3.192-2.757-2.844-.497-5.253-3.863-3.775-6.67-.745-.546-1.304-1.353-1.466-2.483-.447-3.006 1.205-5.614 3.44-7.887a4.427 4.427 0 0 1 .448-3.44c-.448.36-.895.733-1.354 1.093-3.95 3.117-10.458-.82-7.427-5.738 1.826-2.956 4.769-5.365 7.104-7.899.497-.534.981-1.068 1.478-1.615-3.403.05-6.682-3.639-4.372-7.017 1.043-1.527 2.099-3.105 3.254-4.595 0-1.428.683-2.832 2.335-3.738 1.093-.596 1.664-1.938 2.397-2.919.969-1.292 2.062-2.484 3.043-3.751 2.235-2.881 4.67-5.576 6.781-8.544 2.856-4.024 4.906-8.359 6.905-12.743.249-2.534.857-5.018.969-7.576.149-3.465-.584-6.856-1.167-10.259-1.218-6.942-2.36-13.5-2.323-20.579 0-.174.013-.348.037-.509-.782-2.944-1.006-6.049-1.304-9.067-.472-4.731-.919-9.488-1.614-14.195-.646-4.347-2-8.93-4.409-12.643-.944-1.454-2.049-2.92-3.552-3.776-1.727-.994-2.906-1.664-4.297-3.117a1.604 1.604 0 0 1-.15-.174 21.146 21.146 0 0 1-2.247-.981 4.633 4.633 0 0 1-1.143-.795c-2.683-1.08-5.179-2.434-8.011-3.701-2.198-.982-4.421-1.95-6.706-2.708-1.615-.546-4.136-2.26-5.751-2.273-6.085-.062-6.085-9.513 0-9.463.82 0 1.553.124 2.248.298a12.941 12.941 0 0 1-.161-2.31c.149-7.54 1.453-15.053 1.689-22.617.112-3.713.074-7.426-.248-11.128a45.167 45.167 0 0 0-.187-1.825c-.087-.336-.186-.659-.236-.87a46.018 46.018 0 0 0-1.391-5.34c-.211-.634-.41-1.292-.646-1.925-.074-.124-.198-.36-.397-.72-.944-1.727-1.826-3.478-2.869-5.155a65.597 65.597 0 0 0-1.267-1.962c-.161-.236-1.043-1.304-1.316-1.677a7.396 7.396 0 0 0-.298-.335 42.127 42.127 0 0 0-2.062-2.136c-3.788-3.689-7.787-7.166-11.128-11.227-2.794 4.036-7.737 6.545-12.767 7.017-1.851.173-3.701.372-5.552.596-.931.111-1.851.223-2.782.348-.037 0-.075 0-.112.012a14.135 14.135 0 0 1-1.689 4.421c-2.36 4-4.806 7.986-6.856 12.16-.285.583-.608 1.192-.881 1.788-.187.57-.472 1.44-.584 1.776a46.04 46.04 0 0 0-1.615 6.57c-.223 1.254-.397 2.52-.596 3.788 0 .161-.025.347-.037.608a95.909 95.909 0 0 0-.224 7.787v.137s.05.112.075.186c.36.907.522 1.962.758 2.906.832 3.217 1.366 6.533 1.502 9.85a13.015 13.015 0 0 1-.894 5.364c.559.311 1.118.646 1.664 1.007.559.372 1.131.695 1.714 1.018.013 0 .025 0 .05.012.05 0 .099-.012.174-.012 2.645-.162 4.62 2.298 4.732 4.732.111 2.509-2 4.36-4.322 4.694a4.9 4.9 0 0 1-1.739 1.093c-.087.075-.186.137-.273.212-.36.546-.895 1.055-1.59 1.465-1.155.67-2.31 1.056-3.502 1.379-1.987.807-4.062 1.415-6.16 2.012-.795.285-1.59.546-2.435.732-.323.075-.633.137-.956.2-1.64.434-3.279.844-4.918 1.191-.025.013-.062.025-.087.038-1.714.67-3.167 1.875-4.819 2.67-3.825 1.838-7.862 3.316-10.457 6.893-1.069 1.465-2.248 3.043-2.658 4.843-.36 1.553-.497 2.969-.894 4.397.248.77.298 1.639.037 2.621-1.155 4.508-1.627 9.6-1.826 14.245-.149 3.527-1.403 6.918-2 10.358.05.248.087.497.112.77.236 3.626-.869 7.129-.708 10.73.137 2.981 1.155 5.974 1.019 8.955-.05 1.13-.422 2.049-.981 2.757.174.957.025 2.025-.609 3.105-.646 1.105-.62 2.807-.807 4.061-.261 1.727-.708 3.403-.882 5.13-.385 3.924.857 7.625 2.844 10.979 1.789 3.043 3.987 5.924 6.694 8.209 2.596 2.186 5.477 3.987 7.949 6.347 2.608 2.496 5.08 5.576 5.427 9.289.336 3.478-1.043 6.744-2.608 9.762-1.006 1.925-2.086 3.838-3.03 5.813.484.708.745 1.639.646 2.782-.212 2.31-.249 4.62-.696 6.905 4.16-.857 8.371 4.434 4.471 7.812-.993.857 1.043 8.793 1.366 10.358.41 2.062 1.006 4.086 1.367 6.148.136.832.21 1.664.385 2.496.037.261.099.522.161.782 2.645 1.031 5.278 1.863 8.023 2.596 3.341.882 6.83 2.236 8.495 5.49 1.391 2.695.273 5.191-1.85 6.346 1.018.721 1.974 1.515 2.794 2.484 2.409 2.832 1.379 6.595-2.062 7.899 1.85 4.608 2.857 9.476 3.59 14.419.795 5.366 1.155 10.718.099 15.935.075.211.137.434.199.683a471.86 471.86 0 0 0 1.85-8.098c1.329-5.949 10.445-3.415 9.116 2.509-2.024 9.041-4.036 18.108-7.514 26.715.435 2.533.497 5.104.323 7.29-.136 1.639-1.006 2.906-2.161 3.701.087.323.137.671.162 1.043.112 1.876.733 3.664.944 5.527.223 2.074-.1 4.024-.385 6.086-.572 4.26-.435 8.52-.174 12.804.261 4.248.434 8.458.559 12.718.087 3.229-.659 7.266.149 10.358.41 1.565.062 2.894-.696 3.887 0 .137.025.286.025.423 0 2.484.708 4.781.609 7.265-.112 2.968-.684 6.111-1.093 9.054-.783 5.44-.497 10.979-1.404 16.406-.906 5.44-3.527 10.433-4.198 15.898-.496 3.986-1.316 7.886-2.16 11.786.533.919.72 2.074.397 3.39-2.447 9.775-.733 19.574 1.64 29.137 1.042 4.161 2.657 6.818 6.731 7.886.571-.31 1.13-.621 1.726-.894.944-.41 2.186-.534 3.055-1.055 1.925-1.143 3.341-3.826 4.521-5.614 3.117-4.757 4.434-10.122 7.253-15.003.05-.087.112-.174.174-.261.348-1.155.584-2.31.658-3.564.075-1.23.522-2.199 1.192-2.944.261-4.471 1.776-8.78 3.081-13.053 1.825-5.974 2.645-11.364 2.359-17.611-.273-6.023-.757-11.972-2.26-17.822-1.54-5.986-2.087-11.339-2.049-17.524.024-3.565 3.266-5.043 5.949-4.434.049-1.329.111-2.67.136-4.024.149-5.639.162-11.265.733-16.878.571-5.527 1.267-11.141 2.347-16.605.398-2 1.118-3.987 1.814-5.987-2.422-2.62-.758-6.073 1.887-7.265.05-.522.075-1.044.075-1.578-.112-6.098 9.34-6.085 9.464 0 .049 2.435-.435 4.695-1.093 6.931 1.254 2.384 2.049 5.017 2.869 7.663.683 2.235 1.863 4.21 2.62 6.408.932 2.658 1.106 5.713 1.168 8.52.919 1.018 1.403 2.447.993 4.161-.372 1.577.485 3.539.907 5.054a93.04 93.04 0 0 1 1.428 6.036c.845 4.148 1.627 8.359 2.782 12.432.534 1.888 1.453 3.056 2.559 4.633 1.279 1.813 1.962 3.726 2.484 5.887 1.055 4.459 1.701 9.004 2.695 13.475.186.832.149 1.59-.013 2.273.41.72.658 1.528.708 2.347.758.87 1.23 2.012 1.267 3.167.012.671.087 1.342.112 2 .397.497.745 1.068.993 1.689 1.441 3.577 2.621 7.129 4.583 10.47 1.826 3.117 3.577 6.309 5.142 9.563 1.577 3.279 2.397 5.787 5.092 8.321 2.496 2.335 4.496 5.042 6.731 7.588 2 2.273 4.397 4.807 7.353 5.776.41.136.832.236 1.254.323a5.45 5.45 0 0 1 2.323-1.317 4.617 4.617 0 0 1 1.602-1.652c.546-.335 1.155-1.167 1.739-1.962a583.231 583.231 0 0 1-.311-16.208h-.025l-.062.025Z"/><path fill="#191919" d="M102.423 327.543c-.186-.597-4.88-.994-5.651-.907-5.452.174-10.93.658-16.419.869.733.758-1.701 1.255-1.142 2.149 3.192.087 9.24.422 10.705-.224 2.211-.732 12.383.994 12.507-1.912v.025Z"/><path fill="#191919" d="M240.082 246.429c-3.514-16.878-.745-33.595-2.583-50.598-.025-2.459-2.658-3.477-4.521-4.731-4.707-2.82-8.023-6.67-11.575-10.681-10.706-15.413-10.879-18.27-29.223-24.765-2.745-14.593-.286-52.833-15.475-59.552-2.646-1.007-4.98-2.807-7.601-3.553-.919-2.123-3.167-2.285-5.179-2.955-4.198-1.193-12.879-6.806-16.99-6.049 2.099 3.018 17.971 4.57 16.046 9.278-7.787 18.629-14.009 33.719-34.576 17.039 3.651-6.781 9.265-14.096 12.531-21.572.857-2.335 2.261-4.087 4.782-4.472.521.038.795-.385 1.217-.273.161.112.484.584.695.584.696-.696 1.69-.87 2.621-.41.646.298.82-.882 1.143-1.142.236-.187.546 0 .807 0 .584 0 .944-1.056 1.602-.72.335.012.472-.262.695-.522.982-.572 1.727.583 2.062-1.317 2.124-10.619 5.465-22.753 5.204-33.67-1.515-8.346-10.693-49.355-29.186-43.295l-.075-.024c-6.458-7.316-16.99.161-21.821 6.21-16.394 16.853-16.928 30.254-16.009 52.299.584 4.744-4.645 9.824.956 12.63 1.515.547 2.36 1.9 3.863 2.51 1.453 0 2.335.881 3.726 1.08.708.124 1.465.099 2.111.41.547.223.745.98 1.217 1.254.323.149.907-.807 1.192-.335 1.106 3.067-3.291 2.918-4.93 4.67-6.93 4.657-15.86 6.47-23.747 8.258-.658.41-.993.882-1.478 1.553-5.675 3.154-11.575 4.223-12.978 11.575-1.925 12.544-4.036 24.939-5.042 37.507.471.274.931.559 1.378.87-.745-11.178 2.906-22.219 4.248-33.322.62-7.353 2.173-9.538 8.768-12.991.733-.385 2.385-2.161 3.18-1.875 2.061 1.85 2.558 5.067 4.433 7.141.435.757.398 1.639.547 2.471.136.745.857 1.267 1.465 2.012.795 1.416 2.074 2.348 2.658 3.813.15.658.236 1.366.571 1.962.447.919 1.615 1.429 2.186 2.224.634 1.366 1.789 1.962 2.956 2.769.534.634.758 1.677 1.515 2.248.646.596 1.553.696 2.298 1.043.757.361.919 1.317 1.689 2.012 1.13 1.28 3.229.547 4.421.87.733.31 1.441.732 2.261.782 1.006.112 1.925-.41 2.633-.385.733-.025 1.416.398 2.148.211 1.044-.236 1.851-1.105 2.745-1.627.82-.509 1.888-.434 2.844-1.08.696-.447 1.192-1.217 1.776-1.751.522-.51 1.18-.261 2-.572 1.354-.521 1.614-2.161 2.459-3.142.559-.621 1.763-.882 2.434-1.763.522-.559.981-2.186 1.64-2.186.136.012.335.186.397.385.534 2.546 2.049 2.869 4.21 3.415 2.161 1.478 4.161 3.614 6.732 4.322 1.416.199 2.186 1.441 3.465 1.9 1.378.497 2.62 0 3.912.224 1.801.497 3.477-.46 4.868-1.317 4.633-.496 7.204-5.365 10.868-7.787 2.956-2.595 4.024-6.694 6.073-9.861.745-1.614.397-2.732 1.316-4.235 1.18-1.789.361-3.962 2.074-5.452 1.776-.485 3.354 1.453 4.919 2.037 7.886 2.943 11.239 11.165 12.121 18.877 1.019 9.812 3.192 19.487 3.763 29.361-.124 5.762.211 11.475 1.565 17.101.894 7.738.907 11.675-1.167 19.114-3.204 4.471-7.502 11.662-10.78 15.512-5.117 5.478-9.874 11.812-13.848 18.108-1.143 1.292-2.609 2-3.987 2.981-2.31 1.59-3.9 3.751-5.75 5.713-1.242 1.59-2.248.149-3.379-1.031-.285-.285-.633-.646-.596-1.055.025-.472.435-.82.708-1.218 1.168-1.254.398-2.955.273-4.421l.025-.074c.336-.535 1.205-.435 1.727-.721 3.949-1.49-1.739-5.166-2.919-7.489-.782-1.478-1.379-3.279-2.558-4.086-2.435-1.552-6.98-4.409-8.657-5.465-.646-.347-.633-.782.087-1.155 3.639-1.776 5.8-5.526 9.017-7.799 1.242-.907 2.595-1.677 3.875-2.546 6.346-5.428 11.91-13.438 20.84-14.73 1.217-.05 2.148-1.18.596-1.441-2.049-.236-6.769 1.776-8.992 2.931-.82.497-1.093.025-.894-.919 1.975-14.195 4.67-28.217 4.011-42.624-.111-2.124 1.006-3.925.485-6.148-.894-3.949-1.317-7.849-1.366-11.836-.41-1.999-1.516.46-1.379 1.466-.373 4.322 2.347 9.799 1.205 14.121-.845 4.359.174 8.855-.261 13.264-.571 10.731-3.316 21.3-4.26 31.981.025 1.95.522 1.999-.733 3.192-.41.385-1.018.906-1.589 1.391-4.173 3.763-7.539 8.321-12.631 11.103-3.378 2.658-6.148 6.384-9.948 8.346-.398.124-.882.037-1.304-.087-2.708-1.118-10.272-.994-10.719-4.223 6.819-22.243 5.577-47.915 8.446-70.456-5.043 15.263-3.279 32.974-5.875 48.834-.646 5.204-2.173 10.345-3.167 15.499-.41 1.926-.571 3.863-.832 5.726-.137.708-.795.509-1.292.236-2.657-1.726-6.209-2.844-9.203-3.49-.832-.497-1.167-1.59-2.334-2.074-4.608-2.36-10.172-2.062-14.941-4.459-3.08-1.813-6.16-4.024-9.551-5.266-1.267-.472-2.484-1.44-3.167-2.558-1.13-1.838-.062-3.341.112-5.8.062-3.341.77-7.663 1.142-11.55.236 3.477 1.727 9.339 2.137 13.537.298 1.192-.907 5.042.745 5.229 1.08-.683.323-2.521.422-3.677.149-16.58-8.917-33.148-4.869-49.566.038-1.938 1.218-6.521-.285-7.924-.261-.037-.422.422-.46 1.217-.099 1.528-.149 3.813-.285 5.39-2.782 9.551-.584 19.909.906 29.584.323 6.793-.708 13.301-1.689 19.921-.161.907-1.043.869-1.776.646-2.26-.572-5.204-.497-6.942.708-.634.385-.584.807.298.732 8.308-1.428 7.451 1.988 13.177 5.54 5.092 1.974 8.88 6.694 14.519 7.389 3.018.435 5.874 1.478 8.706 2.484.745.199.335.559-.236.919-6.906 4.571-9.824 13.5-13.538 20.455-.223.882.783 1.18.062 1.578-.695.335-1.838.559-2.496.41-.844-.224-1.142-1.118-1.813-1.59-2.733-2.049-9.352-1.888-11.65-5.639-7.924-10.407-23.547-15.549-22.74-30.167.161-2.136 1.39-6.756 1.974-8.632-.608.41-1.552 3.627-2.148 4.037-.373 1.291-.758 2.608-1.093 3.986-.87 9.377 5.576 16.717 12.668 21.921 3.192 3.403 11.86 7.477 10.035 13.066-2.77 11.364-10.917 20.753-9.439 33.235.273 1.763-.757 1.974-2.447 2.359-6.992 2.844-11.016 10.222-10.11 17.313-.67 2.236-1.65 9.365-4.247 9.178-11.96-1.142-24.38.535-34.663 6.558-.012 1.006-.037 2-.062 3.006 10.544-6.272 23.61-9.427 35.446-6.993-.286 10.706 3.229 21.226 4.483 31.882.758 8.333 10.395 5.936 16.22 5.539 6.049-.832 12.432.497 18.232-.994-3.428-4.62-29.956 3.565-29-3.651 8.446-7.44 19.723 3.564 28.851-1.515-4.409-1.578-12.084-.212-16.555-2.919-.435-.36.199-.149.584-.149 4.421.795 11.45 1.913 15.462.248 2.869-1.614-3.229-.732-3.974-.894-9.936-1.229-20.878-4.57-28.627 1.962-3.23-14.468-5.552-25.46-.671-39.978.497-8.57 2.757-13.538 10.842-17.462 2.199 4.185 1.702 11.177 5.601 14.481.112.385-.422.745-.546 1.056.497 1.117 2.77.658 3.887 1.13 3.676.807 7.005 4.073 10.346 5.03 2.012.993 7.737.385 6.483 3.676-5.266 17.971 1.118 36.178 5.042 53.752 1.019 28.205 2.31 57.888 3.428 85.137-2.372 7.737-1.093 16.357-2.906 23.995-4.335 10.867-12.954 66.693 1.788 69.674 13.761 1.267 21.921-31.596 23.672-42.761 2.422-9.116 4.36-19.747 1.466-28.962.124-7.589-4.372-17.81-3.403-25.622-3.031-2.832-1.615 11.289-1.652 12.705.124 3.329 2.335 5.924 2.732 9.141.882 5.626-1.167 11.637-.956 17.325-.124.298-1.031 9.017-2.26 6.757-3.913-5.813-15.165-8.297-20.12-3.528-.46.435-1.155 1.093-1.565.323-1.826-5.775 1.763-11.003 2.819-16.518.795-4.856.087-9.501.77-14.419.634-3.738 2.037-8.172 1.987-11.836 4.981 1.031 10.545 2.335 15.91 1.677 4.819.124 9.364 2.546 8.669-4.509-.547-17.052 5.837-33.943 8.619-50.336 3.577 7.6 4.086 17.35 6.968 25.423.596 2.533 2.409 3.042 4.669 3.303 4.658 9.911 1.255 25.1 10.681 33.384 4.422 22.058 8.272 46.909 25.473 62.931 4.782 7.538 13.19 13.14 17.673 2.397 1.627-19.971.596-36.427-7.501-53.194-3.751-8.271-5.092-18.331-12.706-24.131-1.999-1.342-1.204-4.037-1.738-6.086-.584-3.005-4.385-14.071-6.409-16.27-3.9-2.198 2.496 8.719 2.919 9.812 1.589 3.465 1.478 7.874 2.546 11.401 3.775 6.235 9.426 11.19 10.084 18.903.174.981.112 2.049-1.204 1.677-19.698-4.968-16.99 32.092-27.423-6.98-.174-.783.273-1.106.087-1.863-.149-.447-.435-.745-.795-1.106-8.321-7.476-5.601-21.51-10.147-31.21 3.031-.547 7.067.261 10.135.745 3.577 1.105 6.88 3.018 10.792 1.602 5.949-1.441 4.881-7.054 4.062-11.538.223-4.073-12.917-47.095-3.726-39.792 2.124 5.675 1.453 16.841 8.768 18.654 8.508-5.179 1.453-20.505 6.048-20.691 11.166-1.019 22.319-3.9 33.658-2.248 1.105 30.142-1.255 62.359 1.291 92.874.385 1.093 1.516 1.404 2.397 1.975 1.714 1.913 3.975 2.608 5.068-.162.323-1.403 1.614-1.366 2.434-2.707.534-.857.708-1.875.857-2.869 4.682-29.472 2.608-60.124 6.098-89.583 6.582-12.308 9.228-28.131 9.451-42.227.882-13.612-6.458-25.075-9.849-37.731v-.074l.087.012ZM149.431 58.408l-.025.025c-.347.21-1.44.658-1.664.608-.012-.037-.037-.1-.037-.136.211-1.205 1.08-2.323 1.167-3.577 0-.199.025-.373.112-.36.708.372.646 2.72.447 3.44Zm-44.015-3.75c-.559-.299-1.913-.796-2.335-1.367-.149-.633.36-2.21.733-2.968.335-.659.733-1.416.993-.336.348 1.441.361 3.254.646 4.658h-.025l-.012.012Zm.149-6.944c1.664-5.862 1.205-13.922 4.57-18.84.336-.51.833-.783 1.416-.832.907.012 1.95-.596 2.882-.808.434-.074.795.063 1.204.013.398-.037 1.28-.708 2-.696 1.254-.05 2.695-.062 3.862.236.547.087 1.118-.223 1.627-.248.286-.012.51.137.808.236.459.186 1.006-.062 1.49-.012.373 0 .696.099 1.006 0 .273-.063.522-.386.683-.659 1.602-2.434 1.863-5.613 2.298-8.395.149.024.211.335.298.546.608 1.838 1.925 4.608 2.757 6.135.137.236.348.534.584.646l.074.025c.261.087.472-.075.708-.124.584-.112 1.019 1.055 1.515 1.316.373.249.423-.497.696-.285.261.161.77 1.142 1.205 1.453.236.186.521.236.807.298 1.105.248 1.888.931 2.956 1.44.906.473 1.639 1.18 2.471 1.69.224.074.211.05.311.062.608-.062 1.254-.224 1.714.323.298.285.509.658.795.956.248.286.496.248.757.186.646-.198.832.882 1.056 1.33.298.794.832 1.104 1.142 1.651.249.447.323 1.018.361 1.54.248 3.428.422 9.936.074 13.326-.372 2.05-1.913 3.677-2.409 5.775-.808 2.41-1.366 5.068-2.223 7.452-.77 2.136-1.739 4.074-3.515 5.452-5.328 3.776-16.407 7.738-22.331 3.875-2.769-1.59-6.421-4.322-8.557-6.483-.993-1.006-1.503-1.664-1.987-2.794-1.851-4.744-2.198-10.793-3.117-15.81v.037l.012-.012Zm9.551 68.358c-2.993 2.161-8.644 3.205-12.172 3.316-.62.013-1.179-.049-1.751-.236-5.936-2.446-12.37-10.333-15.015-15.114-1.565-3.093-2.434-6.558-4.099-9.588-.149-.31-.223-.597-.173-.808.074-.385.596-.583 1.006-.695 4.856-1.366 10.134-2.571 14.829-4.62 2.049-.907 3.949-1.888 5.675-3.304 1.031-.807 2.211-1.726 3.515-2.012.261-.037.46-.012.547.1l.037.062c.137.285-.087.782-.211 1.142-3.515 10.445 9.277 18.133 14.506 24.976 2.385 2.956-5.005 5.204-6.682 6.781h-.012Zm9.24-5.824c-.224-.162-.373-.535-.559-.771-.286-.447-.857-1.068-1.279-1.515-3.751-3.937-5.937-6.222-8.868-9.513-10.954-12.37-3.005-8.172-3.986-24.815-.112-1.987-.299-3.663-.584-5.663-.037-.398-.025-.708.136-.807.286-.236 1.118.397 1.739.968 9.178 10.594 19.151 8.806 30.602 2.844l.037.025c.1.1.075.373-.024.746-1.329 4.458-1.367 9.389-.497 13.872.025.634-.472 1.056-.783 1.69-3.999 6.73-13.5 24.367-15.934 22.951v-.012Zm-54.063 189.61h.013c-1.975.671-6.943 2.323-8.557 3.478 1.092-2.72 5.762-3.217 8.544-3.478Zm33.26 148.155c5.067-2.497 13.6-1.155 16.63 3.887 1.205 2.111.224 4.595-.435 6.781-.397 1.019-.41 2.074-.77 2.968l-.049.038c-.174.149-.51-.025-.969-.373-.646-.472-1.192-.956-1.826-1.304-.944-.484-1.366-.795-.174-1.577 2.484-1.515 4.633-6.098.062-5.589-.285.012-.919.186-1.229.372-.609.336-1.826 1.081-2.819 1.677-.907.547-1.342.932-1.752-.149-1.403-4.881-7.451-4.98-6.048.062.236.82.733 1.739 1.143 2.41.149.223.149.484.111.521-.434.547-2.26.795-2.955 1.043-.733.187-.87-.298-.882-1.043-.025-.857-.075-1.739-.124-2.608-.162-3.105-.212-5.688 2.086-7.104v-.012Zm-2.981 2.955c.125.845-.347 2.199-.397 3.254-.112 1.354-.112 2.845-.075 4.26.112 2.509.746 2.31 3.428 1.776.721-.024 3.739-1.13 2.509.472-3.602 4.67-2.608 10.93-3.515 16.506-.174.857-.037 1.813.994 1.18 3.775-1.056 5.874-21.958 7.986-15.624 1.378 4.707-.87 10.172-.485 14.978.062.484.162 1.279.646 1.329.224 0 .497-.248.783-.658.67-.969 1.428-2.819 1.949-4.037 1.528-3.328 2.397-7.004 1.776-10.656-.397-2.297 1.069-.894 2.062.174 1.826 1.863 2.434-1.788 2.621-3.043.26-1.825.633-3.378 1.192-5.129.373-1.118 1.428-1.602 1.962-2.658 2.199-4.073 2.012-10.457 2.981-14.792.459 7.477-.733 14.892-3.006 22.07-2.285 14.618-6.979 29.348-17.387 40.327l-.099.062c-1.776.969-4.944-.708-6.484-2.124-.645-.633-.919-1.453-1.13-2.298-1.813-7.128-3.229-15.748-2.533-23.1.521-2.397 1.291-4.881 1.465-7.377.559-5.465 0-11.091.67-16.568.088-.348.137-.981.498-.634.509.758 1.378 1.528 1.577 2.298h.025l-.013.012Zm19.884-234.93-.049.037c-7.937-.67-15.848-1.863-23.026 2.124-.882.46-2.472 1.106-3.317.832-.248-.087-.285-.285-.136-.521 3.03-2.844 7.377-3.49 11.14-5.055.323-.137 1.304-.547.758-.807-1.913-.671-13.016 4.061-14.06 6.781.026.683 0 .919-.72 1.378-1.316.857-4.197 2.782-5.216 3.428-.348.199-.484.137-.273-.323.596-1.304 2-2.434 3.142-3.353 2.236-1.826 4.198-4.161 6.52-6.011.336-.336 1.317-.932 1.044-1.366-1.516-.733-9.688 7.153-12.209 9.327-.223.05.087-.46.224-.671 1.552-2.658 5.204-4.93 6.843-7.576.559-1.291-.82-.447-2.124.745-1.937 1.615-3.974 4.36-5.961 5.651 1.18-2.508 3.937-3.875 5.154-6.346.646-1.168 1.664-2.111 3.08-2.136 4.061-.373 7.973-1.391 11.575-3.167 2.534-1.491 5.465-.249 8.172.049.857.112 1.776-.062 2.596.149.795.212 7.576 5.875 6.831 6.819l.012.012Zm29.099 2.869c-2.098-.273-2.558-2.707-3.899-4.036-.46-.398-3.329-4.608-3.515-3.105-.037.422.199.956.435 1.354 1.478 2.459 5.514 6.073 4.26 8.445-.249.484-.733.869-1.292.894-2.509-.286-4.285-3.502-5.862-5.229-.745-.906-1.416-1.651-1.677-1.577-.074.025-.099.137-.074.311.459 2.198 4.483 4.893 3.601 7.116-.72.261-1.565-.546-2.248-.795-1.229-.633-3.03-1.018-3.899-1.763-1.031-1.044-2.074-2.869-3.689-2.907-.807.15 1.006 1.963.72 2.236-1.502-.174-3.03-1.093-4.471-1.689-1.254-.584-2.608-.596-3.875-1.105-1.502-.584-3.03-2.335-4.185-3.465-1.565-1.665-3.44-3.006-4.943-4.77-2.67-3.303-3.813-5.266-7.104-6.284-1.255-.422-3.167-.683-4.782-.77-.534-.025-1.341-.174-1.416-.596-.049-1.056.696-2.037 1.329-3.341 2-3.304 5.229-8.16 8.955-9.191 5.924-.472 11.724 3.726 16.878 6.148.82.398 1.751.547 2.683.609 5.974.335 10.432 4.135 15.45 7.042.633.372 1.254.77 1.726 1.304 1.23 1.391 1.739 3.614 3.018 5.117 1.081 1.353 2.919 2.434 3.055 3.216.112.895-2.57 1.503-3.39 1.081l-.099-.05c-.398-.236-.684-.72-.907-1.155-2.037-3.999-5.005-7.464-8.731-9.985-2.025-.832 3.477 4.272 3.676 4.52 1.813 1.938 2.807 4.534 4.223 6.744.844 1.404 2.446 2.993 2.31 4.695-.211.907-1.441 1.118-2.273 1.018h-.012l.024-.037Zm23.784 215.581c2.583-5.838 8.607-13.488 15.81-12.37 2.099.757 2.869 3.514 3.428 6.557.447 2.819.957 6.123 2.074 8.545v.062c-.074.211-.273.248-.521.323-.919.211-3.043.646-4.062.844-.36.063-.807.112-.558-.397 1.291-2.484 3.639-7.564.596-8.346-2.521-.546-3.304 2.745-3.813 4.521-.224.757-.36 1.378-.596 1.403-.236.037-.634-.484-1.217-.981-1.59-1.267-3.95-2.385-6.074-2.049-2.446.385-2.347 3.937-.447 5.092 1.155.882 2.658 1.354 3.999 1.863.758.273 1.342.546 1.131.869-1.677 1.292-3.801 2.223-5.651 3.254-.659.36-1.329.261-1.565-.497-.634-2.21-1.441-4.781-2.497-6.793a2.353 2.353 0 0 1-.037-1.9Zm-5.527-2.621c1.205 1.764 3.068 3.006 4.422 4.595 1.503 2.546 2.509 8.607 3.204 10.284.497.894 1.242-.075 1.913-1.043.72-1.155 1.801-1.926 3.03-2.534 1.329-.658 2.708-1.428 2.484.31-.335 3.254.075 6.62 1.379 9.651.77 1.465.993 3.117 1.887 4.558.808 1.006 1.714-.311 1.863-1.106.733-4.036-2.248-9.228-1.08-13.351.087-.273.211-.41.36-.385.323.062.646.646.845.994 1.875 3.514 2.136 7.414 2.62 11.227 1.577 15.438 7.824-8.209.137-14.692-.323-.41-.075-.584.72-.795 1.317-.348 3.527-.857 4.819-1.255.174-.074.261-.136.286-.248-.398-1.913-3.366-11.314-3.913-13.413-.174-.746 1.031-1.044 1.429-.398.819 2.025 1.316 4.198 2.223 6.297 2.061 5.477 4.744 10.88 5.949 16.605 1.639 9.104-.224 21.3.844 30.9.298 2.31-1.888 3.763-3.85 4.595-1.378.634-2.918.46-4.247-.36-2.969-1.788-4.732-5.377-7.154-7.737-3.738-3.602-7.241-7.415-8.942-12.234a12.937 12.937 0 0 0-1.255-2.347c-5.216-8.16-8.259-17.598-10.755-26.876v-.099c-.124-1.466-.236-2.484.807-1.118l-.025-.025Zm-2.496-139.709c-1.18-3.75-2.782-8.793-3.751-11.885-.186-.683-.397-.932-.087-1.304.174-.224.584-.584.857-.845 2.348-2.211 4.298-5.03 5.949-7.812 1.044-1.664 1.528-3.552 3.229-4.744 4.012-2.695 8.607-5.229 10.594-9.688.423-1.043.994-1.291 1.95-.683 3.118 1.714 7.427 3.764 9.626 5.825l.086.087c6.521 7.253 7.427 19.586 7.986 29.037 0 .323-.062.572-.211.683-12.295-3.924-21.585 1.155-33.558 4.26-.459.1-1.391.385-1.614.137-.336-.571-.51-1.565-1.044-3.08l-.012.012Zm17.201 56.323c-.36.162-1.267.025-1.105-.447.41-.273 1.254-.459 1.726-.385l.037.038c.261.36-.285.695-.658.794Zm2.099-4.433c.013.782-.074 1.068-.894 1.341-.907.286-1.987.261-2.919.273-.559-.037-.857.1-1.105-.223-.497-1.54-4.57-14.519-4.831-15.413.037-.224.36-.112.782-.162 2.484-.111 7.117-.447 9.514-.509h.024c0 3.291-.459 11.327-.546 14.705h-.012l-.013-.012Zm44.14 77.883c-.981-.347.434-1.44.732-1.155-.037.485-.198 1.354-.732 1.155Zm3.179-5.203c-.112 1.241-.882 1.738-2.223 1.726-.832.062-1.664.149-2.472.335-.844.236-1.639.137-1.639-.969 0-29.869-2.546-60.744-.646-90.278 1.267-1.155 4.819.646 9.427.223.646-.062 1.354-.149 1.937-.285.46-.087.894-.236 1.217-.013l.05.05c-2.77 29.422-1.254 59.913-5.638 89.198l-.013.013Zm7.824-93.471c-1.415 3.316-6.458 2.77-9.476 2.41-3.328-.497-6.557-1.429-9.886-1.416-16.729-.435-33.719 3.254-50.299 3.564-.298-2.322-3.118-27.41-3.49-30.602-.087-.621 1.117-.348 1.751-.484 11.401-.447 21.151-9.178 33.173-3.999 1.006 1.006.72 2.26-.683 1.763-8.048-2.819-16.593.534-24.268 2.844-1.938.435-7.427.187-7.825 2.447 0 .609.907.845 1.515.82 9.638.149 20.841-8.023 30.528-4.086l-.062-.311c.074.522-1.168 1.975-1.416 2.67-4.173 3.341-12.544 4.757-16.543 5.577-3.887.658-14.022.832-13.798 2.98.05.336.41.572.906.584 8.483-1.602 27.932-2.732 31.335-10.656.211-.31.46-.385.634-.124.211.273.236.944-.062 1.515-6.123 8.582-20.021 6.744-28.802 10.457-.857.348-2.024 1.056-2.235 1.938-.186.956.981 1.006 1.652.745 4.284-1.813 9.116-2.583 13.785-3.465 9.377-1.776 14.606-4.111 18.021-12.916.398-2.087-.857-4.707-.521-6.906.509-5.526-1.789-13.947-2.757-19.362.136-.422.981-.36 1.453-.286 10.494 1.329 21.324 1.491 31.397 5.192.385.149.745.285 1.093.484.956.534 1.726 1.851 2.918 1.317 2.049-1.776-2.099-3.739-6.334-5.03-10.358-3.105-28.553-5.217-30.751-2.646-.087.075-.174.075-.286-.062-.136-.136-.31-.447-.534-.869-3.589-6.992-7.501-10.197-14.767-13.326-1.08-.41-1.887-1.18-1.651-2.397 2.285-12.246-1.739-23.846-8.284-34.117-1.217-2.77-1.478-6.384-2.944-8.694-.633-.956-.397-1.826.373-2.794 15.077-18.133 23.982-21.809 20.318-47.009-.012-.422-.087-.72.286-.832.609.161 2.149 1.08 3.105 1.366 19.163 4.943 19.014 24.964 37.793 35.322.944.596 1.528 1.279 1.714 2.272 2.012 16.134-1.888 31.397 1.565 47.816.956 4.881 2.745 9.514 4.595 14.109 9.613 20.02 5.291 44.251-2.198 64.16l-.025.037h-.013Z"/><path fill="#191919" d="M98.114 317.233c-.993 1.677-13.885-4.595-14.854-4.595-4.732-1.391-10.27-.36-15.028-.795-1.85-.397-1.117-1.143.659-1.292 2.334-.248 4.67-.211 6.98-.124 2.272.124 4.756.162 6.942.758 3.813.894 7.266 3.03 10.93 3.986 1.303.435 4.359.187 4.371 1.988l-.025.062.025.012ZM125.859 145.568c3.863-1.068 4.037 5.105.957 5.999-4.285 1.105-4.757-4.943-1.093-5.962l.136-.037ZM127.896 120.853c3.912.198 4.806 5.911.36 5.34-2.906-.186-3.54-4.955-.497-5.34h.137ZM121.165 176.008c-1.527-1.738 1.068-5.439 3.18-3.8 2.67 2.062-.833 6.272-3.105 3.9l-.087-.087.012-.013ZM136.441 61.001c-.323.336-1.552.249-2.223.547-2.459 1.726-5.874 2.384-8.917 1.676-1.702-.509-4.72-1.614-6.396-2.757-.385-.31-.025-.633.124-.919 0-.062.037-.062-.05-.136-.434-.174-1.987-.1-2.608-.286-.571-.112-.807-.26-.745-.41 1.142-.907 3.577-.36 4.968-.807 1.589-.472 3.589-1.242 5.303-.646.72.236 1.465.348 2.235.348 2.062-.025 3.565 1.739 5.391 2.347.596.273 3.067.112 2.968.994l-.037.05h-.013Zm-6.719-1.75c-.571-.895-2.074-.41-2.981-.522-1.092-.087-2.384-1.106-3.514-.547-.062.124.261.298.484.41 1.751.857 4.161.708 5.986.696l.025-.038Zm2.298 1.577c-2.372-.41-9.663-1.007-11.165-1.205 2.483 2.273 8.184 3.328 11.128 1.242l.037-.038ZM124.021 32.736c-2.757-.224-5.266-1.838-8.085-1.043-1.105.26-2.235 1.167-3.366 1.353-.993.187-1.092-.695-.534-1.254 1.627-1.764 4.906-2.385 7.303-1.938.919.088 5.589 1.876 4.769 2.857l-.074.025h-.013ZM123.202 38.139c.956 1.068-3.391 1.987-4.682 1.987-1.118-.087-5.751-.795-5.738-2.037.037-.496.646-.931 1.13-.906 1.254.111 3.527 1.055 5.03 1.155 1.341.124 2.881-.497 4.185-.236l.087.037h-.012ZM145.942 42.72c-.385 1.093-12.494-.31-10.532-3.204.634-.025 3.316 1.006 4.956 1.553 1.465.633 3.614.397 5.241 1.068.335.161.422.372.36.521l-.025.05v.012ZM146.948 37.17c-.149.111-.472 0-.745-.261-2.807-3.242-4.732-4.148-8.979-2.82-.398.125-1.155.187-1.28-.099-.708-1.018 6.235-3.564 9.75.534.621.795 1.304 1.615 1.304 2.596l-.05.05ZM133.46 34.96c-1.416 3.303-2.794 6.793-2.968 10.444-.335.646-1.006.187-.857-.434.174-3.416.633-8.297 3.8-10.035l.025.024ZM123.14 47.44c-.236.709-.919 1.479-1.217 2.211-.397.733-.435 1.578-.323 2.372-.025.1-.112.162-.223.174-1.255-.037-1.491-1.291-1.056-2.471.435-1.217 1.565-2.534 2.794-2.323l.025.062v-.024ZM133.46 51.873c.336-.447.298-1.403.211-1.974-.037-.597-.248-1.156.336-1.13 1.9.447.956 4.371-.87 4.67-1.776.173-.198-1.081.274-1.504l.062-.074-.013.012ZM123.45 51.415c-.224-.733.509-1.329 1.204-1.416.808-.224 1.64.484 1.044 1.192-.522.423-1.615.298-2.186.274l-.038-.05h-.024ZM131.423 50.942c.696 1.105-.993 1.478-1.689 1.13-.844-.907.994-2.074 1.665-1.192l.037.062h-.013Z"/><path fill="#191919" d="M.123 284.096c.223 14.096 2.869 29.919 9.451 42.227 3.478 29.459 1.403 60.123 6.086 89.595.149.994.322 2 .857 2.869.832 1.341 2.11 1.304 2.434 2.708 1.093 2.769 3.353 2.074 5.055.161.881-.584 2.024-.882 2.397-1.975 2.533-30.515.186-62.731 1.291-92.874 11.327-1.652 22.492 1.242 33.657 2.248 4.596.186-2.471 15.512 6.049 20.691 7.315-1.813 6.644-12.978 8.768-18.654 2.745-2.186 1.987-2.347 7.39-1.329.1-.559 7.44-.795.1-.559-.063 0-9.191-1.292-7.49 1.875-.174-2.359 10.197-.881 10.47-3.303-16.493-.36-40.376-4.037-57.006-3.602-3.329 0-6.57.919-9.886 1.416-3.018.36-8.048.894-9.476-2.422-7.477-19.909-11.8-44.139-2.199-64.147 1.85-4.608 3.64-9.228 4.595-14.109 3.453-16.419-.447-31.683 1.565-47.816.187-1.006.77-1.689 1.714-2.273 18.791-10.358 18.642-30.378 37.793-35.309.273-.087.609-.223.944-.385 1.366-1.031 2.919-1.801 4.57-2.173a5.46 5.46 0 0 1 .473-.087c.136-.932.273-1.863.36-2.807-.659-.037-.497-1.031-1.155-1.167-.087.621-.994 2.136-1.106 2.695-18.343 6.507-18.517 9.364-29.223 24.777-3.54 4.024-6.868 7.861-11.575 10.681-1.85 1.242-4.484 2.273-4.521 4.732-1.838 17.002.92 33.707-2.583 50.597-3.39 12.656-10.73 24.107-9.85 37.719h.05Zm66.768 63.526.037-.037c.472-.074 1.317.112 1.726.385.15.472-.745.609-1.105.447-.373-.099-.92-.434-.658-.795Zm-2.012-18.331h.025c2.384.037 7.017.385 9.513.497.422.062.733-.062.782.161-.26.894-4.334 13.873-4.83 15.413-.237.323-.547.186-1.106.224-.92-.013-2.012.012-2.919-.274-.807-.26-.906-.546-.894-1.329-.1-3.378-.546-11.426-.546-14.692h-.025ZM20.565 420.7c.286-.286 1.714.807.733 1.155-.534.186-.695-.671-.733-1.155Zm-8.085-93.247.037-.05c.323-.223.758-.074 1.218.013a18.65 18.65 0 0 0 1.937.285c4.608.423 8.16-1.391 9.427-.223 1.912 29.534-.646 60.409-.646 90.278 0 1.118-.808 1.205-1.64.969a18.16 18.16 0 0 0-2.471-.335c-1.341 0-2.111-.485-2.223-1.727-4.372-29.285-2.857-59.788-5.639-89.198v-.012Z"/><path fill="#191919" d="M58.656 157.778c.97 5.018-.919 9.178-2.123 14.109-.87 9.377 5.576 16.717 12.668 21.921 2.297 2.446 7.402 5.228 9.439 8.669.397-.236 1.478 1.142 1.9.919-7.85-9.576-22.418-16.692-22.728-30.913-.075-3.428 1.739-6.011 2.148-8.83.944-6.67.733-13.674 1.069-20.381.583-9.104-.087 2.149 3.266-27.609-.472.099-.944.186-1.416.286-1.826 11.885-3.477 23.721-3.788 35.806-.236 2.508-.186 3.676-2.98 4.284-.696.162-1.33.746-2.025.907.075.497.062.571.075 1.068 2.024-.844 3.887-1.366 4.508-.286v.025l-.013.025Z"/></svg>