<svg xmlns="http://www.w3.org/2000/svg" width="251" height="503" fill="none"><path fill="#F7F7F7" d="M40.873 397.457c-17.167-3.238-28.893-7.536-34.5-13.882-.014-8.564-1.437-17.046 13.95-23.007 15.386-5.959 36.384-9.879 57.193-13.53 18.657-3.276 38.057-6.483 59.255-7.117 21.192-.633 44.821 1.82 57.415 7.844 8.502 4.07 21.841 6.398 27.442 10.982 7.001 6.934 9.424 8.431 16.502 15.848 7.51 4.946 8.864 12.278 3.252 17.334-4.268 3.849-14.074 6.695-25.014 8.442-10.94 1.747-23.062 2.525-35.039 3.283-19.001 1.203-38.298 2.381-57.883 2.112-17.706-.243-34.867-2.278-51.85-4.045-10.56-1.099-20.985-2.428-30.723-4.264ZM113.326 337.955c.683.025 1.354.037 2.025.05-2.77-.211-5.539-.36-8.321-.398 2.098.137 4.197.249 6.284.336l.012.012Z"/><path fill="#fff" d="M249.594 290.117a14.104 14.104 0 0 1-.608-3.366c-.1-2.161-.05-4.31-.013-6.471.013-1.055.037-2.123 0-3.192 0-.149-.074-1.179-.099-1.614-.112-.559-.323-1.838-.36-2.012-.149-.795-.286-1.577-.435-2.372-.348-1.789-.708-3.565-1.18-5.328a59.963 59.963 0 0 0-.869-2.882c-.125-.385-.286-.832-.323-.956-.944-2.322-1.987-4.608-2.944-6.918-1.415-3.465-2.657-6.955-3.427-10.619a14.067 14.067 0 0 1-.261-4.235c-.075-.174-.137-.335-.211-.496-1.516-3.838-1.391-8.11-1.267-12.159.099-3.527.037-7.179.546-10.669 0-.062.013-.087.025-.136-.025-.125-.037-.261-.074-.447-.199-1.441-.485-2.907-.572-4.36-.099-1.776.174-3.539.373-5.315.186-1.652.36-3.304.372-4.968 0-.1-.012-.485-.024-.845-.05-.199-.075-.472 0-.447 0-.174 0-.286.012-.273-.745-2-1.093-4.024-1.018-5.949a79.425 79.425 0 0 1-6.645-2.807c-3.08-1.49-5.129-4.049-6.272-7.03-2.707-2.943-4.93-6.383-7.154-9.687a250.636 250.636 0 0 0-2.558-3.751c-.397-.571-.807-1.13-1.205-1.701-2.186-1.987-4.049-4.508-6.197-6.595 0 0-.013 0-.025-.012-.584-.336-1.13-.721-1.714-1.044-.025-.012-.087-.049-.174-.099.398.273-1.354-.484-1.825-.609a14.42 14.42 0 0 1-4.621-2.198 19.452 19.452 0 0 1-2.496-1.242l-.683-.521c-.124.062-.236.124-.373.161-1.527.509-2.744 1.453-4.371 1.801-1.615.348-3.242.236-4.881.149-4.36-.211-8.682-.621-13.004-1.143-8.706-1.055-17.362-2.31-26.131-2.583-14.704-.459-29.409-.546-44.139-.559-.82.956-2.037 1.59-3.689 1.577-6.744-.049-13.45-.807-20.194-1.043-5.726-.199-12.196-1.043-17.76.547-.795.223-1.528.273-2.198.161-.249.112-.51.224-.795.311-1.317.422-2.658.807-3.975 1.229-.422.609-1.055 1.155-1.912 1.577-4.248 2.099-7.49 3.95-10.557 7.639-2.67 3.216-5.241 6.371-8.508 8.929-1.788 3.291-3.738 7.005-6.184 9.725-2.77 3.08-6.831 6.061-10.21 8.495-2.769 2-3.49 2.919-3.862 6.471a7.522 7.522 0 0 1-.323 1.502c.224.385.385.795.46 1.267 1.341 8.806-.261 17.549.037 26.392.236 7.029.062 15.773-3.403 22.231-.857 3.751-2.236 7.328-3.453 10.979-1.267 3.751-2.074 7.589-2.893 11.476-.82 3.887-1.627 7.799-1.801 11.774-.187 4.347.273 8.706.31 13.04.832 4.161 2.323 8.21 3.738 12.209 1.565 4.396 4.087 9.538 4.422 14.307.733.832 1.205 1.95 1.192 3.403-.074 8.98 2.683 17.649 2.546 26.653-.062 4.024-.136 8.06-.198 12.084-.025 1.478-.087 2.956-.063 4.434.013.683 0 1.404.1 2.074.025.174.149.435.21.534-.024-.037-.074-.124-.16-.273 1.254 2.074.906 4.086-.224 5.552.199.546.31 1.167.31 1.85 0 3.279-.087 6.607.708 9.812.745 3.042 1.665 5.824 1.826 8.979.062 1.267-.248 2.298-.807 3.08.012.174.024.36.024.547-.012 1.428-.186 3.179-.298 4.967.249.435.448.944.584 1.516.596 2.62 1.49 5.402 1.528 8.135 1.217.546 2.235 1.602 2.732 3.229.733 2.409 3.763 0 4.918-.795a14.232 14.232 0 0 1 1.677-.981c.037-.298.075-.597.112-.907.236-2.161.124-4.322.186-6.496.124-4.868.944-9.65.944-14.53 0-5.155-.286-10.309-.087-15.463.211-5.403.758-10.904-.075-16.282-.198-1.304-.037-2.621.534-3.689.088-2.173-.124-4.309-.21-6.508-.075-1.776.037-3.539.062-5.303a4.751 4.751 0 0 1-.013-1.453c0-.236 0-.484-.012-.733-.286-5.129-.547-10.171-.534-15.326 0-.683.124-1.291.335-1.813a4 4 0 0 0-.025-.397c0-.249 0-.472.037-.696-.26-2.558 1.28-5.328 4.596-5.34 9.128-.025 18.033 2.409 27.149 2.682 3.155.1 4.682 2.658 4.608 5.105.757.993 1.055 2.347.484 3.949-1.403 3.888.745 9.017 2.72 12.619a5.152 5.152 0 0 1 1.341-.646c5.763-1.813 4.521-9.812 6.98-14.258-.41-2.633 1.106-5.638 4.558-5.651 8.222-.05 16.419-.894 24.641-1.006 8.085-.099 16.071 1.106 24.144 1.404 8.346.31 16.692-.87 25.025-.572 2.459.087 4.844.584 7.266 1.006 1.478.261 4.247 1.044 5.539.137 1.503-1.068 2.981-1.068 4.185-.46 2.161-.36 4.496.584 5.204 3.316.634 2.447.783 5.055 1.664 7.427.857 2.298 2.298 4.397 3.379 6.595.409.845.558 1.664.521 2.447.087.037.174.062.261.099.286.075.546.187.807.323.112-.174.236-.335.385-.509 1.478-1.739 3.279-2.77 3.341-5.154.075-3.59-.186-6.893.795-10.408-1.018-2.447-.286-5.477 3.03-6.048 8.048-1.366 16.233-1.478 24.306-2.683 1.391-.211 2.807 0 3.912.671 2.596-.323 5.44 1.204 5.44 4.57v87.534c1.105.72 1.776 1.9 1.974 3.167.485.509.969 1.018 1.491 1.503.397.372.795.732 1.204 1.093.025 0 .038-.013.063-.013.335-.087.658-.161.981-.211.906-2.099 2.434-3.924 4.309-5.266.187-1.962.137-3.949.336-5.899 1.204-11.861 2.198-23.759 3.465-35.62.049-.422.112-.844.174-1.254-.485-2.881-.472-5.626-.149-8.421-.075-2.086-.174-4.185-.187-6.284 0-.497.025-.981.087-1.466-.795-1.614-1.192-3.378-1.031-5.166.311-3.527.907-7.005 1.603-10.47.186-.956.422-1.913.583-2.881-.112.434.025-1.987.038-2.335.211-5.949 1.589-11.228 3.502-16.816 1.677-4.881 2.956-9.775 4.297-14.755.621-2.322 1.267-4.632 1.776-6.967.124-.572.236-1.143.335-1.714 0-.112.025-.211.025-.336.038-1.155.062-2.285 0-3.44a10.213 10.213 0 0 1 .609-4.061l-.05-.037Z"/><path fill="#fff" d="M204.697 463.754c-.025-3.043-.186-6.086.012-9.116.187-2.757-.099-5.217-.372-7.874-.472-.472-.857-1.081-1.13-1.826-.733-2.012-.77-4.148-1.503-6.16-.758-2.124-1.578-4.248-2.36-6.359-1.366-3.627-3.316-7.042-4.372-10.78-1.093-3.826-2.881-7.03-4.347-10.706-1.229-3.08-2.868-5.676-5.265-7.849-.969-.485-1.777-1.255-2.162-2.285a3.553 3.553 0 0 1-.248-2.534c-.099-2.447-1.366-4.943-1.999-7.278-.733-2.67-2.087-5.092-2.919-7.725-.919-2.944-.894-5.986-1.354-9.004-.447-2.907-1.403-5.701-1.85-8.62-.957-6.197-2.224-12.332-3.577-18.455-.609-2.807-1.242-5.688-1.292-8.57-.025-1.589.273-3.204.112-4.769-1.006-.05-2.025-.161-3.018-.447-2.844-.832-3.887-3.776-3.13-6.148a5.235 5.235 0 0 1-.397-2.72c-1.739-.447-3.205-1.863-3.739-3.49-1.788.895-3.601 1.752-5.489 2.46-4.496 1.713-7.899-4.807-4.608-7.912 4.745-4.458 9.911-8.582 14.929-12.854-1.665-.099-2.956-1.143-3.627-2.534-3.154 1.876-6.321 3.751-9.464 5.651-4.52 2.72-9.985-4.073-5.738-7.427 5.142-4.061 10.296-8.097 15.451-12.146a18.104 18.104 0 0 0-.51-1.503 780.62 780.62 0 0 1-1.875-4.757c-1.813-1.105-2.881-3.626-2.273-5.874a11 11 0 0 0-.236-.596c-1.478-3.85 2.236-6.223 5.452-5.602 0-.024 0-.049.013-.074 1.105-4.521 5.862-7.241 9.215-10.097 1.068-.907 2.124-1.838 3.192-2.757-2.844-.497-5.253-3.863-3.776-6.67-.745-.546-1.304-1.354-1.465-2.484-.447-3.005 1.205-5.613 3.44-7.886a4.433 4.433 0 0 1 .447-3.441c-.447.361-.894.733-1.353 1.093-3.95 3.118-10.458-.819-7.427-5.737 1.825-2.956 4.769-5.366 7.104-7.899.496-.534.981-1.068 1.478-1.615-3.403.05-6.682-3.639-4.372-7.017 1.043-1.528 2.099-3.105 3.254-4.595 0-1.429.683-2.832 2.335-3.739 1.093-.596 1.664-1.937 2.397-2.918.968-1.292 2.061-2.484 3.043-3.751 2.235-2.881 4.669-5.576 6.781-8.545 2.856-4.024 4.905-8.358 6.905-12.742.248-2.534.857-5.018.969-7.576.149-3.465-.584-6.856-1.168-10.259-1.217-6.943-2.359-13.5-2.322-20.579 0-.174.012-.348.037-.51-.782-2.943-1.006-6.048-1.304-9.066-.472-4.732-.919-9.488-1.615-14.196-.645-4.346-1.999-8.929-4.409-12.643-.943-1.453-2.049-2.918-3.552-3.775-1.726-.994-2.906-1.665-4.297-3.118a1.602 1.602 0 0 1-.149-.174 21.251 21.251 0 0 1-2.248-.98 4.649 4.649 0 0 1-1.142-.796c-2.683-1.08-5.179-2.434-8.011-3.7-2.198-.982-4.421-1.95-6.707-2.708-1.614-.547-4.135-2.26-5.75-2.273-6.086-.062-6.086-9.513 0-9.464.82 0 1.552.124 2.248.298a12.941 12.941 0 0 1-.161-2.31c.149-7.538 1.453-15.052 1.689-22.616.111-3.713.074-7.427-.249-11.128a45.14 45.14 0 0 0-.186-1.826c-.087-.335-.186-.658-.236-.869-.36-1.813-.82-3.59-1.391-5.34-.211-.634-.41-1.292-.646-1.925-.074-.125-.199-.36-.397-.72-.944-1.727-1.826-3.478-2.869-5.155a65.72 65.72 0 0 0-1.267-1.962c-.161-.236-1.043-1.304-1.317-1.677a6.304 6.304 0 0 0-.298-.335 41.678 41.678 0 0 0-2.061-2.136c-3.788-3.69-7.787-7.167-11.128-11.228-2.795 4.037-7.738 6.545-12.768 7.017-1.85.174-3.701.373-5.551.596-.932.112-1.851.224-2.782.348-.038 0-.075 0-.112.013a14.16 14.16 0 0 1-1.689 4.421c-2.36 4-4.807 7.986-6.856 12.159-.285.584-.608 1.192-.882 1.788-.186.572-.472 1.441-.583 1.776a46.096 46.096 0 0 0-1.615 6.57c-.223 1.255-.397 2.522-.596 3.788 0 .162-.025.348-.037.609a95.863 95.863 0 0 0-.224 7.787v.137s.05.111.075.186c.36.906.521 1.962.757 2.906.832 3.217 1.366 6.533 1.503 9.849a13.015 13.015 0 0 1-.894 5.365c.559.31 1.118.646 1.664 1.006.559.373 1.13.696 1.714 1.019.012 0 .025 0 .05.012.049 0 .099-.012.174-.012 2.645-.162 4.62 2.297 4.731 4.731.112 2.51-1.999 4.36-4.322 4.695a4.889 4.889 0 0 1-1.738 1.093c-.087.075-.187.137-.274.211-.36.547-.894 1.056-1.589 1.466-1.155.67-2.31 1.055-3.503 1.378-1.987.808-4.06 1.416-6.16 2.012-.795.286-1.59.547-2.434.733-.323.075-.633.137-.956.199-1.64.434-3.28.844-4.919 1.192-.024.013-.062.025-.087.037-1.713.671-3.166 1.876-4.818 2.67-3.826 1.839-7.862 3.317-10.458 6.893-1.068 1.466-2.248 3.043-2.657 4.844-.36 1.553-.497 2.968-.895 4.397.249.77.298 1.639.038 2.62-1.155 4.509-1.627 9.601-1.826 14.246-.15 3.527-1.404 6.917-2 10.358.05.248.087.496.112.77.236 3.626-.87 7.128-.708 10.73.137 2.981 1.155 5.974 1.019 8.955-.05 1.13-.423 2.049-.982 2.757.174.956.025 2.024-.608 3.105-.646 1.105-.621 2.807-.807 4.061-.261 1.726-.708 3.403-.882 5.129-.385 3.925.857 7.626 2.844 10.979 1.788 3.043 3.987 5.925 6.694 8.21 2.596 2.186 5.477 3.986 7.949 6.346 2.608 2.497 5.08 5.577 5.427 9.29.335 3.478-1.043 6.744-2.608 9.762-1.006 1.925-2.087 3.838-3.03 5.812.484.708.745 1.64.645 2.782-.21 2.31-.248 4.621-.695 6.906 4.16-.857 8.37 4.434 4.47 7.812-.993.857 1.044 8.793 1.367 10.358.41 2.061 1.006 4.086 1.366 6.147.137.833.211 1.665.385 2.497.037.261.1.521.162.782 2.645 1.031 5.278 1.863 8.023 2.596 3.34.882 6.83 2.235 8.495 5.489 1.391 2.695.273 5.192-1.85 6.347 1.018.72 1.974 1.515 2.794 2.484 2.409 2.831 1.378 6.595-2.062 7.899 1.85 4.607 2.857 9.476 3.589 14.419.795 5.365 1.155 10.718.1 15.934.074.211.136.435.198.683a471.79 471.79 0 0 0 1.851-8.097c1.329-5.949 10.445-3.416 9.116 2.509-2.024 9.041-4.036 18.107-7.514 26.714.435 2.534.497 5.105.323 7.291-.137 1.639-1.006 2.906-2.161 3.701.087.323.137.67.161 1.043.112 1.875.733 3.664.944 5.527.224 2.074-.099 4.024-.385 6.085-.571 4.26-.434 8.52-.174 12.805a393.2 393.2 0 0 1 .559 12.718c.087 3.229-.658 7.265.149 10.358.41 1.565.063 2.893-.695 3.887 0 .137.025.286.025.422 0 2.484.708 4.782.608 7.266-.111 2.968-.683 6.11-1.093 9.054-.782 5.44-.496 10.979-1.403 16.406-.907 5.44-3.527 10.433-4.198 15.897-.497 3.987-1.316 7.887-2.16 11.787.533.919.72 2.074.397 3.39-2.447 9.774-.733 19.574 1.639 29.137 1.043 4.16 2.658 6.818 6.731 7.886.572-.31 1.131-.621 1.727-.894.944-.41 2.186-.534 3.055-1.056 1.925-1.142 3.341-3.825 4.521-5.613 3.117-4.757 4.434-10.122 7.253-15.003.049-.087.112-.174.174-.261.347-1.155.583-2.31.658-3.565.074-1.229.522-2.198 1.192-2.943.261-4.471 1.776-8.781 3.08-13.053 1.826-5.974 2.646-11.364 2.36-17.611-.273-6.024-.758-11.973-2.26-17.822-1.54-5.987-2.087-11.34-2.05-17.525.025-3.564 3.267-5.042 5.949-4.433.05-1.329.112-2.671.137-4.024.149-5.639.161-11.265.733-16.879.571-5.526 1.267-11.14 2.347-16.605.398-1.999 1.118-3.987 1.813-5.986-2.421-2.621-.757-6.073 1.888-7.266.05-.521.075-1.043.075-1.577-.112-6.098 9.339-6.086 9.463 0 .05 2.434-.434 4.695-1.092 6.93 1.254 2.385 2.049 5.018 2.868 7.663.684 2.236 1.863 4.211 2.621 6.409.931 2.658 1.105 5.713 1.167 8.52.92 1.018 1.404 2.446.994 4.16-.373 1.578.484 3.54.907 5.055a93.04 93.04 0 0 1 1.428 6.036c.844 4.148 1.627 8.358 2.782 12.432.534 1.888 1.453 3.055 2.558 4.633 1.28 1.813 1.963 3.726 2.484 5.887 1.056 4.458 1.702 9.004 2.695 13.475.187.832.149 1.59-.012 2.273.41.72.658 1.527.708 2.347.757.869 1.229 2.012 1.267 3.167.012.671.087 1.341.111 2a6.68 6.68 0 0 1 .994 1.689c1.441 3.577 2.621 7.129 4.583 10.469 1.826 3.118 3.577 6.31 5.142 9.564 1.577 3.278 2.397 5.787 5.092 8.321 2.496 2.335 4.496 5.042 6.731 7.588 2 2.273 4.397 4.807 7.353 5.775.409.137.832.236 1.254.323a5.455 5.455 0 0 1 2.322-1.316 4.612 4.612 0 0 1 1.603-1.652c.546-.335 1.155-1.168 1.738-1.962a587.14 587.14 0 0 1-.31-16.208h-.025l-.062.025Z"/><path fill="#1D1D1D" d="M102.955 327.847c-.186-.596-4.881-.993-5.651-.906-5.452.174-10.93.658-16.419.869.733.758-1.701 1.254-1.142 2.149 3.192.087 9.24.422 10.705-.224 2.211-.733 12.383.994 12.507-1.913v.025Z"/><path fill="#1D1D1D" d="M240.614 246.734c-3.514-16.879-.745-33.595-2.583-50.598-.025-2.459-2.658-3.477-4.521-4.732-4.707-2.819-8.023-6.669-11.575-10.681-10.706-15.413-10.879-18.269-29.223-24.765-2.745-14.593-.286-52.833-15.475-59.552-2.646-1.006-4.98-2.807-7.601-3.552-.919-2.124-3.167-2.285-5.179-2.956-4.198-1.192-12.879-6.806-16.99-6.048 2.099 3.018 17.971 4.57 16.046 9.277-7.787 18.63-14.009 33.72-34.576 17.04 3.651-6.781 9.265-14.096 12.531-21.573.857-2.335 2.261-4.086 4.782-4.47.521.036.795-.386 1.217-.274.161.112.484.584.695.584.696-.696 1.689-.87 2.621-.41.646.298.82-.882 1.143-1.143.236-.186.546 0 .807 0 .584 0 .944-1.055 1.602-.72.335.012.472-.261.695-.522.982-.571 1.727.584 2.062-1.316 2.124-10.62 5.465-22.753 5.204-33.67-1.515-8.346-10.693-49.356-29.186-43.295l-.075-.025c-6.458-7.315-16.99.162-21.821 6.21-16.394 16.854-16.928 30.254-16.009 52.3.584 4.744-4.645 9.823.956 12.63 1.516.546 2.36 1.9 3.863 2.509 1.453 0 2.335.882 3.726 1.08.708.125 1.465.1 2.111.41.547.224.745.981 1.217 1.255.323.149.907-.808 1.192-.336 1.106 3.068-3.291 2.919-4.93 4.67-6.93 4.657-15.86 6.47-23.746 8.26-.659.409-.994.88-1.478 1.552-5.676 3.154-11.576 4.222-12.979 11.575-1.925 12.544-4.036 24.938-5.042 37.507.471.273.931.559 1.378.869-.745-11.177 2.906-22.218 4.248-33.321.62-7.353 2.173-9.539 8.768-12.991.733-.386 2.385-2.162 3.18-1.876 2.061 1.85 2.558 5.067 4.433 7.141.435.758.398 1.64.547 2.472.136.745.857 1.267 1.465 2.012.795 1.416 2.074 2.347 2.658 3.813.15.658.236 1.366.571 1.962.447.919 1.615 1.428 2.186 2.223.634 1.366 1.789 1.963 2.956 2.77.534.633.758 1.676 1.515 2.248.646.596 1.553.695 2.298 1.043.757.36.919 1.317 1.689 2.012 1.13 1.279 3.229.546 4.421.869.733.311 1.441.733 2.261.783 1.006.112 1.925-.41 2.633-.385.732-.025 1.416.397 2.148.211 1.044-.236 1.851-1.105 2.745-1.627.82-.509 1.888-.435 2.844-1.081.696-.447 1.192-1.217 1.776-1.751.522-.509 1.18-.261 2-.571 1.353-.522 1.614-2.161 2.459-3.142.559-.621 1.763-.882 2.434-1.764.522-.559.981-2.186 1.639-2.186.137.013.336.187.398.385.534 2.546 2.049 2.869 4.21 3.416 2.161 1.478 4.161 3.614 6.732 4.322 1.415.199 2.186 1.441 3.465 1.9 1.378.497 2.62 0 3.912.224 1.801.496 3.477-.46 4.868-1.317 4.633-.497 7.204-5.365 10.868-7.787 2.956-2.596 4.024-6.694 6.073-9.861.745-1.615.397-2.733 1.316-4.235 1.18-1.789.361-3.962 2.074-5.453 1.776-.484 3.354 1.454 4.919 2.037 7.886 2.944 11.239 11.166 12.121 18.878 1.019 9.812 3.192 19.487 3.763 29.36-.124 5.763.211 11.476 1.565 17.102.894 7.738.907 11.675-1.167 19.114-3.204 4.471-7.502 11.662-10.78 15.512-5.117 5.477-9.874 11.811-13.848 18.108-1.143 1.292-2.609 2-3.987 2.981-2.31 1.589-3.9 3.75-5.75 5.713-1.242 1.589-2.248.149-3.379-1.031-.285-.286-.633-.646-.596-1.056.025-.472.435-.819.708-1.217 1.168-1.254.398-2.956.273-4.421l.025-.075c.336-.534 1.205-.434 1.727-.72 3.949-1.49-1.739-5.167-2.919-7.489-.782-1.478-1.379-3.279-2.558-4.086-2.435-1.553-6.98-4.409-8.657-5.465-.646-.348-.633-.782.087-1.155 3.639-1.776 5.8-5.527 9.017-7.799 1.242-.907 2.595-1.677 3.875-2.547 6.346-5.427 11.91-13.438 20.84-14.729 1.217-.05 2.148-1.18.596-1.441-2.049-.236-6.769 1.776-8.992 2.931-.82.497-1.093.025-.894-.919 1.975-14.196 4.67-28.217 4.011-42.624-.111-2.124 1.006-3.925.485-6.148-.894-3.949-1.317-7.849-1.366-11.836-.41-1.999-1.516.46-1.379 1.466-.373 4.322 2.347 9.799 1.205 14.121-.845 4.359.174 8.855-.261 13.264-.571 10.731-3.316 21.3-4.26 31.981.025 1.95.522 1.999-.733 3.191a46.91 46.91 0 0 1-1.589 1.391c-4.173 3.764-7.539 8.322-12.631 11.104-3.378 2.657-6.148 6.383-9.948 8.346-.398.124-.882.037-1.304-.087-2.708-1.118-10.272-.994-10.719-4.223 6.819-22.244 5.577-47.915 8.446-70.457-5.043 15.264-3.279 32.974-5.875 48.834-.646 5.204-2.173 10.346-3.167 15.5-.41 1.925-.571 3.863-.832 5.726-.137.708-.795.509-1.292.236-2.657-1.727-6.209-2.845-9.203-3.49-.832-.497-1.167-1.59-2.334-2.074-4.608-2.36-10.172-2.062-14.941-4.459-3.08-1.813-6.16-4.024-9.551-5.266-1.267-.472-2.484-1.441-3.167-2.558-1.13-1.839-.062-3.341.112-5.8.062-3.341.77-7.663 1.142-11.551.236 3.478 1.727 9.34 2.136 13.538.299 1.192-.906 5.042.746 5.228 1.08-.683.323-2.521.422-3.676.149-16.58-8.917-33.148-4.868-49.567.037-1.937 1.217-6.52-.286-7.923-.261-.038-.422.422-.46 1.217-.1 1.527-.149 3.813-.285 5.39-2.782 9.551-.584 19.909.906 29.583.323 6.794-.708 13.302-1.689 19.922-.161.906-1.043.869-1.776.645-2.26-.571-5.204-.496-6.942.708-.634.385-.584.808.298.733 8.308-1.428 7.451 1.987 13.177 5.539 5.092 1.975 8.88 6.694 14.519 7.39 3.018.435 5.874 1.478 8.706 2.484.745.199.335.559-.236.919-6.906 4.57-9.824 13.5-13.538 20.455-.223.882.783 1.18.062 1.577-.695.336-1.838.559-2.496.41-.844-.223-1.143-1.118-1.813-1.589-2.733-2.05-9.352-1.888-11.65-5.639-7.924-10.408-23.548-15.549-22.74-30.167.161-2.137 1.39-6.757 1.975-8.632-.61.41-1.553 3.627-2.15 4.036-.372 1.292-.757 2.609-1.092 3.987-.87 9.377 5.576 16.717 12.668 21.921 3.192 3.403 11.86 7.476 10.035 13.065-2.77 11.364-10.917 20.754-9.439 33.235.273 1.764-.757 1.975-2.447 2.36-6.992 2.844-11.016 10.221-10.11 17.313-.67 2.236-1.651 9.364-4.247 9.178-11.96-1.142-24.38.534-34.663 6.558-.012 1.006-.037 1.999-.062 3.005 10.544-6.272 23.61-9.426 35.446-6.992-.286 10.706 3.229 21.225 4.483 31.881.758 8.334 10.395 5.937 16.22 5.539 6.049-.832 12.432.497 18.232-.993-3.427-4.62-29.956 3.564-29-3.651 8.446-7.44 19.723 3.564 28.851-1.516-4.409-1.577-12.084-.211-16.555-2.918-.435-.36.199-.149.584-.149 4.421.795 11.45 1.912 15.462.248 2.869-1.614-3.229-.733-3.974-.894-9.936-1.23-20.878-4.571-28.627 1.962-3.23-14.469-5.552-25.46-.671-39.979.497-8.569 2.757-13.537 10.842-17.462 2.198 4.186 1.702 11.178 5.601 14.482.112.385-.422.745-.546 1.055.497 1.118 2.77.658 3.887 1.13 3.677.808 7.005 4.074 10.346 5.03 2.012.994 7.737.385 6.483 3.677-5.266 17.971 1.118 36.178 5.042 53.752 1.019 28.205 2.31 57.888 3.428 85.137-2.372 7.737-1.093 16.356-2.906 23.994-4.335 10.868-12.954 66.694 1.788 69.675 13.761 1.267 21.921-31.596 23.672-42.761 2.422-9.116 4.36-19.747 1.466-28.963.124-7.588-4.372-17.81-3.403-25.622-3.031-2.831-1.615 11.29-1.652 12.706.124 3.328 2.335 5.924 2.732 9.141.882 5.626-1.167 11.637-.956 17.325-.124.298-1.031 9.017-2.26 6.756-3.913-5.812-15.165-8.296-20.12-3.527-.46.435-1.155 1.093-1.565.323-1.826-5.775 1.763-11.004 2.819-16.518.795-4.856.087-9.501.77-14.419.634-3.739 2.037-8.172 1.987-11.836 4.981 1.031 10.545 2.335 15.91 1.676 4.819.125 9.364 2.546 8.669-4.508-.547-17.052 5.837-33.943 8.619-50.337 3.577 7.601 4.086 17.35 6.968 25.423.596 2.534 2.409 3.043 4.669 3.304 4.658 9.911 1.255 25.1 10.681 33.384 4.422 22.057 8.272 46.909 25.473 62.93 4.781 7.539 13.19 13.14 17.673 2.397 1.627-19.97.596-36.427-7.501-53.193-3.751-8.272-5.092-18.332-12.706-24.131-1.999-1.342-1.204-4.037-1.738-6.086-.584-3.006-4.385-14.072-6.409-16.27-3.9-2.198 2.496 8.719 2.919 9.812 1.589 3.465 1.478 7.874 2.546 11.401 3.775 6.235 9.426 11.19 10.084 18.903.174.981.112 2.049-1.204 1.676-19.698-4.968-16.99 32.093-27.423-6.98-.174-.782.273-1.105.087-1.863-.149-.447-.435-.745-.795-1.105-8.321-7.476-5.601-21.511-10.147-31.21 3.031-.547 7.067.26 10.135.745 3.577 1.105 6.88 3.018 10.792 1.602 5.949-1.441 4.881-7.055 4.062-11.538.223-4.074-12.917-47.095-3.726-39.793 2.124 5.676 1.453 16.841 8.768 18.655 8.508-5.179 1.453-20.505 6.048-20.691 11.166-1.019 22.319-3.9 33.658-2.248 1.105 30.142-1.255 62.359 1.291 92.874.385 1.093 1.516 1.403 2.397 1.975 1.714 1.912 3.975 2.608 5.068-.162.323-1.403 1.614-1.366 2.434-2.707.534-.857.708-1.876.857-2.869 4.682-29.472 2.608-60.124 6.098-89.583 6.582-12.308 9.228-28.131 9.451-42.227.882-13.612-6.458-25.075-9.849-37.731v-.075l.087.013ZM149.963 58.712l-.025.025c-.347.212-1.44.659-1.664.609-.012-.037-.037-.1-.037-.137.211-1.204 1.08-2.322 1.167-3.577 0-.198.025-.372.112-.36.708.373.646 2.72.447 3.44Zm-44.015-3.75c-.559-.298-1.913-.795-2.335-1.366-.149-.634.36-2.211.733-2.969.335-.658.733-1.416.993-.335.348 1.44.361 3.254.646 4.657h-.025l-.012.013Zm.149-6.943c1.664-5.862 1.205-13.922 4.57-18.84.336-.51.833-.783 1.416-.833.907.013 1.95-.596 2.882-.807.434-.074.795.062 1.204.013.398-.038 1.28-.708 2-.696 1.254-.05 2.695-.062 3.862.236.547.087 1.118-.223 1.627-.248.286-.013.51.136.808.236.459.186 1.006-.063 1.49-.013.373 0 .696.1 1.006 0 .273-.062.522-.385.683-.658 1.602-2.434 1.863-5.614 2.298-8.396.149.025.211.336.298.547.608 1.838 1.925 4.608 2.757 6.135.137.236.348.534.584.646l.074.025c.261.087.472-.075.708-.125.584-.111 1.019 1.056 1.515 1.317.373.248.423-.497.696-.286.261.162.77 1.143 1.205 1.454.236.186.521.235.807.297 1.105.249 1.888.932 2.956 1.441.906.472 1.639 1.18 2.471 1.69.224.074.211.049.311.061.608-.062 1.254-.223 1.714.323.298.286.509.659.795.957.248.285.496.248.757.186.646-.199.832.882 1.056 1.329.298.795.832 1.105 1.142 1.652.249.447.323 1.018.361 1.54.248 3.428.422 9.935.074 13.326-.373 2.05-1.913 3.676-2.409 5.775-.808 2.41-1.366 5.067-2.223 7.452-.77 2.136-1.739 4.074-3.515 5.452-5.328 3.776-16.407 7.738-22.331 3.875-2.769-1.59-6.421-4.322-8.557-6.483-.994-1.006-1.503-1.664-1.987-2.794-1.851-4.745-2.198-10.793-3.117-15.81v.037l.012-.013Zm9.551 68.358c-2.993 2.161-8.644 3.204-12.172 3.316-.621.012-1.179-.05-1.751-.236-5.936-2.447-12.37-10.333-15.015-15.115-1.565-3.092-2.434-6.557-4.099-9.588-.149-.31-.223-.596-.173-.807.074-.385.596-.584 1.006-.695 4.856-1.367 10.134-2.571 14.829-4.62 2.049-.907 3.949-1.888 5.675-3.304 1.031-.807 2.211-1.727 3.515-2.012.261-.037.46-.013.547.1l.037.061c.137.286-.087.783-.211 1.143-3.515 10.445 9.277 18.133 14.506 24.976 2.385 2.956-5.005 5.204-6.682 6.781h-.012Zm9.24-5.825c-.224-.161-.373-.534-.559-.77-.286-.447-.857-1.068-1.279-1.515-3.751-3.937-5.937-6.222-8.868-9.513-10.954-12.37-3.005-8.173-3.986-24.815-.112-1.987-.299-3.664-.584-5.663-.037-.398-.025-.708.136-.808.286-.236 1.118.398 1.739.97 9.178 10.593 19.151 8.805 30.602 2.843l.037.025c.1.1.075.373-.024.745-1.329 4.459-1.367 9.39-.497 13.873.025.633-.472 1.056-.783 1.69-3.999 6.73-13.5 24.366-15.934 22.951v-.013ZM70.825 300.163h.013c-1.975.671-6.943 2.323-8.557 3.478 1.092-2.72 5.762-3.217 8.544-3.478Zm33.26 148.154c5.067-2.496 13.6-1.155 16.63 3.888 1.205 2.111.224 4.595-.435 6.781-.397 1.018-.41 2.074-.77 2.968l-.049.037c-.174.149-.51-.024-.969-.372-.646-.472-1.192-.957-1.826-1.304-.944-.485-1.366-.795-.174-1.578 2.484-1.515 4.633-6.098.062-5.588-.285.012-.919.186-1.229.372-.609.335-1.826 1.081-2.819 1.677-.907.546-1.342.931-1.752-.149-1.403-4.881-7.451-4.981-6.048.062.236.82.733 1.739 1.143 2.409.149.224.149.485.111.522-.434.546-2.26.795-2.955 1.043-.733.186-.87-.298-.882-1.043-.025-.857-.075-1.739-.124-2.608-.162-3.105-.212-5.688 2.086-7.104v-.013Zm-2.981 2.956c.125.845-.347 2.198-.397 3.254-.112 1.354-.112 2.844-.075 4.26.112 2.509.746 2.31 3.428 1.776.721-.025 3.739-1.13 2.509.472-3.602 4.67-2.608 10.929-3.515 16.506-.174.857-.037 1.813.994 1.18 3.775-1.056 5.874-21.958 7.986-15.624 1.378 4.707-.87 10.171-.485 14.978.062.484.162 1.279.646 1.329.224 0 .497-.249.783-.659.67-.968 1.428-2.819 1.949-4.036 1.528-3.328 2.397-7.005 1.776-10.656-.397-2.298 1.068-.894 2.062.174 1.826 1.863 2.434-1.789 2.621-3.043.26-1.826.633-3.378 1.192-5.129.373-1.118 1.428-1.602 1.962-2.658 2.198-4.074 2.012-10.457 2.981-14.792.459 7.477-.733 14.891-3.006 22.07-2.285 14.618-6.979 29.348-17.387 40.327l-.1.062c-1.776.968-4.943-.708-6.483-2.124-.645-.634-.919-1.453-1.13-2.298-1.813-7.129-3.229-15.748-2.533-23.1.521-2.397 1.291-4.881 1.465-7.378.559-5.464 0-11.09.67-16.567.088-.348.137-.982.498-.634.509.758 1.378 1.528 1.577 2.298h.025l-.013.012Zm19.884-234.93-.049.037c-7.937-.671-15.848-1.863-23.026 2.124-.882.459-2.472 1.105-3.317.832-.248-.087-.285-.286-.136-.522 3.03-2.844 7.377-3.49 11.14-5.054.323-.137 1.304-.547.758-.808-1.913-.67-13.016 4.062-14.06 6.781.026.684 0 .919-.72 1.379-1.316.857-4.197 2.782-5.216 3.428-.348.199-.484.136-.273-.323.596-1.304 2-2.434 3.142-3.353 2.236-1.826 4.198-4.161 6.52-6.011.336-.336 1.317-.932 1.044-1.367-1.516-.732-9.688 7.154-12.209 9.328-.223.049.087-.46.224-.671 1.552-2.658 5.204-4.931 6.843-7.576.559-1.292-.82-.447-2.124.745-1.937 1.615-3.974 4.359-5.961 5.651 1.18-2.509 3.937-3.875 5.154-6.346.646-1.168 1.664-2.112 3.08-2.137 4.061-.372 7.973-1.391 11.575-3.167 2.534-1.49 5.465-.248 8.172.05.857.112 1.776-.062 2.596.149.795.211 7.576 5.875 6.831 6.818l.012.013Zm29.099 2.869c-2.098-.273-2.558-2.708-3.899-4.037-.46-.397-3.329-4.607-3.515-3.104-.037.422.199.956.435 1.353 1.478 2.459 5.514 6.073 4.26 8.446-.249.484-.733.869-1.292.894-2.509-.286-4.285-3.502-5.862-5.229-.745-.906-1.416-1.652-1.677-1.577-.074.025-.099.136-.074.31.459 2.199 4.483 4.894 3.601 7.117-.72.261-1.565-.547-2.248-.795-1.229-.633-3.03-1.018-3.899-1.764-1.031-1.043-2.074-2.869-3.689-2.906-.807.149 1.006 1.962.72 2.236-1.502-.174-3.03-1.093-4.471-1.689-1.254-.584-2.608-.597-3.875-1.106-1.502-.583-3.03-2.335-4.185-3.465-1.565-1.664-3.44-3.005-4.943-4.769-2.67-3.304-3.813-5.266-7.104-6.284-1.255-.423-3.167-.683-4.782-.77-.534-.025-1.341-.174-1.416-.596-.049-1.056.696-2.037 1.329-3.341 2-3.304 5.229-8.16 8.955-9.191 5.924-.472 11.724 3.726 16.878 6.148.82.397 1.751.546 2.683.608 5.974.336 10.432 4.136 15.45 7.042.633.373 1.254.77 1.726 1.304 1.23 1.391 1.739 3.615 3.018 5.117 1.081 1.354 2.919 2.435 3.055 3.217.112.894-2.57 1.503-3.39 1.081l-.099-.05c-.398-.236-.684-.72-.907-1.155-2.037-3.999-5.005-7.464-8.731-9.986-2.025-.832 3.477 4.273 3.676 4.521 1.813 1.938 2.807 4.533 4.223 6.744.844 1.403 2.446 2.993 2.31 4.695-.211.906-1.441 1.117-2.273 1.018h-.012l.024-.037Zm23.784 215.58c2.583-5.837 8.607-13.487 15.81-12.37 2.099.758 2.869 3.515 3.428 6.558.447 2.819.957 6.123 2.074 8.545v.062c-.074.211-.273.248-.521.323-.919.211-3.043.645-4.062.844-.36.062-.807.112-.558-.397 1.291-2.484 3.638-7.564.596-8.346-2.522-.547-3.304 2.744-3.813 4.52-.224.758-.36 1.379-.596 1.404-.236.037-.634-.484-1.217-.981-1.59-1.267-3.95-2.385-6.074-2.049-2.446.385-2.347 3.937-.447 5.092 1.155.881 2.658 1.353 3.999 1.862.758.274 1.342.547 1.131.87-1.677 1.292-3.801 2.223-5.651 3.254-.659.36-1.329.261-1.565-.497-.634-2.211-1.441-4.782-2.497-6.793a2.355 2.355 0 0 1-.037-1.901Zm-5.527-2.62c1.205 1.763 3.068 3.005 4.422 4.595 1.503 2.546 2.509 8.607 3.204 10.283.497.895 1.242-.074 1.913-1.043.72-1.155 1.801-1.925 3.03-2.533 1.329-.659 2.708-1.429 2.484.31-.335 3.254.075 6.62 1.379 9.65.77 1.466.993 3.118 1.887 4.558.808 1.006 1.714-.31 1.863-1.105.733-4.037-2.248-9.228-1.08-13.351.087-.273.211-.41.36-.385.323.062.646.646.845.993 1.875 3.515 2.136 7.415 2.62 11.228 1.577 15.437 7.824-8.21.137-14.693-.323-.41-.075-.584.72-.795 1.316-.347 3.527-.857 4.819-1.254.174-.075.261-.137.286-.248-.398-1.913-3.366-11.315-3.913-13.414-.174-.745 1.031-1.043 1.429-.397.819 2.024 1.316 4.198 2.223 6.297 2.061 5.477 4.744 10.879 5.949 16.605 1.639 9.103-.224 21.299.844 30.9.298 2.31-1.888 3.763-3.85 4.595-1.378.634-2.918.46-4.247-.36-2.969-1.788-4.732-5.378-7.154-7.737-3.738-3.602-7.241-7.415-8.942-12.234a12.937 12.937 0 0 0-1.255-2.347c-5.216-8.16-8.259-17.599-10.755-26.876v-.1c-.124-1.465-.236-2.484.807-1.117l-.025-.025Zm-2.496-139.709c-1.18-3.751-2.782-8.793-3.751-11.886-.186-.683-.397-.931-.087-1.304.174-.223.584-.583.857-.844 2.348-2.211 4.297-5.03 5.949-7.812 1.044-1.664 1.528-3.552 3.229-4.745 4.012-2.695 8.607-5.228 10.594-9.687.423-1.043.994-1.291 1.95-.683 3.118 1.714 7.427 3.763 9.626 5.825l.086.087c6.521 7.253 7.427 19.586 7.986 29.037 0 .323-.062.571-.211.683-12.295-3.925-21.585 1.155-33.558 4.26-.459.099-1.391.385-1.614.137-.336-.572-.51-1.565-1.044-3.08l-.012.012Zm17.201 56.323c-.36.162-1.267.025-1.105-.447.41-.273 1.254-.46 1.726-.385l.037.037c.261.36-.285.696-.658.795Zm2.099-4.434c.013.783-.074 1.068-.894 1.342-.907.285-1.987.26-2.919.273-.559-.037-.857.099-1.105-.224-.497-1.54-4.57-14.518-4.831-15.412.037-.224.36-.112.782-.162 2.484-.112 7.117-.447 9.514-.509h.024c0 3.291-.459 11.327-.546 14.705h-.012l-.013-.013Zm44.14 77.884c-.981-.348.434-1.441.732-1.155-.037.484-.198 1.354-.732 1.155Zm3.179-5.204c-.112 1.242-.882 1.739-2.223 1.727-.832.062-1.664.149-2.472.335-.844.236-1.639.136-1.639-.969 0-29.869-2.546-60.744-.646-90.278 1.267-1.155 4.819.645 9.427.223.646-.062 1.353-.149 1.937-.286.46-.086.894-.235 1.217-.012l.05.05c-2.77 29.422-1.254 59.912-5.638 89.198l-.013.012Zm7.824-93.47c-1.415 3.316-6.458 2.769-9.476 2.409-3.328-.497-6.557-1.428-9.886-1.416-16.729-.434-33.719 3.254-50.299 3.565-.299-2.323-3.118-27.41-3.49-30.602-.087-.621 1.117-.348 1.751-.485 11.401-.447 21.151-9.178 33.173-3.999 1.006 1.006.72 2.261-.683 1.764-8.048-2.819-16.593.534-24.268 2.844-1.938.435-7.427.186-7.825 2.447 0 .608.907.844 1.515.819 9.638.149 20.841-8.023 30.528-4.086l-.062-.31c.074.521-1.168 1.975-1.416 2.67-4.173 3.341-12.544 4.757-16.543 5.576-3.887.659-14.022.833-13.798 2.981.049.336.41.571.906.584 8.483-1.602 27.932-2.732 31.335-10.656.211-.311.46-.385.634-.124.211.273.236.944-.062 1.515-6.123 8.582-20.021 6.744-28.802 10.457-.857.348-2.024 1.056-2.235 1.938-.186.956.981 1.006 1.652.745 4.284-1.813 9.116-2.583 13.785-3.465 9.377-1.776 14.606-4.111 18.021-12.917.398-2.086-.857-4.707-.521-6.905.509-5.527-1.789-13.947-2.757-19.362.136-.423.981-.36 1.453-.286 10.494 1.329 21.324 1.49 31.397 5.191.385.149.745.286 1.093.485.956.534 1.726 1.85 2.918 1.316 2.049-1.776-2.099-3.738-6.334-5.03-10.358-3.105-28.553-5.216-30.751-2.645-.087.075-.174.074-.286-.062-.136-.137-.31-.447-.534-.869-3.589-6.993-7.501-10.197-14.767-13.327-1.08-.41-1.887-1.18-1.651-2.397 2.285-12.246-1.739-23.846-8.284-34.117-1.217-2.769-1.478-6.383-2.944-8.693-.633-.957-.397-1.826.373-2.795 15.077-18.132 23.982-21.809 20.318-47.008-.012-.422-.087-.721.286-.832.609.161 2.149 1.08 3.105 1.366 19.163 4.943 19.014 24.963 37.793 35.321.944.596 1.528 1.28 1.714 2.273 2.012 16.133-1.888 31.397 1.565 47.816.956 4.881 2.744 9.513 4.595 14.109 9.613 20.02 5.291 44.251-2.198 64.16l-.025.037h-.013Z"/><path fill="#1D1D1D" d="M98.646 317.538c-.994 1.676-13.885-4.595-14.854-4.595-4.732-1.391-10.271-.361-15.028-.795-1.85-.398-1.118-1.143.658-1.292 2.335-.248 4.67-.211 6.98-.124 2.273.124 4.757.161 6.943.757 3.813.895 7.265 3.031 10.93 3.987 1.303.435 4.358.186 4.37 1.987l-.024.062.025.013ZM126.391 145.873c3.863-1.068 4.037 5.104.957 5.998-4.285 1.106-4.757-4.943-1.093-5.961l.136-.037ZM128.428 121.157c3.912.199 4.806 5.912.36 5.341-2.906-.187-3.54-4.956-.497-5.341h.137ZM121.697 176.313c-1.528-1.739 1.068-5.44 3.179-3.8 2.671 2.061-.832 6.272-3.105 3.899l-.087-.086.013-.013ZM136.973 61.306c-.323.335-1.552.248-2.223.547-2.459 1.726-5.874 2.384-8.917 1.676-1.702-.509-4.72-1.614-6.396-2.757-.385-.31-.025-.633.124-.919 0-.062.037-.062-.05-.137-.435-.174-1.987-.099-2.608-.285-.571-.112-.807-.261-.745-.41 1.142-.907 3.577-.36 4.968-.807 1.589-.472 3.589-1.242 5.303-.646.72.236 1.465.348 2.235.348 2.062-.025 3.565 1.738 5.391 2.347.596.273 3.067.112 2.968.993l-.037.05h-.013Zm-6.719-1.751c-.571-.894-2.074-.41-2.981-.522-1.092-.087-2.384-1.105-3.514-.546-.062.124.261.298.484.41 1.751.857 4.161.708 5.986.695l.025-.037Zm2.298 1.577c-2.372-.41-9.663-1.006-11.165-1.204 2.483 2.272 8.184 3.328 11.128 1.242l.037-.038ZM124.553 33.04c-2.757-.223-5.266-1.837-8.085-1.043-1.105.261-2.236 1.168-3.366 1.354-.993.186-1.093-.695-.534-1.254 1.627-1.764 4.906-2.385 7.303-1.938.919.087 5.589 1.876 4.769 2.857l-.074.025h-.013ZM123.734 38.444c.956 1.068-3.391 1.987-4.682 1.987-1.118-.087-5.751-.795-5.738-2.037.037-.497.646-.931 1.13-.907 1.254.112 3.527 1.056 5.03 1.155 1.341.125 2.881-.496 4.185-.236l.087.038h-.012ZM146.474 43.025c-.385 1.093-12.494-.31-10.532-3.204.633-.025 3.316 1.006 4.955 1.552 1.466.634 3.615.398 5.242 1.068.335.162.422.373.36.522l-.025.05v.012ZM147.48 37.474c-.149.112-.472 0-.745-.26-2.807-3.242-4.732-4.149-8.98-2.82-.397.124-1.155.187-1.279-.1-.708-1.018 6.235-3.564 9.75.535.62.795 1.304 1.614 1.304 2.596l-.05.05ZM133.992 35.264c-1.416 3.304-2.794 6.794-2.968 10.445-.335.646-1.006.186-.857-.435.174-3.415.633-8.296 3.8-10.035l.025.025ZM123.672 47.745c-.236.708-.919 1.478-1.217 2.211-.398.733-.435 1.577-.323 2.372-.025.1-.112.162-.224.174-1.254-.037-1.49-1.292-1.055-2.471.434-1.218 1.564-2.534 2.794-2.323l.025.062v-.025ZM133.992 52.178c.336-.447.298-1.403.211-1.975-.037-.596-.248-1.155.336-1.13 1.9.447.956 4.372-.87 4.67-1.776.174-.198-1.08.274-1.503l.062-.074-.013.012ZM123.982 51.72c-.224-.733.509-1.33 1.204-1.416.808-.224 1.64.484 1.044 1.192-.522.422-1.615.298-2.186.273l-.038-.05h-.024ZM131.955 51.246c.696 1.106-.993 1.478-1.689 1.13-.844-.906.994-2.073 1.664-1.192l.038.062h-.013Z"/><path fill="#1D1D1D" d="M.655 284.401c.223 14.096 2.869 29.918 9.451 42.226 3.478 29.46 1.403 60.124 6.086 89.596.149.993.323 1.999.857 2.869.832 1.341 2.11 1.304 2.434 2.707 1.093 2.77 3.353 2.074 5.055.162.881-.584 2.024-.882 2.397-1.975 2.533-30.515.186-62.732 1.291-92.874 11.327-1.652 22.492 1.242 33.657 2.248 4.596.186-2.471 15.512 6.049 20.691 7.315-1.813 6.644-12.979 8.768-18.654 2.745-2.186 1.987-2.348 7.39-1.329.1-.559 7.44-.795.1-.559-.063 0-9.191-1.292-7.49 1.875-.174-2.36 10.197-.882 10.47-3.304-16.493-.36-40.376-4.036-57.006-3.601-3.329 0-6.57.919-9.886 1.416-3.018.36-8.048.894-9.476-2.422-7.477-19.909-11.8-44.14-2.199-64.148 1.85-4.607 3.64-9.228 4.595-14.109 3.453-16.418-.447-31.682 1.565-47.815.187-1.006.77-1.689 1.714-2.273C35.268 184.77 35.12 164.75 54.27 159.819a7.67 7.67 0 0 0 .944-.385c1.366-1.031 2.919-1.801 4.57-2.174a5.11 5.11 0 0 1 .473-.086c.136-.932.273-1.863.36-2.807-.658-.038-.497-1.031-1.155-1.168-.087.621-.994 2.136-1.106 2.695-18.343 6.508-18.517 9.365-29.223 24.778-3.54 4.023-6.868 7.861-11.575 10.68-1.85 1.242-4.484 2.273-4.521 4.732-1.838 17.003.919 33.707-2.583 50.598-3.39 12.656-10.73 24.107-9.85 37.719h.05Zm66.768 63.526.037-.037c.472-.075 1.316.112 1.726.385.15.472-.745.608-1.105.447-.373-.099-.92-.435-.658-.795Zm-2.012-18.331h.025c2.384.037 7.017.385 9.513.496.422.063.733-.062.782.162-.26.894-4.334 13.873-4.83 15.413-.237.323-.547.186-1.106.223-.92-.012-2.012.013-2.919-.273-.807-.261-.906-.546-.894-1.329-.1-3.378-.546-11.426-.546-14.692h-.025Zm-44.314 91.408c.286-.285 1.714.808.733 1.155-.534.187-.695-.67-.733-1.155Zm-8.085-93.246.037-.05c.323-.224.758-.075 1.218.012.583.125 1.304.224 1.937.286 4.608.422 8.16-1.391 9.427-.224 1.912 29.534-.646 60.41-.646 90.279 0 1.118-.808 1.205-1.64.969a18.161 18.161 0 0 0-2.471-.336c-1.341 0-2.111-.484-2.223-1.726-4.372-29.286-2.857-59.788-5.639-89.198v-.012Z"/><path fill="#1D1D1D" d="M59.188 158.083c.969 5.017-.919 9.178-2.124 14.109-.869 9.376 5.577 16.716 12.668 21.92 2.298 2.447 7.403 5.229 9.44 8.669.397-.236 1.477 1.143 1.9.919-7.85-9.575-22.418-16.692-22.728-30.912-.075-3.428 1.738-6.011 2.148-8.831.944-6.669.733-13.674 1.068-20.38.584-9.104-.087 2.148 3.267-27.609-.472.099-.944.186-1.416.285-1.826 11.886-3.478 23.722-3.788 35.806-.236 2.509-.186 3.677-2.98 4.285-.696.162-1.33.745-2.025.907.074.497.062.571.074 1.068 2.025-.845 3.888-1.366 4.508-.286v.025l-.012.025Z"/></svg>