<svg width="26" height="25" viewBox="0 0 26 25" fill="none" xmlns="http://www.w3.org/2000/svg">
<mask id="mask0_4_13" style="mask-type:luminance" maskUnits="userSpaceOnUse" x="0" y="0" width="26" height="25">
<path d="M26 0H0V25H26V0Z" fill="white"/>
</mask>
<g mask="url(#mask0_4_13)">
<path d="M13 0.312988C10.5897 0.313186 8.23352 1.02811 6.22951 2.36735C4.2255 3.7066 2.66362 5.61002 1.74136 7.83692C0.819113 10.0638 0.577912 12.5142 1.04826 14.8782C1.51861 17.2421 2.67939 19.4136 4.38381 21.1179C6.08824 22.8221 8.25975 23.9827 10.6238 24.4529C12.9878 24.923 15.4381 24.6816 17.665 23.7592C19.8918 22.8368 21.7951 21.2747 23.1342 19.2706C24.4732 17.2665 25.188 14.9103 25.188 12.5C25.1848 9.2685 23.8997 6.17028 21.6147 3.88528C19.3297 1.60027 16.2315 0.316165 13 0.312988ZM17.688 13.437H8.31297C8.06963 13.429 7.83891 13.3268 7.66959 13.1518C7.50026 12.9769 7.40559 12.743 7.40559 12.4995C7.40559 12.256 7.50026 12.0221 7.66959 11.8471C7.83891 11.6722 8.06963 11.5699 8.31297 11.562H17.687C17.9357 11.562 18.1743 11.6608 18.3502 11.8367C18.5261 12.0126 18.625 12.2512 18.625 12.5C18.625 12.7488 18.5261 12.9873 18.3502 13.1633C18.1743 13.3392 17.9357 13.438 17.687 13.438L17.688 13.437Z" fill="#313131"/>
</g>
</svg>
