<?xml version="1.0" standalone="no"?>
<svg xmlns:xlink="http://www.w3.org/1999/xlink" id="wave" style="transform:rotate(0deg); transition: 0.3s" viewBox="0 0 1440 490" version="1.1" xmlns="http://www.w3.org/2000/svg"><defs><linearGradient id="sw-gradient-0" x1="0" x2="0" y1="1" y2="0"><stop stop-color="rgba(204, 206, 197, 1)" offset="0%"/><stop stop-color="rgba(204, 206, 197, 1)" offset="100%"/></linearGradient></defs><path style="transform:translate(0, 0px); opacity:1" fill="url(#sw-gradient-0)" d="M0,196L30,220.5C60,245,120,294,180,326.7C240,359,300,376,360,326.7C420,278,480,163,540,114.3C600,65,660,82,720,122.5C780,163,840,229,900,261.3C960,294,1020,294,1080,261.3C1140,229,1200,163,1260,138.8C1320,114,1380,131,1440,155.2C1500,180,1560,212,1620,253.2C1680,294,1740,343,1800,351.2C1860,359,1920,327,1980,318.5C2040,310,2100,327,2160,343C2220,359,2280,376,2340,375.7C2400,376,2460,359,2520,310.3C2580,261,2640,180,2700,187.8C2760,196,2820,294,2880,343C2940,392,3000,392,3060,392C3120,392,3180,392,3240,351.2C3300,310,3360,229,3420,236.8C3480,245,3540,343,3600,318.5C3660,294,3720,147,3780,147C3840,147,3900,294,3960,367.5C4020,441,4080,441,4140,424.7C4200,408,4260,376,4290,359.3L4320,343L4320,490L4290,490C4260,490,4200,490,4140,490C4080,490,4020,490,3960,490C3900,490,3840,490,3780,490C3720,490,3660,490,3600,490C3540,490,3480,490,3420,490C3360,490,3300,490,3240,490C3180,490,3120,490,3060,490C3000,490,2940,490,2880,490C2820,490,2760,490,2700,490C2640,490,2580,490,2520,490C2460,490,2400,490,2340,490C2280,490,2220,490,2160,490C2100,490,2040,490,1980,490C1920,490,1860,490,1800,490C1740,490,1680,490,1620,490C1560,490,1500,490,1440,490C1380,490,1320,490,1260,490C1200,490,1140,490,1080,490C1020,490,960,490,900,490C840,490,780,490,720,490C660,490,600,490,540,490C480,490,420,490,360,490C300,490,240,490,180,490C120,490,60,490,30,490L0,490Z"/></svg>