<svg xmlns="http://www.w3.org/2000/svg" version="1.1" xmlns:xlink="http://www.w3.org/1999/xlink" xmlns:svgjs="http://svgjs.dev/svgjs" width="125" height="145"><svg width="125" height="145" viewBox="0 0 125 145" fill="none" xmlns="http://www.w3.org/2000/svg">
<path d="M55.2832 0C86.329 0 104.303 20.1525 104.303 53.3769V109.205C104.303 120.37 107.026 126.906 122.004 126.906H125V132.898L86.329 144.335H81.427V113.562C72.1678 134.532 55.5556 144.335 37.5817 144.335C15.5229 144.335 0.272331 129.085 0.272331 108.932C0.272331 82.7887 20.4248 71.0784 62.6362 61.2745L81.427 56.9172V52.5599C81.427 25.8715 68.8998 9.53158 48.475 9.53158C32.6797 9.53158 22.8758 20.4248 22.8758 34.0414C22.8758 39.2157 24.2375 43.573 26.9608 49.0196L5.44662 56.9172C1.63399 51.4706 0 46.841 0 41.122C0 19.0632 25.3268 0 55.2832 0ZM24.5098 105.12C24.5098 119.553 33.4967 129.357 47.3856 129.357C60.7298 129.357 73.2571 120.643 81.427 105.664V66.1765L65.0871 69.9891C34.5861 77.3421 24.5098 86.8736 24.5098 105.12Z" fill="black"></path>
</svg><style>@media (prefers-color-scheme: light) { :root { filter: none; } }
@media (prefers-color-scheme: dark) { :root { filter: invert(100%); } }
</style></svg>